{
.appVersion = "3133";
DisplayStrings = (
"/snKA/snmI/snGA/snmI/snGHA/snmI/snNNGA/snmI/snNYA/snmI/snJNYA/snmI/snTA/snmI/snDA/snmI/snNA/snmI/snNDA/snmI/snPA/snmI/snBHA/snmI/snYA/snmI/snSHA/snmI/snSSA/snmI/snSA/snmI/snHA/snmI/snFA/snmI/snK_SSA/snmI",
"/snKHA/snNGA/snCA/snCHA/snJA/snJHA/snNYJA/snTTA/snTTHA/snDDA/snDDHA/snNNA/snNNDDA/snTHA/snDHA/snPHA/snBA/snMA/snMBA/snRA/snLA/snVA/snLLA",
"/snKA_mU/snKHA_mU/snGA_mU/snGHA_mU/snNGA_mU/snNNGA_mU/snCA_mU/snCHA_mU/snJA_mU/snJHA_mU/snNYA_mU/snJNYA_mU/snNYJA_mU/snTTA_mU/snTTHA_mU/snDDA_mU/snDDHA_mU/snNNA_mU/snNNDDA_mU/snTA_mU/snTHA_mU/snDA_mU/snDHA_mU/snNA_mU/snNDA_mU/snPA_mU/snPHA_mU/snBA_mU/snBHA_mU/snMA_mU/snMBA_mU/snYA_mU/snRA_mU/snLA_mU/snVA_mU/snSHA_mU/snSSA_mU/snSA_mU/snHA_mU/snLLA_mU/snFA_mU/snK_SSA_mU",
"/snKA_mUU/snKHA_mUU/snGA_mUU/snGHA_mUU/snNGA_mUU/snNNGA_mUU/snCA_mUU/snCHA_mUU/snJA_mUU/snJHA_mUU/snNYA_mUU/snJNYA_mUU/snNYJA_mUU/snTTA_mUU/snTTHA_mUU/snDDA_mUU/snDDHA_mUU/snNNA_mUU/snNNDDA_mUU/snTA_mUU/snTHA_mUU/snDA_mUU/snDHA_mUU/snNA_mUU/snNDA_mUU/snPA_mUU/snPHA_mUU/snBA_mUU/snBHA_mUU/snMA_mUU/snMBA_mUU/snYA_mUU/snRA_mUU/snLA_mUU/snVA_mUU/snSHA_mUU/snSSA_mUU/snSA_mUU/snHA_mUU/snLLA_mUU/snFA_mUU",
"/snKHA_mI/snNGA_mI/snCA_mI/snCHA_mI/snJA_mI/snJHA_mI/snNYJA_mI/snTTA_mI/snTTHA_mI/snDDA_mI/snDDHA_mI/snNNA_mI/snNNDDA_mI/snTHA_mI/snDHA_mI/snPHA_mI/snBA_mI/snMA_mI/snMBA_mI/snRA_mI/snLA_mI/snVA_mI/snLLA_mI",
"/snKHA_mII/snNGA_mII/snCA_mII/snCHA_mII/snJA_mII/snJHA_mII/snNYJA_mII/snTTA_mII/snTTHA_mII/snDDA_mII/snDDHA_mII/snNNDDA_mII/snTHA_mII/snDHA_mII/snPHA_mII/snBA_mII/snMA_mII/snMBA_mII/snRA_mII/snVA_mII/snLLA_mII",
"/snK_RA/snKH_RA/snG_RA/snGH_RA/snNNG_RA/snC_RA/snCH_RA/snJ_RA/snNY_RA/snJNY_RA/snNYJ_RA/snTT_RA/snTTH_RA/snDDH_RA/snNN_RA/snT_RA/snD_RA/snN_RA/snND_RA/snBH_RA/snM_RA/snY_RA/snV_RA/snSH_RA/snSS_RA/snS_RA/snH_RA/snF_RA/snK_SS_RA",
"/snDD_RA_mI/snDD_RA_mII/snSH_RA_mI/snSH_RA_mII/snTT_RA_mI/snTT_RA_mII",
"",
"!(/snAE )/snTA/snVirama/snTA )///snDA ?/bullet///backslash ()",
"/snNA_mUU/snBHA_mUU/snHA_mUU",

glyphs = (
{
color = 4;
glyphname = snA;
lastChange = "2022-07-23 16:24:18 +0000";
layers = (
{
layerId = "25BA55F5-DD3E-4682-A696-ADF7D9496427";
name = Light;
paths = (
{
closed = 1;
nodes = (
"625 456 OFFCURVE",
"604 447 OFFCURVE",
"604 424 CURVE SMOOTH",
"604 407 OFFCURVE",
"617 394 OFFCURVE",
"635 394 CURVE SMOOTH",
"647 394 OFFCURVE",
"664 404 OFFCURVE",
"664 424 CURVE SMOOTH",
"664 448 OFFCURVE",
"647 456 OFFCURVE",
"635 456 CURVE SMOOTH"
);
},
{
closed = 1;
nodes = (
"601 368 OFFCURVE",
"577 395 OFFCURVE",
"577 424 CURVE SMOOTH",
"577 455 OFFCURVE",
"604 481 OFFCURVE",
"635 481 CURVE SMOOTH",
"668 481 OFFCURVE",
"690 459 OFFCURVE",
"690 424 CURVE SMOOTH",
"690 388 OFFCURVE",
"661 368 OFFCURVE",
"635 368 CURVE SMOOTH"
);
},
{
closed = 1;
nodes = (
"425 305 OFFCURVE",
"425 402 CURVE SMOOTH",
"425 445 OFFCURVE",
"385 471 OFFCURVE",
"358 471 CURVE SMOOTH",
"326 471 OFFCURVE",
"295 454 OFFCURVE",
"274 441 CURVE",
"297 420 OFFCURVE",
"309 389 OFFCURVE",
"308 353 CURVE SMOOTH",
"307 337 OFFCURVE",
"290 280 OFFCURVE",
"248 280 CURVE SMOOTH",
"206 280 OFFCURVE",
"185 309 OFFCURVE",
"188 353 CURVE SMOOTH",
"190 381 OFFCURVE",
"204 408 OFFCURVE",
"225 431 CURVE",
"139 431 OFFCURVE",
"51 353 OFFCURVE",
"48 295 CURVE",
"20 297 LINE",
"24 363 OFFCURVE",
"121 458 OFFCURVE",
"218 458 CURVE SMOOTH",
"230 458 OFFCURVE",
"240 457 OFFCURVE",
"248 454 CURVE",
"273 475 OFFCURVE",
"317 498 OFFCURVE",
"359 498 CURVE SMOOTH",
"412 498 OFFCURVE",
"452 454 OFFCURVE",
"452 400 CURVE SMOOTH",
"452 290 OFFCURVE",
"205 248 OFFCURVE",
"205 124 CURVE SMOOTH",
"205 68 OFFCURVE",
"271 27 OFFCURVE",
"372 27 CURVE SMOOTH",
"503 27 OFFCURVE",
"626 83 OFFCURVE",
"693 149 CURVE",
"709 129 LINE",
"626 48 OFFCURVE",
"501 0 OFFCURVE",
"372 0 CURVE SMOOTH",
"259 0 OFFCURVE",
"177 41 OFFCURVE",
"177 124 CURVE SMOOTH",
"177 264 OFFCURVE"
);
},
{
closed = 1;
nodes = (
"231 401 OFFCURVE",
"217 375 OFFCURVE",
"215 351 CURVE SMOOTH",
"213 324 OFFCURVE",
"220 303 OFFCURVE",
"245 303 CURVE SMOOTH",
"269 303 OFFCURVE",
"281 328 OFFCURVE",
"281 353 CURVE SMOOTH",
"281 383 OFFCURVE",
"273 406 OFFCURVE",
"256 419 CURVE",
"255 420 OFFCURVE",
"254 420 OFFCURVE",
"253 422 CURVE"
);
},
{
closed = 1;
nodes = (
"530 586 OFFCURVE",
"662 586 CURVE",
"661 558 LINE",
"530 558 OFFCURVE",
"503 464 OFFCURVE",
"503 385 CURVE SMOOTH",
"503 280 OFFCURVE",
"540 18 OFFCURVE",
"540 -60 CURVE SMOOTH",
"540 -286 OFFCURVE",
"465 -380 OFFCURVE",
"287 -417 CURVE",
"286 -389 LINE",
"453 -356 OFFCURVE",
"514 -250 OFFCURVE",
"514 -62 CURVE SMOOTH",
"514 2 OFFCURVE",
"475 308 OFFCURVE",
"475 377 CURVE SMOOTH",
"475 507 OFFCURVE"
);
}
);
width = 749;
}
);
unicode = 0D85;
},
{
color = 4;
glyphname = snI;
lastChange = "2022-07-23 16:24:18 +0000";
layers = (
{
layerId = "25BA55F5-DD3E-4682-A696-ADF7D9496427";
name = Light;
paths = (
{
closed = 1;
nodes = (
"215 -316 OFFCURVE",
"91 -222 OFFCURVE",
"91 -91 CURVE SMOOTH",
"91 -27 OFFCURVE",
"127 10 OFFCURVE",
"129 12 CURVE",
"149 -6 LINE",
"149 -6 OFFCURVE",
"120 -40 OFFCURVE",
"120 -91 CURVE SMOOTH",
"120 -205 OFFCURVE",
"231 -288 OFFCURVE",
"385 -288 CURVE SMOOTH",
"482 -288 OFFCURVE",
"592 -236 OFFCURVE",
"592 -160 CURVE SMOOTH",
"592 -108 OFFCURVE",
"542 -76 OFFCURVE",
"455 -74 CURVE",
"456 -45 LINE",
"560 -48 OFFCURVE",
"621 -91 OFFCURVE",
"621 -160 CURVE SMOOTH",
"621 -253 OFFCURVE",
"499 -316 OFFCURVE",
"385 -316 CURVE SMOOTH"
);
},
{
closed = 1;
nodes = (
"66 294 OFFCURVE",
"174 365 OFFCURVE",
"267 370 CURVE SMOOTH",
"405 378 OFFCURVE",
"481 298 OFFCURVE",
"481 216 CURVE SMOOTH",
"481 172 OFFCURVE",
"453 133 OFFCURVE",
"403 133 CURVE SMOOTH",
"360 133 OFFCURVE",
"323 163 OFFCURVE",
"323 216 CURVE SMOOTH",
"323 305 OFFCURVE",
"400 354 OFFCURVE",
"454 354 CURVE SMOOTH",
"551 354 OFFCURVE",
"604 284 OFFCURVE",
"604 200 CURVE SMOOTH",
"604 122 OFFCURVE",
"551 13 OFFCURVE",
"395 13 CURVE SMOOTH",
"296 13 OFFCURVE",
"166 94 OFFCURVE",
"166 252 CURVE SMOOTH",
"166 383 OFFCURVE",
"287 507 OFFCURVE",
"444 507 CURVE SMOOTH",
"610 507 OFFCURVE",
"722 387 OFFCURVE",
"722 208 CURVE SMOOTH",
"722 11 OFFCURVE",
"546 -77 OFFCURVE",
"421 -77 CURVE SMOOTH",
"303 -77 OFFCURVE",
"236 -14 OFFCURVE",
"233 -11 CURVE",
"252 10 LINE",
"252 9 OFFCURVE",
"315 -48 OFFCURVE",
"421 -48 CURVE SMOOTH",
"534 -48 OFFCURVE",
"694 30 OFFCURVE",
"694 208 CURVE SMOOTH",
"694 370 OFFCURVE",
"594 480 OFFCURVE",
"444 480 CURVE SMOOTH",
"303 480 OFFCURVE",
"194 376 OFFCURVE",
"194 252 CURVE SMOOTH",
"194 105 OFFCURVE",
"316 40 OFFCURVE",
"395 40 CURVE SMOOTH",
"530 40 OFFCURVE",
"576 136 OFFCURVE",
"576 200 CURVE SMOOTH",
"576 272 OFFCURVE",
"522 326 OFFCURVE",
"456 326 CURVE SMOOTH",
"387 326 OFFCURVE",
"349 257 OFFCURVE",
"351 218 CURVE SMOOTH",
"353 175 OFFCURVE",
"379 161 OFFCURVE",
"404 161 CURVE SMOOTH",
"431 161 OFFCURVE",
"453 183 OFFCURVE",
"453 215 CURVE SMOOTH",
"454 293 OFFCURVE",
"372 349 OFFCURVE",
"267 343 CURVE SMOOTH",
"184 338 OFFCURVE",
"83 269 OFFCURVE",
"45 193 CURVE",
"20 206 LINE"
);
}
);
width = 762;
}
);
unicode = 0D89;
},
{
color = 4;
glyphname = snII;
lastChange = "2022-07-23 16:24:18 +0000";
layers = (
{
components = (
{
name = snRA;
}
);
layerId = "25BA55F5-DD3E-4682-A696-ADF7D9496427";
name = Light;
paths = (
{
closed = 1;
nodes = (
"455 706 OFFCURVE",
"434 697 OFFCURVE",
"434 674 CURVE SMOOTH",
"434 657 OFFCURVE",
"447 644 OFFCURVE",
"465 644 CURVE SMOOTH",
"477 644 OFFCURVE",
"494 654 OFFCURVE",
"494 674 CURVE SMOOTH",
"494 698 OFFCURVE",
"477 706 OFFCURVE",
"465 706 CURVE SMOOTH"
);
},
{
closed = 1;
nodes = (
"431 618 OFFCURVE",
"407 645 OFFCURVE",
"407 674 CURVE SMOOTH",
"407 705 OFFCURVE",
"434 731 OFFCURVE",
"465 731 CURVE SMOOTH",
"498 731 OFFCURVE",
"520 709 OFFCURVE",
"520 674 CURVE SMOOTH",
"520 638 OFFCURVE",
"491 618 OFFCURVE",
"465 618 CURVE SMOOTH"
);
},
{
closed = 1;
nodes = (
"175 820 OFFCURVE",
"154 811 OFFCURVE",
"154 788 CURVE SMOOTH",
"154 771 OFFCURVE",
"167 758 OFFCURVE",
"185 758 CURVE SMOOTH",
"197 758 OFFCURVE",
"214 768 OFFCURVE",
"214 788 CURVE SMOOTH",
"214 812 OFFCURVE",
"197 820 OFFCURVE",
"185 820 CURVE SMOOTH"
);
},
{
closed = 1;
nodes = (
"151 732 OFFCURVE",
"127 759 OFFCURVE",
"127 788 CURVE SMOOTH",
"127 819 OFFCURVE",
"154 845 OFFCURVE",
"185 845 CURVE SMOOTH",
"218 845 OFFCURVE",
"240 823 OFFCURVE",
"240 788 CURVE SMOOTH",
"240 752 OFFCURVE",
"211 732 OFFCURVE",
"185 732 CURVE SMOOTH"
);
}
);
width = 680;
}
);
unicode = 0D8A;
},
{
color = 4;
glyphname = snU;
lastChange = "2022-07-23 16:24:18 +0000";
layers = (
{
layerId = "25BA55F5-DD3E-4682-A696-ADF7D9496427";
name = Light;
paths = (
{
closed = 1;
nodes = (
"257 419 OFFCURVE",
"244 389 OFFCURVE",
"244 363 CURVE SMOOTH",
"244 340 OFFCURVE",
"251 320 OFFCURVE",
"273 320 CURVE SMOOTH",
"300 320 OFFCURVE",
"313 346 OFFCURVE",
"313 373 CURVE SMOOTH",
"313 404 OFFCURVE",
"304 430 OFFCURVE",
"286 443 CURVE",
"285 443 OFFCURVE",
"284 445 OFFCURVE",
"282 445 CURVE"
);
},
{
closed = 1;
nodes = (
"195 -296 OFFCURVE",
"42 -220 OFFCURVE",
"42 -44 CURVE SMOOTH",
"42 130 OFFCURVE",
"202 217 OFFCURVE",
"336 278 CURVE SMOOTH",
"424 319 OFFCURVE",
"499 352 OFFCURVE",
"499 417 CURVE SMOOTH",
"499 466 OFFCURVE",
"459 498 OFFCURVE",
"401 498 CURVE SMOOTH",
"365 498 OFFCURVE",
"330 482 OFFCURVE",
"306 463 CURVE",
"329 445 OFFCURVE",
"342 411 OFFCURVE",
"342 373 CURVE SMOOTH",
"342 330 OFFCURVE",
"316 294 OFFCURVE",
"273 294 CURVE SMOOTH",
"232 294 OFFCURVE",
"218 322 OFFCURVE",
"218 361 CURVE SMOOTH",
"218 391 OFFCURVE",
"230 426 OFFCURVE",
"254 456 CURVE",
"161 456 OFFCURVE",
"73 368 OFFCURVE",
"68 314 CURVE",
"40 316 LINE",
"44 370 OFFCURVE",
"134 483 OFFCURVE",
"247 483 CURVE SMOOTH",
"259 483 OFFCURVE",
"269 482 OFFCURVE",
"278 479 CURVE",
"313 506 OFFCURVE",
"354 527 OFFCURVE",
"400 527 CURVE SMOOTH",
"476 526 OFFCURVE",
"529 489 OFFCURVE",
"529 417 CURVE SMOOTH",
"529 329 OFFCURVE",
"447 296 OFFCURVE",
"347 251 CURVE SMOOTH",
"217 192 OFFCURVE",
"71 112 OFFCURVE",
"71 -43 CURVE SMOOTH",
"71 -203 OFFCURVE",
"210 -269 OFFCURVE",
"349 -269 CURVE SMOOTH",
"567 -269 OFFCURVE",
"713 -99 OFFCURVE",
"713 87 CURVE SMOOTH",
"713 130 OFFCURVE",
"705 175 OFFCURVE",
"688 218 CURVE",
"713 230 LINE",
"732 183 OFFCURVE",
"741 134 OFFCURVE",
"741 86 CURVE SMOOTH",
"741 -112 OFFCURVE",
"589 -296 OFFCURVE",
"349 -296 CURVE SMOOTH"
);
}
);
width = 781;
}
);
unicode = 0D8B;
},
{
color = 4;
glyphname = snUU;
lastChange = "2022-07-23 16:24:18 +0000";
layers = (
{
layerId = "25BA55F5-DD3E-4682-A696-ADF7D9496427";
name = Light;
paths = (
{
closed = 1;
nodes = (
"257 419 OFFCURVE",
"244 389 OFFCURVE",
"244 363 CURVE SMOOTH",
"244 340 OFFCURVE",
"251 320 OFFCURVE",
"273 320 CURVE SMOOTH",
"300 320 OFFCURVE",
"313 346 OFFCURVE",
"313 373 CURVE SMOOTH",
"313 404 OFFCURVE",
"304 430 OFFCURVE",
"286 443 CURVE",
"285 443 OFFCURVE",
"284 445 OFFCURVE",
"282 445 CURVE"
);
},
{
closed = 1;
nodes = (
"732 -102 LINE",
"669 -220 OFFCURVE",
"520 -296 OFFCURVE",
"391 -296 CURVE SMOOTH",
"215 -296 OFFCURVE",
"42 -220 OFFCURVE",
"42 -44 CURVE SMOOTH",
"42 130 OFFCURVE",
"202 217 OFFCURVE",
"336 278 CURVE SMOOTH",
"424 319 OFFCURVE",
"499 352 OFFCURVE",
"499 417 CURVE SMOOTH",
"499 466 OFFCURVE",
"459 498 OFFCURVE",
"401 498 CURVE SMOOTH",
"365 498 OFFCURVE",
"330 482 OFFCURVE",
"306 463 CURVE",
"329 445 OFFCURVE",
"342 411 OFFCURVE",
"342 373 CURVE SMOOTH",
"342 330 OFFCURVE",
"316 294 OFFCURVE",
"273 294 CURVE SMOOTH",
"232 294 OFFCURVE",
"218 322 OFFCURVE",
"218 361 CURVE SMOOTH",
"218 391 OFFCURVE",
"230 426 OFFCURVE",
"254 456 CURVE",
"161 456 OFFCURVE",
"73 368 OFFCURVE",
"68 314 CURVE",
"40 316 LINE",
"44 370 OFFCURVE",
"134 483 OFFCURVE",
"247 483 CURVE SMOOTH",
"259 483 OFFCURVE",
"269 482 OFFCURVE",
"278 479 CURVE",
"313 506 OFFCURVE",
"354 527 OFFCURVE",
"400 527 CURVE SMOOTH",
"476 526 OFFCURVE",
"529 489 OFFCURVE",
"529 417 CURVE SMOOTH",
"529 329 OFFCURVE",
"447 296 OFFCURVE",
"347 251 CURVE SMOOTH",
"217 192 OFFCURVE",
"71 112 OFFCURVE",
"71 -43 CURVE SMOOTH",
"71 -203 OFFCURVE",
"230 -269 OFFCURVE",
"390 -269 CURVE SMOOTH",
"507 -269 OFFCURVE",
"646 -200 OFFCURVE",
"705 -91 CURVE"
);
},
{
closed = 1;
nodes = (
"924 3 OFFCURVE",
"797 -41 OFFCURVE",
"737 -41 CURVE SMOOTH",
"664 -41 OFFCURVE",
"593 1 OFFCURVE",
"564 62 CURVE",
"586 73 LINE",
"612 21 OFFCURVE",
"674 -15 OFFCURVE",
"739 -15 CURVE SMOOTH",
"802 -15 OFFCURVE",
"898 27 OFFCURVE",
"898 150 CURVE SMOOTH",
"898 233 OFFCURVE",
"840 300 OFFCURVE",
"840 376 CURVE SMOOTH",
"840 452 OFFCURVE",
"875 484 OFFCURVE",
"919 500 CURVE",
"925 481 LINE",
"888 465 OFFCURVE",
"864 431 OFFCURVE",
"864 378 CURVE SMOOTH",
"864 314 OFFCURVE",
"924 225 OFFCURVE",
"924 149 CURVE SMOOTH"
);
},
{
closed = 1;
nodes = (
"730 355 OFFCURVE",
"717 348 OFFCURVE",
"708 340 CURVE",
"689 347 LINE",
"704 428 OFFCURVE",
"740 507 OFFCURVE",
"887 507 CURVE SMOOTH",
"906 507 OFFCURVE",
"911 507 OFFCURVE",
"921 507 CURVE",
"925 481 LINE",
"914 481 OFFCURVE",
"896 482 OFFCURVE",
"886 482 CURVE SMOOTH",
"769 482 OFFCURVE",
"737 429 OFFCURVE",
"721 376 CURVE",
"729 379 OFFCURVE",
"737 381 OFFCURVE",
"747 381 CURVE SMOOTH",
"783 381 OFFCURVE",
"815 358 OFFCURVE",
"815 314 CURVE SMOOTH",
"815 273 OFFCURVE",
"772 229 OFFCURVE",
"709 229 CURVE SMOOTH",
"637 229 OFFCURVE",
"589 283 OFFCURVE",
"589 358 CURVE SMOOTH",
"589 451 OFFCURVE",
"699 504 OFFCURVE",
"703 506 CURVE",
"714 482 LINE",
"713 482 OFFCURVE",
"615 434 OFFCURVE",
"615 358 CURVE SMOOTH",
"615 288 OFFCURVE",
"661 256 OFFCURVE",
"709 256 CURVE SMOOTH",
"759 256 OFFCURVE",
"788 291 OFFCURVE",
"788 314 CURVE SMOOTH",
"788 342 OFFCURVE",
"769 355 OFFCURVE",
"744 355 CURVE SMOOTH"
);
}
);
width = 965;
}
);
unicode = 0D8C;
},
{
color = 4;
glyphname = snvR;
lastChange = "2022-07-23 16:24:18 +0000";
layers = (
{
components = (
{
name = snmvR;
transform = "{1, 0, 0, 1, 783, 0}";
}
);
layerId = "25BA55F5-DD3E-4682-A696-ADF7D9496427";
name = Light;
paths = (
{
closed = 1;
nodes = (
"348 334 OFFCURVE",
"417 366 OFFCURVE",
"417 412 CURVE SMOOTH",
"417 465 OFFCURVE",
"374 480 OFFCURVE",
"335 480 CURVE SMOOTH",
"289 480 OFFCURVE",
"222 452 OFFCURVE",
"222 374 CURVE SMOOTH",
"222 357 OFFCURVE",
"233 330 OFFCURVE",
"260 330 CURVE SMOOTH",
"280 330 OFFCURVE",
"287 351 OFFCURVE",
"287 373 CURVE SMOOTH",
"287 420 OFFCURVE",
"212 449 OFFCURVE",
"170 449 CURVE SMOOTH",
"94 449 OFFCURVE",
"44 396 OFFCURVE",
"44 342 CURVE SMOOTH",
"44 334 OFFCURVE",
"46 330 OFFCURVE",
"46 329 CURVE",
"18 319 LINE",
"17 320 OFFCURVE",
"15 327 OFFCURVE",
"15 339 CURVE SMOOTH",
"15 415 OFFCURVE",
"81 477 OFFCURVE",
"170 477 CURVE SMOOTH",
"223 477 OFFCURVE",
"315 446 OFFCURVE",
"315 367 CURVE SMOOTH",
"315 327 OFFCURVE",
"287 303 OFFCURVE",
"260 303 CURVE SMOOTH",
"210 303 OFFCURVE",
"194 345 OFFCURVE",
"194 377 CURVE SMOOTH",
"194 450 OFFCURVE",
"256 507 OFFCURVE",
"334 507 CURVE SMOOTH",
"391 507 OFFCURVE",
"443 483 OFFCURVE",
"443 412 CURVE SMOOTH",
"443 351 OFFCURVE",
"388 330 OFFCURVE",
"305 273 CURVE SMOOTH",
"247 233 OFFCURVE",
"201 193 OFFCURVE",
"201 130 CURVE SMOOTH",
"201 71 OFFCURVE",
"241 29 OFFCURVE",
"309 29 CURVE SMOOTH",
"405 29 OFFCURVE",
"428 119 OFFCURVE",
"428 208 CURVE SMOOTH",
"428 219 LINE",
"457 221 LINE",
"457 219 LINE SMOOTH",
"457 95 OFFCURVE",
"527 27 OFFCURVE",
"607 27 CURVE SMOOTH",
"678 27 OFFCURVE",
"724 65 OFFCURVE",
"724 136 CURVE SMOOTH",
"724 208 OFFCURVE",
"656 234 OFFCURVE",
"582 279 CURVE",
"511 322 OFFCURVE",
"426 338 OFFCURVE",
"425 433 CURVE SMOOTH",
"424 508 OFFCURVE",
"486 568 OFFCURVE",
"587 568 CURVE SMOOTH",
"683 568 OFFCURVE",
"786 497 OFFCURVE",
"786 399 CURVE SMOOTH",
"786 306 OFFCURVE",
"723 286 OFFCURVE",
"695 286 CURVE SMOOTH",
"633 286 OFFCURVE",
"592 338 OFFCURVE",
"592 395 CURVE SMOOTH",
"592 550 OFFCURVE",
"784 595 OFFCURVE",
"915 595 CURVE SMOOTH",
"962 595 OFFCURVE",
"995 590 OFFCURVE",
"997 590 CURVE",
"994 564 LINE",
"993 564 OFFCURVE",
"965 568 OFFCURVE",
"914 568 CURVE SMOOTH",
"800 568 OFFCURVE",
"620 529 OFFCURVE",
"620 396 CURVE SMOOTH",
"620 350 OFFCURVE",
"648 314 OFFCURVE",
"695 314 CURVE SMOOTH",
"744 314 OFFCURVE",
"760 366 OFFCURVE",
"760 391 CURVE SMOOTH",
"760 482 OFFCURVE",
"659 541 OFFCURVE",
"590 541 CURVE SMOOTH",
"529 541 OFFCURVE",
"454 507 OFFCURVE",
"454 433 CURVE SMOOTH",
"454 354 OFFCURVE",
"530 343 OFFCURVE",
"597 302 CURVE",
"673 256 OFFCURVE",
"752 223 OFFCURVE",
"752 136 CURVE SMOOTH",
"752 54 OFFCURVE",
"696 0 OFFCURVE",
"607 0 CURVE SMOOTH",
"518 0 OFFCURVE",
"464 60 OFFCURVE",
"446 120 CURVE",
"432 48 OFFCURVE",
"387 0 OFFCURVE",
"309 0 CURVE SMOOTH",
"231 0 OFFCURVE",
"173 51 OFFCURVE",
"173 129 CURVE SMOOTH",
"173 202 OFFCURVE",
"223 250 OFFCURVE",
"290 295 CURVE SMOOTH"
);
}
);
width = 1257;
}
);
unicode = 0D8D;
},
{
color = 4;
glyphname = snvRR;
lastChange = "2022-07-23 16:24:18 +0000";
layers = (
{
components = (
{
name = snmvR;
transform = "{1, 0, 0, 1, 782, 0}";
},
{
name = snmvR;
transform = "{1, 0, 0, 1, 1220, 0}";
}
);
layerId = "25BA55F5-DD3E-4682-A696-ADF7D9496427";
name = Light;
paths = (
{
closed = 1;
nodes = (
"348 334 OFFCURVE",
"417 366 OFFCURVE",
"417 412 CURVE SMOOTH",
"417 465 OFFCURVE",
"374 480 OFFCURVE",
"335 480 CURVE SMOOTH",
"289 480 OFFCURVE",
"222 452 OFFCURVE",
"222 374 CURVE SMOOTH",
"222 357 OFFCURVE",
"233 330 OFFCURVE",
"260 330 CURVE SMOOTH",
"280 330 OFFCURVE",
"287 351 OFFCURVE",
"287 373 CURVE SMOOTH",
"287 420 OFFCURVE",
"212 449 OFFCURVE",
"170 449 CURVE SMOOTH",
"94 449 OFFCURVE",
"44 396 OFFCURVE",
"44 342 CURVE SMOOTH",
"44 334 OFFCURVE",
"46 330 OFFCURVE",
"46 329 CURVE",
"18 319 LINE",
"17 320 OFFCURVE",
"15 327 OFFCURVE",
"15 339 CURVE SMOOTH",
"15 415 OFFCURVE",
"81 477 OFFCURVE",
"170 477 CURVE SMOOTH",
"223 477 OFFCURVE",
"315 446 OFFCURVE",
"315 367 CURVE SMOOTH",
"315 327 OFFCURVE",
"287 303 OFFCURVE",
"260 303 CURVE SMOOTH",
"210 303 OFFCURVE",
"194 345 OFFCURVE",
"194 377 CURVE SMOOTH",
"194 450 OFFCURVE",
"256 507 OFFCURVE",
"334 507 CURVE SMOOTH",
"391 507 OFFCURVE",
"443 483 OFFCURVE",
"443 412 CURVE SMOOTH",
"443 351 OFFCURVE",
"388 330 OFFCURVE",
"305 273 CURVE SMOOTH",
"247 233 OFFCURVE",
"201 193 OFFCURVE",
"201 130 CURVE SMOOTH",
"201 71 OFFCURVE",
"241 29 OFFCURVE",
"309 29 CURVE SMOOTH",
"405 29 OFFCURVE",
"428 119 OFFCURVE",
"428 208 CURVE SMOOTH",
"428 219 LINE",
"457 221 LINE",
"457 219 LINE SMOOTH",
"457 95 OFFCURVE",
"527 27 OFFCURVE",
"607 27 CURVE SMOOTH",
"678 27 OFFCURVE",
"724 65 OFFCURVE",
"724 136 CURVE SMOOTH",
"724 208 OFFCURVE",
"656 234 OFFCURVE",
"582 279 CURVE",
"511 322 OFFCURVE",
"426 338 OFFCURVE",
"425 433 CURVE SMOOTH",
"424 508 OFFCURVE",
"486 568 OFFCURVE",
"587 568 CURVE SMOOTH",
"683 568 OFFCURVE",
"786 497 OFFCURVE",
"786 399 CURVE SMOOTH",
"786 306 OFFCURVE",
"723 286 OFFCURVE",
"695 286 CURVE SMOOTH",
"633 286 OFFCURVE",
"592 338 OFFCURVE",
"592 395 CURVE SMOOTH",
"592 550 OFFCURVE",
"784 595 OFFCURVE",
"915 595 CURVE SMOOTH",
"962 595 OFFCURVE",
"995 590 OFFCURVE",
"997 590 CURVE",
"994 564 LINE",
"993 564 OFFCURVE",
"965 568 OFFCURVE",
"914 568 CURVE SMOOTH",
"800 568 OFFCURVE",
"620 529 OFFCURVE",
"620 396 CURVE SMOOTH",
"620 350 OFFCURVE",
"648 314 OFFCURVE",
"695 314 CURVE SMOOTH",
"744 314 OFFCURVE",
"760 366 OFFCURVE",
"760 391 CURVE SMOOTH",
"760 482 OFFCURVE",
"659 541 OFFCURVE",
"590 541 CURVE SMOOTH",
"529 541 OFFCURVE",
"454 507 OFFCURVE",
"454 433 CURVE SMOOTH",
"454 354 OFFCURVE",
"530 343 OFFCURVE",
"597 302 CURVE",
"673 256 OFFCURVE",
"752 223 OFFCURVE",
"752 136 CURVE SMOOTH",
"752 54 OFFCURVE",
"696 0 OFFCURVE",
"607 0 CURVE SMOOTH",
"518 0 OFFCURVE",
"464 60 OFFCURVE",
"446 120 CURVE",
"432 48 OFFCURVE",
"387 0 OFFCURVE",
"309 0 CURVE SMOOTH",
"231 0 OFFCURVE",
"173 51 OFFCURVE",
"173 129 CURVE SMOOTH",
"173 202 OFFCURVE",
"223 250 OFFCURVE",
"290 295 CURVE SMOOTH"
);
}
);
width = 1694;
}
);
unicode = 0D8E;
},
{
color = 4;
glyphname = snvL;
lastChange = "2022-07-23 16:24:18 +0000";
layers = (
{
layerId = "25BA55F5-DD3E-4682-A696-ADF7D9496427";
name = Light;
paths = (
{
closed = 1;
nodes = (
"277 464 LINE",
"119 464 OFFCURVE",
"-27 227 OFFCURVE",
"156 20 CURVE",
"130 1 LINE",
"-65 230 OFFCURVE",
"91 490 OFFCURVE",
"272 490 CURVE"
);
},
{
closed = 1;
nodes = (
"900 516 OFFCURVE",
"802 516 CURVE SMOOTH",
"770 516 OFFCURVE",
"714 485 OFFCURVE",
"714 431 CURVE SMOOTH",
"714 412 OFFCURVE",
"732 387 OFFCURVE",
"763 387 CURVE SMOOTH",
"786 387 OFFCURVE",
"811 409 OFFCURVE",
"811 442 CURVE SMOOTH",
"811 505 OFFCURVE",
"751 543 OFFCURVE",
"675 543 CURVE SMOOTH",
"635 543 OFFCURVE",
"566 517 OFFCURVE",
"566 457 CURVE SMOOTH",
"566 407 OFFCURVE",
"613 377 OFFCURVE",
"675 354 CURVE SMOOTH",
"751 325 OFFCURVE",
"829 313 OFFCURVE",
"829 215 CURVE SMOOTH",
"829 58 OFFCURVE",
"671 0 OFFCURVE",
"536 0 CURVE SMOOTH",
"371 0 OFFCURVE",
"264 71 OFFCURVE",
"264 162 CURVE SMOOTH",
"264 245 OFFCURVE",
"328 283 OFFCURVE",
"394 314 CURVE",
"453 342 OFFCURVE",
"491 372 OFFCURVE",
"491 412 CURVE SMOOTH",
"491 452 OFFCURVE",
"447 481 OFFCURVE",
"405 481 CURVE SMOOTH",
"354 481 OFFCURVE",
"301 450 OFFCURVE",
"301 391 CURVE SMOOTH",
"301 368 OFFCURVE",
"314 352 OFFCURVE",
"334 352 CURVE SMOOTH",
"360 352 OFFCURVE",
"369 377 OFFCURVE",
"369 394 CURVE SMOOTH",
"369 453 OFFCURVE",
"304 463 OFFCURVE",
"275 463 CURVE SMOOTH",
"199 463 OFFCURVE",
"168 413 OFFCURVE",
"168 369 CURVE SMOOTH",
"168 349 OFFCURVE",
"178 330 OFFCURVE",
"178 330 CURVE",
"153 318 LINE",
"152 319 OFFCURVE",
"141 340 OFFCURVE",
"141 369 CURVE SMOOTH",
"141 424 OFFCURVE",
"178 490 OFFCURVE",
"275 490 CURVE SMOOTH",
"325 490 OFFCURVE",
"398 469 OFFCURVE",
"398 399 CURVE SMOOTH",
"398 358 OFFCURVE",
"378 324 OFFCURVE",
"334 324 CURVE SMOOTH",
"308 324 OFFCURVE",
"274 344 OFFCURVE",
"274 390 CURVE SMOOTH",
"274 462 OFFCURVE",
"331 508 OFFCURVE",
"401 508 CURVE SMOOTH",
"459 508 OFFCURVE",
"519 472 OFFCURVE",
"519 417 CURVE SMOOTH",
"519 356 OFFCURVE",
"466 319 OFFCURVE",
"406 290 CURVE",
"341 257 OFFCURVE",
"291 230 OFFCURVE",
"291 164 CURVE SMOOTH",
"291 90 OFFCURVE",
"389 27 OFFCURVE",
"535 27 CURVE SMOOTH",
"646 27 OFFCURVE",
"801 78 OFFCURVE",
"801 213 CURVE SMOOTH",
"801 281 OFFCURVE",
"759 291 OFFCURVE",
"667 327 CURVE SMOOTH",
"627 342 OFFCURVE",
"538 375 OFFCURVE",
"538 456 CURVE SMOOTH",
"538 537 OFFCURVE",
"620 571 OFFCURVE",
"680 571 CURVE SMOOTH",
"752 571 OFFCURVE",
"839 525 OFFCURVE",
"839 442 CURVE SMOOTH",
"839 404 OFFCURVE",
"804 360 OFFCURVE",
"762 360 CURVE SMOOTH",
"714 360 OFFCURVE",
"686 399 OFFCURVE",
"686 427 CURVE SMOOTH",
"686 503 OFFCURVE",
"755 543 OFFCURVE",
"807 543 CURVE SMOOTH",
"913 543 OFFCURVE",
"995 435 OFFCURVE",
"995 267 CURVE SMOOTH",
"995 153 OFFCURVE",
"945 53 OFFCURVE",
"906 0 CURVE",
"880 15 LINE",
"916 62 OFFCURVE",
"967 160 OFFCURVE",
"967 262 CURVE SMOOTH",
"967 416 OFFCURVE"
);
}
);
width = 1035;
}
);
unicode = 0D8F;
},
{
color = 4;
glyphname = snE;
lastChange = "2022-07-23 16:24:18 +0000";
layers = (
{
layerId = "25BA55F5-DD3E-4682-A696-ADF7D9496427";
name = Light;
paths = (
{
closed = 1;
nodes = (
"573 410 OFFCURVE",
"484 452 OFFCURVE",
"484 551 CURVE SMOOTH",
"484 650 OFFCURVE",
"560 705 OFFCURVE",
"618 763 CURVE",
"637 744 LINE",
"576 683 OFFCURVE",
"510 636 OFFCURVE",
"510 551 CURVE SMOOTH",
"510 482 OFFCURVE",
"572 436 OFFCURVE",
"641 436 CURVE SMOOTH",
"713 436 OFFCURVE",
"755 476 OFFCURVE",
"783 507 CURVE",
"800 488 LINE",
"769 458 OFFCURVE",
"726 410 OFFCURVE",
"640 410 CURVE SMOOTH"
);
},
{
closed = 1;
nodes = (
"652 27 OFFCURVE",
"759 148 OFFCURVE",
"759 270 CURVE SMOOTH",
"759 430 OFFCURVE",
"670 520 OFFCURVE",
"609 588 CURVE SMOOTH",
"559 644 OFFCURVE",
"493 696 OFFCURVE",
"493 757 CURVE SMOOTH",
"493 786 OFFCURVE",
"505 825 OFFCURVE",
"528 845 CURVE",
"546 825 LINE",
"528 811 OFFCURVE",
"520 779 OFFCURVE",
"520 757 CURVE SMOOTH",
"520 706 OFFCURVE",
"581 660 OFFCURVE",
"629 606 CURVE SMOOTH",
"692 534 OFFCURVE",
"785 440 OFFCURVE",
"785 270 CURVE SMOOTH",
"785 129 OFFCURVE",
"667 0 OFFCURVE",
"496 0 CURVE SMOOTH",
"363 0 OFFCURVE",
"270 67 OFFCURVE",
"270 160 CURVE SMOOTH",
"270 250 OFFCURVE",
"345 263 OFFCURVE",
"406 304 CURVE SMOOTH",
"438 326 OFFCURVE",
"481 345 OFFCURVE",
"481 406 CURVE SMOOTH",
"481 425 OFFCURVE",
"466 479 OFFCURVE",
"387 479 CURVE SMOOTH",
"348 479 OFFCURVE",
"340 469 OFFCURVE",
"324 460 CURVE",
"354 434 OFFCURVE",
"370 400 OFFCURVE",
"370 363 CURVE SMOOTH",
"370 302 OFFCURVE",
"334 282 OFFCURVE",
"302 282 CURVE SMOOTH",
"264 282 OFFCURVE",
"233 309 OFFCURVE",
"233 363 CURVE SMOOTH",
"233 388 OFFCURVE",
"240 428 OFFCURVE",
"273 459 CURVE",
"252 466 OFFCURVE",
"239 470 OFFCURVE",
"200 470 CURVE SMOOTH",
"108 470 OFFCURVE",
"47 401 OFFCURVE",
"47 316 CURVE SMOOTH",
"47 253 OFFCURVE",
"89 219 OFFCURVE",
"89 217 CURVE",
"68 198 LINE",
"66 200 OFFCURVE",
"20 240 OFFCURVE",
"20 316 CURVE SMOOTH",
"20 417 OFFCURVE",
"94 497 OFFCURVE",
"200 497 CURVE SMOOTH",
"249 497 OFFCURVE",
"266 490 OFFCURVE",
"296 476 CURVE",
"318 491 OFFCURVE",
"346 507 OFFCURVE",
"387 507 CURVE SMOOTH",
"471 507 OFFCURVE",
"508 444 OFFCURVE",
"508 406 CURVE SMOOTH",
"508 337 OFFCURVE",
"469 316 OFFCURVE",
"423 283 CURVE SMOOTH",
"369 244 OFFCURVE",
"297 236 OFFCURVE",
"297 160 CURVE SMOOTH",
"297 81 OFFCURVE",
"380 27 OFFCURVE",
"496 27 CURVE SMOOTH"
);
},
{
closed = 1;
nodes = (
"268 421 OFFCURVE",
"261 386 OFFCURVE",
"261 363 CURVE SMOOTH",
"261 319 OFFCURVE",
"288 309 OFFCURVE",
"302 309 CURVE SMOOTH",
"326 309 OFFCURVE",
"342 326 OFFCURVE",
"342 363 CURVE SMOOTH",
"342 390 OFFCURVE",
"331 426 OFFCURVE",
"298 444 CURVE"
);
},
{
closed = 1;
nodes = (
"380 260 LINE",
"212 174 OFFCURVE",
"128 113 OFFCURVE",
"109 -52 CURVE",
"80 -50 LINE",
"106 147 OFFCURVE",
"222 211 OFFCURVE",
"406 304 CURVE"
);
}
);
width = 840;
}
);
unicode = 0D91;
},
{
color = 4;
glyphname = snO;
lastChange = "2022-07-23 16:24:18 +0000";
layers = (
{
layerId = "25BA55F5-DD3E-4682-A696-ADF7D9496427";
name = Light;
paths = (
{
closed = 1;
nodes = (
"570 346 OFFCURVE",
"593 322 OFFCURVE",
"631 322 CURVE SMOOTH",
"684 322 OFFCURVE",
"710 371 OFFCURVE",
"710 412 CURVE SMOOTH",
"710 450 OFFCURVE",
"694 482 OFFCURVE",
"653 482 CURVE SMOOTH",
"586 482 OFFCURVE",
"570 418 OFFCURVE",
"570 386 CURVE SMOOTH"
);
},
{
closed = 1;
nodes = (
"40 1 LINE",
"47 397 OFFCURVE",
"250 701 OFFCURVE",
"596 701 CURVE SMOOTH",
"815 701 OFFCURVE",
"975 528 OFFCURVE",
"975 321 CURVE SMOOTH",
"975 156 OFFCURVE",
"917 0 OFFCURVE",
"764 0 CURVE SMOOTH",
"660 0 OFFCURVE",
"616 61 OFFCURVE",
"608 121 CURVE",
"589 64 OFFCURVE",
"541 0 OFFCURVE",
"446 0 CURVE SMOOTH",
"344 0 OFFCURVE",
"292 84 OFFCURVE",
"292 194 CURVE SMOOTH",
"292 375 OFFCURVE",
"374 507 OFFCURVE",
"487 507 CURVE SMOOTH",
"538 507 OFFCURVE",
"559 475 OFFCURVE",
"564 452 CURVE",
"579 487 OFFCURVE",
"619 510 OFFCURVE",
"656 510 CURVE SMOOTH",
"695 510 OFFCURVE",
"737 483 OFFCURVE",
"737 414 CURVE SMOOTH",
"737 355 OFFCURVE",
"696 295 OFFCURVE",
"634 295 CURVE SMOOTH",
"583 295 OFFCURVE",
"543 323 OFFCURVE",
"543 394 CURVE SMOOTH",
"543 453 OFFCURVE",
"523 480 OFFCURVE",
"488 480 CURVE SMOOTH",
"378 480 OFFCURVE",
"320 332 OFFCURVE",
"320 193 CURVE SMOOTH",
"320 98 OFFCURVE",
"369 25 OFFCURVE",
"443 26 CURVE SMOOTH",
"546 27 OFFCURVE",
"589 108 OFFCURVE",
"608 217 CURVE",
"636 213 LINE",
"616 106 OFFCURVE",
"666 28 OFFCURVE",
"764 28 CURVE SMOOTH",
"901 28 OFFCURVE",
"948 179 OFFCURVE",
"948 320 CURVE SMOOTH",
"948 505 OFFCURVE",
"801 674 OFFCURVE",
"596 674 CURVE SMOOTH",
"266 674 OFFCURVE",
"74 384 OFFCURVE",
"68 -2 CURVE"
);
}
);
width = 1015;
}
);
unicode = 0D94;
},
{
color = 4;
glyphname = snOO;
lastChange = "2022-07-23 16:24:18 +0000";
layers = (
{
components = (
{
name = snO;
}
);
layerId = "25BA55F5-DD3E-4682-A696-ADF7D9496427";
name = Light;
paths = (
{
closed = 1;
nodes = (
"289 899 LINE",
"289 590 LINE",
"261 570 LINE",
"261 899 LINE"
);
},
{
closed = 1;
nodes = (
"928 834 LINE",
"928 807 LINE",
"55 807 LINE",
"55 834 LINE"
);
}
);
width = 995;
}
);
unicode = 0D95;
},
{
color = 4;
glyphname = snmAA;
lastChange = "2022-08-01 11:36:48 +0000";
layers = (
{
layerId = "25BA55F5-DD3E-4682-A696-ADF7D9496427";
name = Light;
paths = (
{
closed = 1;
nodes = (
"60 27 LINE",
"102 36 OFFCURVE",
"143 70 OFFCURVE",
"143 129 CURVE SMOOTH",
"143 203 OFFCURVE",
"64 286 OFFCURVE",
"64 372 CURVE SMOOTH",
"64 452 OFFCURVE",
"127 487 OFFCURVE",
"130 490 CURVE",
"148 470 LINE",
"148 470 OFFCURVE",
"92 438 OFFCURVE",
"92 372 CURVE SMOOTH",
"92 295 OFFCURVE",
"170 215 OFFCURVE",
"170 129 CURVE SMOOTH",
"170 56 OFFCURVE",
"125 10 OFFCURVE",
"69 0 CURVE"
);
}
);
width = 220;
}
);
unicode = 0DCF;
script = sinhala;
category = Mark;
subCategory = Other;
},
{
color = 4;
glyphname = snmAE;
lastChange = "2022-08-01 11:36:48 +0000";
layers = (
{
layerId = "25BA55F5-DD3E-4682-A696-ADF7D9496427";
name = Light;
paths = (
{
closed = 1;
nodes = (
"457 -32 OFFCURVE",
"394 -135 OFFCURVE",
"267 -135 CURVE SMOOTH",
"132 -135 OFFCURVE",
"40 -44 OFFCURVE",
"40 118 CURVE SMOOTH",
"40 248 OFFCURVE",
"116 370 OFFCURVE",
"209 460 CURVE",
"46 460 LINE",
"46 487 LINE",
"249 487 LINE",
"249 461 LINE",
"158 380 OFFCURVE",
"68 254 OFFCURVE",
"68 119 CURVE SMOOTH",
"68 -30 OFFCURVE",
"152 -108 OFFCURVE",
"267 -108 CURVE SMOOTH",
"373 -108 OFFCURVE",
"429 -23 OFFCURVE",
"429 56 CURVE SMOOTH",
"429 135 OFFCURVE",
"373 170 OFFCURVE",
"330 170 CURVE SMOOTH",
"287 170 OFFCURVE",
"249 144 OFFCURVE",
"248 95 CURVE SMOOTH",
"247 55 OFFCURVE",
"284 27 OFFCURVE",
"330 27 CURVE",
"330 0 LINE",
"269 0 OFFCURVE",
"220 35 OFFCURVE",
"220 95 CURVE SMOOTH",
"220 162 OFFCURVE",
"272 197 OFFCURVE",
"330 197 CURVE SMOOTH",
"411 197 OFFCURVE",
"457 129 OFFCURVE",
"457 56 CURVE SMOOTH"
);
}
);
width = 497;
}
);
unicode = 0DD0;
script = sinhala;
category = Mark;
subCategory = Other;
},
{
color = 4;
glyphname = snmAAE;
lastChange = "2022-08-01 11:36:48 +0000";
layers = (
{
layerId = "25BA55F5-DD3E-4682-A696-ADF7D9496427";
name = Light;
paths = (
{
closed = 1;
nodes = (
"68 190 OFFCURVE",
"187 273 OFFCURVE",
"276 330 CURVE",
"276 356 LINE",
"99 356 LINE",
"256 461 LINE",
"256 487 LINE",
"53 487 LINE",
"53 460 LINE",
"212 460 LINE",
"59 358 LINE",
"59 329 LINE",
"229 329 LINE",
"163 288 OFFCURVE",
"40 198 OFFCURVE",
"40 68 CURVE SMOOTH",
"40 -64 OFFCURVE",
"132 -135 OFFCURVE",
"256 -135 CURVE SMOOTH",
"389 -135 OFFCURVE",
"457 -32 OFFCURVE",
"457 56 CURVE SMOOTH",
"457 129 OFFCURVE",
"411 197 OFFCURVE",
"330 197 CURVE SMOOTH",
"272 197 OFFCURVE",
"220 162 OFFCURVE",
"220 95 CURVE SMOOTH",
"220 35 OFFCURVE",
"269 0 OFFCURVE",
"330 0 CURVE",
"330 27 LINE",
"284 27 OFFCURVE",
"247 55 OFFCURVE",
"248 95 CURVE SMOOTH",
"249 144 OFFCURVE",
"287 170 OFFCURVE",
"330 170 CURVE SMOOTH",
"373 170 OFFCURVE",
"429 135 OFFCURVE",
"429 56 CURVE SMOOTH",
"429 -23 OFFCURVE",
"368 -108 OFFCURVE",
"256 -108 CURVE SMOOTH",
"152 -108 OFFCURVE",
"68 -50 OFFCURVE",
"68 69 CURVE SMOOTH"
);
}
);
width = 497;
}
);
unicode = 0DD1;
script = sinhala;
category = Mark;
subCategory = Other;
},
{
color = 4;
glyphname = snmI;
lastChange = "2022-08-01 11:36:48 +0000";
layers = (
{
layerId = "25BA55F5-DD3E-4682-A696-ADF7D9496427";
name = Light;
paths = (
{
closed = 1;
nodes = (
"-520 687 LINE",
"-81 687 LINE",
"-81 715 LINE",
"-520 715 LINE"
);
}
);
width = 0;
}
);
unicode = 0DD2;
script = sinhala;
category = Mark;
subCategory = Other;
},
{
color = 4;
glyphname = snmII;
lastChange = "2022-08-01 11:36:48 +0000";
layers = (
{
layerId = "25BA55F5-DD3E-4682-A696-ADF7D9496427";
name = Light;
paths = (
{
closed = 1;
nodes = (
"-510 692 OFFCURVE",
"-438 754 OFFCURVE",
"-310 754 CURVE SMOOTH",
"-191 754 OFFCURVE",
"-134 694 OFFCURVE",
"-134 640 CURVE SMOOTH",
"-134 611 OFFCURVE",
"-148 590 OFFCURVE",
"-176 590 CURVE SMOOTH",
"-193 590 OFFCURVE",
"-223 601 OFFCURVE",
"-223 642 CURVE SMOOTH",
"-223 693 OFFCURVE",
"-183 749 OFFCURVE",
"-99 749 CURVE SMOOTH",
"-67 749 OFFCURVE",
"-28 741 OFFCURVE",
"17 721 CURVE",
"20 746 LINE",
"-20 765 OFFCURVE",
"-61 776 OFFCURVE",
"-98 776 CURVE SMOOTH",
"-183 776 OFFCURVE",
"-251 726 OFFCURVE",
"-251 640 CURVE SMOOTH",
"-251 596 OFFCURVE",
"-219 563 OFFCURVE",
"-176 563 CURVE SMOOTH",
"-131 563 OFFCURVE",
"-106 601 OFFCURVE",
"-106 639 CURVE SMOOTH",
"-106 714 OFFCURVE",
"-187 781 OFFCURVE",
"-310 781 CURVE SMOOTH",
"-424 781 OFFCURVE",
"-538 731 OFFCURVE",
"-538 618 CURVE",
"-510 618 LINE"
);
}
);
width = 0;
}
);
unicode = 0DD3;
script = sinhala;
category = Mark;
subCategory = Other;
},
{
color = 4;
glyphname = snmU;
lastChange = "2022-08-01 11:36:48 +0000";
layers = (
{
layerId = "25BA55F5-DD3E-4682-A696-ADF7D9496427";
name = Light;
paths = (
{
closed = 1;
nodes = (
"-61 150 LINE",
"-61 -335 LINE",
"-89 -335 LINE",
"-89 120 LINE"
);
},
{
closed = 1;
nodes = (
"90 -253 LINE",
"90 -280 LINE",
"-667 -280 LINE",
"-667 -253 LINE"
);
}
);
width = 0;
}
);
unicode = 0DD4;
script = sinhala;
category = Mark;
subCategory = Other;
},
{
color = 4;
glyphname = snmUU;
lastChange = "2022-08-01 11:36:48 +0000";
layers = (
{
background = {
paths = (
{
closed = 1;
nodes = (
"-44 -270 LINE",
"-523 -270 LINE",
"-606 -270 OFFCURVE",
"-660 -223 OFFCURVE",
"-660 -147 CURVE SMOOTH",
"-660 -123 OFFCURVE",
"-658 -110 OFFCURVE",
"-654 -90 CURVE",
"-595 -90 LINE",
"-598 -104 OFFCURVE",
"-600 -124 OFFCURVE",
"-600 -138 CURVE SMOOTH",
"-600 -187 OFFCURVE",
"-571 -215 OFFCURVE",
"-520 -215 CURVE",
"-103 -215 LINE",
"-103 200 LINE",
"-44 200 LINE"
);
}
);
};
layerId = "25BA55F5-DD3E-4682-A696-ADF7D9496427";
name = Light;
paths = (
{
closed = 1;
nodes = (
"-61 150 LINE",
"-61 -355 LINE",
"-89 -355 LINE",
"-89 120 LINE"
);
},
{
closed = 1;
nodes = (
"-646 -346 OFFCURVE",
"-720 -284 OFFCURVE",
"-720 -198 CURVE SMOOTH",
"-720 -122 OFFCURVE",
"-664 -64 OFFCURVE",
"-583 -64 CURVE SMOOTH",
"-525 -64 OFFCURVE",
"-478 -106 OFFCURVE",
"-478 -161 CURVE SMOOTH",
"-478 -208 OFFCURVE",
"-515 -239 OFFCURVE",
"-553 -239 CURVE SMOOTH",
"-576 -239 OFFCURVE",
"-598 -229 OFFCURVE",
"-615 -204 CURVE",
"-595 -186 LINE",
"-583 -204 OFFCURVE",
"-567 -212 OFFCURVE",
"-551 -212 CURVE SMOOTH",
"-529 -212 OFFCURVE",
"-506 -194 OFFCURVE",
"-506 -161 CURVE SMOOTH",
"-506 -124 OFFCURVE",
"-540 -91 OFFCURVE",
"-583 -91 CURVE SMOOTH",
"-626 -91 OFFCURVE",
"-692 -116 OFFCURVE",
"-692 -198 CURVE SMOOTH",
"-692 -274 OFFCURVE",
"-619 -319 OFFCURVE",
"-564 -319 CURVE SMOOTH",
"-438 -319 OFFCURVE",
"-331 -160 OFFCURVE",
"-154 -160 CURVE SMOOTH",
"-97 -160 OFFCURVE",
"-42 -178 OFFCURVE",
"43 -218 CURVE",
"31 -243 LINE",
"-56 -201 OFFCURVE",
"-120 -187 OFFCURVE",
"-154 -187 CURVE SMOOTH",
"-313 -187 OFFCURVE",
"-425 -346 OFFCURVE",
"-554 -346 CURVE SMOOTH"
);
}
);
width = 0;
}
);
unicode = 0DD6;
script = sinhala;
category = Mark;
subCategory = Other;
},
{
color = 4;
glyphname = snmvR;
lastChange = "2022-08-01 11:36:48 +0000";
layers = (
{
layerId = "25BA55F5-DD3E-4682-A696-ADF7D9496427";
name = Light;
paths = (
{
closed = 1;
nodes = (
"262 192 OFFCURVE",
"262 104 CURVE SMOOTH",
"262 51 OFFCURVE",
"300 26 OFFCURVE",
"338 26 CURVE SMOOTH",
"378 26 OFFCURVE",
"406 69 OFFCURVE",
"406 114 CURVE SMOOTH",
"406 200 OFFCURVE",
"299 261 OFFCURVE",
"221 261 CURVE SMOOTH",
"138 261 OFFCURVE",
"65 216 OFFCURVE",
"65 133 CURVE SMOOTH",
"65 63 OFFCURVE",
"129 24 OFFCURVE",
"198 24 CURVE SMOOTH",
"233 24 OFFCURVE",
"293 44 OFFCURVE",
"342 119 CURVE",
"362 104 LINE",
"312 30 OFFCURVE",
"254 -3 OFFCURVE",
"198 -3 CURVE SMOOTH",
"118 -3 OFFCURVE",
"40 49 OFFCURVE",
"40 133 CURVE SMOOTH",
"40 231 OFFCURVE",
"126 288 OFFCURVE",
"221 288 CURVE SMOOTH",
"345 288 OFFCURVE",
"434 200 OFFCURVE",
"434 114 CURVE SMOOTH",
"434 77 OFFCURVE",
"410 0 OFFCURVE",
"337 0 CURVE SMOOTH",
"297 0 OFFCURVE",
"234 25 OFFCURVE",
"234 104 CURVE SMOOTH",
"234 202 OFFCURVE",
"332 279 OFFCURVE",
"332 378 CURVE SMOOTH",
"332 434 OFFCURVE",
"296 482 OFFCURVE",
"232 482 CURVE SMOOTH",
"150 482 OFFCURVE",
"124 428 OFFCURVE",
"124 426 CURVE",
"100 435 LINE",
"100 442 OFFCURVE",
"135 508 OFFCURVE",
"232 508 CURVE SMOOTH",
"319 508 OFFCURVE",
"360 444 OFFCURVE",
"360 381 CURVE SMOOTH",
"360 274 OFFCURVE"
);
}
);
width = 474;
}
);
unicode = 0DD8;
script = sinhala;
category = Mark;
subCategory = Other;
},
{
color = 4;
glyphname = snmvL;
lastChange = "2022-08-01 11:36:48 +0000";
layers = (
{
layerId = "25BA55F5-DD3E-4682-A696-ADF7D9496427";
name = Light;
paths = (
{
closed = 1;
nodes = (
"385 43 OFFCURVE",
"288 -1 OFFCURVE",
"213 -1 CURVE SMOOTH",
"140 -1 OFFCURVE",
"69 41 OFFCURVE",
"40 102 CURVE",
"62 113 LINE",
"88 61 OFFCURVE",
"150 25 OFFCURVE",
"215 25 CURVE SMOOTH",
"275 25 OFFCURVE",
"359 67 OFFCURVE",
"359 165 CURVE SMOOTH",
"359 263 OFFCURVE",
"311 300 OFFCURVE",
"311 376 CURVE SMOOTH",
"311 432 OFFCURVE",
"336 485 OFFCURVE",
"380 500 CURVE",
"386 482 LINE",
"349 466 OFFCURVE",
"335 411 OFFCURVE",
"335 378 CURVE SMOOTH",
"335 314 OFFCURVE",
"385 255 OFFCURVE",
"385 169 CURVE SMOOTH"
);
},
{
closed = 1;
nodes = (
"103 229 OFFCURVE",
"55 283 OFFCURVE",
"55 358 CURVE SMOOTH",
"55 451 OFFCURVE",
"165 504 OFFCURVE",
"169 506 CURVE",
"180 482 LINE",
"179 482 OFFCURVE",
"81 434 OFFCURVE",
"81 358 CURVE SMOOTH",
"81 288 OFFCURVE",
"127 256 OFFCURVE",
"175 256 CURVE SMOOTH",
"225 256 OFFCURVE",
"249 291 OFFCURVE",
"249 314 CURVE SMOOTH",
"249 342 OFFCURVE",
"229 355 OFFCURVE",
"205 355 CURVE SMOOTH",
"191 355 OFFCURVE",
"178 348 OFFCURVE",
"169 340 CURVE",
"150 347 LINE",
"165 420 OFFCURVE",
"201 507 OFFCURVE",
"348 507 CURVE SMOOTH",
"367 507 OFFCURVE",
"372 507 OFFCURVE",
"382 507 CURVE",
"386 482 LINE",
"375 482 OFFCURVE",
"357 483 OFFCURVE",
"347 483 CURVE SMOOTH",
"230 483 OFFCURVE",
"200 430 OFFCURVE",
"184 377 CURVE",
"192 380 OFFCURVE",
"197 381 OFFCURVE",
"208 381 CURVE SMOOTH",
"245 381 OFFCURVE",
"276 358 OFFCURVE",
"276 314 CURVE SMOOTH",
"276 273 OFFCURVE",
"238 229 OFFCURVE",
"175 229 CURVE SMOOTH"
);
}
);
width = 426;
}
);
unicode = 0DDF;
script = sinhala;
category = Mark;
subCategory = Other;
},
{
color = 4;
glyphname = snmvLL;
lastChange = "2022-08-01 11:36:48 +0000";
layers = (
{
layerId = "25BA55F5-DD3E-4682-A696-ADF7D9496427";
name = Light;
paths = (
{
closed = 1;
nodes = (
"103 229 OFFCURVE",
"55 283 OFFCURVE",
"55 358 CURVE SMOOTH",
"55 451 OFFCURVE",
"165 504 OFFCURVE",
"169 506 CURVE",
"180 482 LINE",
"179 482 OFFCURVE",
"81 434 OFFCURVE",
"81 358 CURVE SMOOTH",
"81 288 OFFCURVE",
"127 256 OFFCURVE",
"175 256 CURVE SMOOTH",
"225 256 OFFCURVE",
"249 291 OFFCURVE",
"249 314 CURVE SMOOTH",
"249 342 OFFCURVE",
"229 355 OFFCURVE",
"205 355 CURVE SMOOTH",
"191 355 OFFCURVE",
"178 348 OFFCURVE",
"169 340 CURVE",
"150 347 LINE",
"165 420 OFFCURVE",
"201 507 OFFCURVE",
"348 507 CURVE SMOOTH",
"367 507 OFFCURVE",
"372 507 OFFCURVE",
"382 507 CURVE",
"386 482 LINE",
"375 482 OFFCURVE",
"357 483 OFFCURVE",
"347 483 CURVE SMOOTH",
"230 483 OFFCURVE",
"200 430 OFFCURVE",
"184 377 CURVE",
"192 380 OFFCURVE",
"197 381 OFFCURVE",
"208 381 CURVE SMOOTH",
"245 381 OFFCURVE",
"276 358 OFFCURVE",
"276 314 CURVE SMOOTH",
"276 273 OFFCURVE",
"238 229 OFFCURVE",
"175 229 CURVE SMOOTH"
);
},
{
closed = 1;
nodes = (
"40 141 OFFCURVE",
"92 178 OFFCURVE",
"161 178 CURVE SMOOTH",
"235 178 OFFCURVE",
"326 141 OFFCURVE",
"358 5 CURVE",
"335 0 LINE",
"306 99 OFFCURVE",
"254 151 OFFCURVE",
"161 151 CURVE SMOOTH",
"105 151 OFFCURVE",
"68 128 OFFCURVE",
"68 92 CURVE SMOOTH",
"68 47 OFFCURVE",
"127 25 OFFCURVE",
"192 25 CURVE SMOOTH",
"275 25 OFFCURVE",
"359 67 OFFCURVE",
"359 165 CURVE SMOOTH",
"359 263 OFFCURVE",
"311 300 OFFCURVE",
"311 376 CURVE SMOOTH",
"311 432 OFFCURVE",
"336 485 OFFCURVE",
"380 500 CURVE",
"386 482 LINE",
"349 466 OFFCURVE",
"335 411 OFFCURVE",
"335 378 CURVE SMOOTH",
"335 314 OFFCURVE",
"385 255 OFFCURVE",
"385 169 CURVE SMOOTH",
"385 43 OFFCURVE",
"288 -1 OFFCURVE",
"190 -1 CURVE SMOOTH",
"117 -1 OFFCURVE",
"40 32 OFFCURVE",
"40 92 CURVE SMOOTH"
);
}
);
width = 600;
}
);
unicode = 0DF3;
script = sinhala;
category = Mark;
subCategory = Other;
},
{
color = 4;
glyphname = snmE;
lastChange = "2022-08-01 11:36:48 +0000";
layers = (
{
layerId = "25BA55F5-DD3E-4682-A696-ADF7D9496427";
name = Light;
paths = (
{
closed = 1;
nodes = (
"468 264 OFFCURVE",
"468 196 CURVE SMOOTH",
"468 149 OFFCURVE",
"439 118 OFFCURVE",
"398 118 CURVE SMOOTH",
"358 118 OFFCURVE",
"330 151 OFFCURVE",
"330 194 CURVE SMOOTH",
"330 268 OFFCURVE",
"381 319 OFFCURVE",
"455 319 CURVE SMOOTH",
"544 319 OFFCURVE",
"616 262 OFFCURVE",
"616 173 CURVE SMOOTH",
"616 78 OFFCURVE",
"534 0 OFFCURVE",
"424 0 CURVE SMOOTH",
"284 0 OFFCURVE",
"190 96 OFFCURVE",
"190 246 CURVE SMOOTH",
"190 399 OFFCURVE",
"310 518 OFFCURVE",
"479 518 CURVE SMOOTH",
"610 518 OFFCURVE",
"718 436 OFFCURVE",
"763 290 CURVE",
"737 283 LINE",
"694 419 OFFCURVE",
"599 491 OFFCURVE",
"479 491 CURVE SMOOTH",
"329 491 OFFCURVE",
"217 381 OFFCURVE",
"217 246 CURVE SMOOTH",
"217 119 OFFCURVE",
"304 27 OFFCURVE",
"424 27 CURVE SMOOTH",
"512 27 OFFCURVE",
"589 93 OFFCURVE",
"589 173 CURVE SMOOTH",
"589 247 OFFCURVE",
"528 293 OFFCURVE",
"455 293 CURVE SMOOTH",
"402 293 OFFCURVE",
"357 247 OFFCURVE",
"357 194 CURVE SMOOTH",
"357 169 OFFCURVE",
"374 145 OFFCURVE",
"398 145 CURVE SMOOTH",
"422 145 OFFCURVE",
"440 165 OFFCURVE",
"440 196 CURVE SMOOTH",
"440 253 OFFCURVE",
"377 323 OFFCURVE",
"244 323 CURVE SMOOTH",
"137 323 OFFCURVE",
"67 260 OFFCURVE",
"67 182 CURVE SMOOTH",
"67 149 OFFCURVE",
"80 111 OFFCURVE",
"110 84 CURVE",
"91 65 LINE",
"59 94 OFFCURVE",
"40 135 OFFCURVE",
"40 182 CURVE SMOOTH",
"40 276 OFFCURVE",
"119 349 OFFCURVE",
"244 349 CURVE SMOOTH",
"401 349 OFFCURVE"
);
}
);
width = 763;
}
);
unicode = 0DD9;
script = sinhala;
category = Mark;
subCategory = Other;
},
{
color = 4;
glyphname = snmEE;
lastChange = "2022-08-02 02:49:52 +0000";
layers = (
{
components = (
{
name = snmE;
},
{
name = snVirama;
transform = "{1, 0, 0, 1, 1177, 80}";
}
);
layerId = "25BA55F5-DD3E-4682-A696-ADF7D9496427";
name = Light;
paths = (
{
closed = 1;
nodes = (
"670 451 OFFCURVE",
"688 432 OFFCURVE",
"714 432 CURVE SMOOTH",
"740 432 OFFCURVE",
"758 451 OFFCURVE",
"758 477 CURVE SMOOTH",
"758 502 OFFCURVE",
"740 521 OFFCURVE",
"714 521 CURVE SMOOTH",
"688 521 OFFCURVE",
"670 502 OFFCURVE",
"670 477 CURVE SMOOTH"
);
},
{
closed = 1;
nodes = (
"588 342 OFFCURVE",
"608 323 OFFCURVE",
"634 323 CURVE SMOOTH",
"658 323 OFFCURVE",
"678 342 OFFCURVE",
"678 367 CURVE SMOOTH",
"678 392 OFFCURVE",
"658 411 OFFCURVE",
"634 411 CURVE SMOOTH",
"608 411 OFFCURVE",
"588 392 OFFCURVE",
"588 367 CURVE SMOOTH"
);
},
{
closed = 1;
nodes = (
"575 216 OFFCURVE",
"594 198 OFFCURVE",
"619 198 CURVE SMOOTH",
"645 198 OFFCURVE",
"663 216 OFFCURVE",
"663 241 CURVE SMOOTH",
"663 267 OFFCURVE",
"645 286 OFFCURVE",
"619 286 CURVE SMOOTH",
"594 286 OFFCURVE",
"575 267 OFFCURVE",
"575 241 CURVE SMOOTH"
);
},
{
closed = 1;
nodes = (
"627 99 OFFCURVE",
"645 81 OFFCURVE",
"671 81 CURVE SMOOTH",
"696 81 OFFCURVE",
"715 99 OFFCURVE",
"715 125 CURVE SMOOTH",
"715 150 OFFCURVE",
"696 169 OFFCURVE",
"671 169 CURVE SMOOTH",
"645 169 OFFCURVE",
"627 150 OFFCURVE",
"627 125 CURVE SMOOTH"
);
},
{
closed = 1;
nodes = (
"728 24 OFFCURVE",
"747 4 OFFCURVE",
"773 4 CURVE SMOOTH",
"798 4 OFFCURVE",
"817 24 OFFCURVE",
"817 50 CURVE SMOOTH",
"817 74 OFFCURVE",
"798 94 OFFCURVE",
"773 94 CURVE SMOOTH",
"747 94 OFFCURVE",
"728 74 OFFCURVE",
"728 50 CURVE SMOOTH"
);
},
{
closed = 1;
nodes = (
"855 8 OFFCURVE",
"873 -10 OFFCURVE",
"899 -10 CURVE SMOOTH",
"925 -10 OFFCURVE",
"944 8 OFFCURVE",
"944 34 CURVE SMOOTH",
"944 60 OFFCURVE",
"925 78 OFFCURVE",
"899 78 CURVE SMOOTH",
"873 78 OFFCURVE",
"855 60 OFFCURVE",
"855 34 CURVE SMOOTH"
);
},
{
closed = 1;
nodes = (
"976 61 OFFCURVE",
"995 43 OFFCURVE",
"1020 43 CURVE SMOOTH",
"1045 43 OFFCURVE",
"1065 61 OFFCURVE",
"1065 87 CURVE SMOOTH",
"1065 112 OFFCURVE",
"1045 131 OFFCURVE",
"1020 131 CURVE SMOOTH",
"995 131 OFFCURVE",
"976 112 OFFCURVE",
"976 87 CURVE SMOOTH"
);
},
{
closed = 1;
nodes = (
"1049 160 OFFCURVE",
"1068 141 OFFCURVE",
"1094 141 CURVE SMOOTH",
"1118 141 OFFCURVE",
"1137 160 OFFCURVE",
"1137 185 CURVE SMOOTH",
"1137 211 OFFCURVE",
"1118 230 OFFCURVE",
"1094 230 CURVE SMOOTH",
"1068 230 OFFCURVE",
"1049 211 OFFCURVE",
"1049 185 CURVE SMOOTH"
);
},
{
closed = 1;
nodes = (
"1059 293 OFFCURVE",
"1077 275 OFFCURVE",
"1103 275 CURVE SMOOTH",
"1128 275 OFFCURVE",
"1147 293 OFFCURVE",
"1147 319 CURVE SMOOTH",
"1147 345 OFFCURVE",
"1128 363 OFFCURVE",
"1103 363 CURVE SMOOTH",
"1077 363 OFFCURVE",
"1059 345 OFFCURVE",
"1059 319 CURVE SMOOTH"
);
},
{
closed = 1;
nodes = (
"1009 412 OFFCURVE",
"1028 393 OFFCURVE",
"1053 393 CURVE SMOOTH",
"1079 393 OFFCURVE",
"1097 412 OFFCURVE",
"1097 437 CURVE SMOOTH",
"1097 463 OFFCURVE",
"1079 482 OFFCURVE",
"1053 482 CURVE SMOOTH",
"1028 482 OFFCURVE",
"1009 463 OFFCURVE",
"1009 437 CURVE SMOOTH"
);
},
{
closed = 1;
nodes = (
"914 481 OFFCURVE",
"933 461 OFFCURVE",
"959 461 CURVE SMOOTH",
"984 461 OFFCURVE",
"1002 481 OFFCURVE",
"1002 505 CURVE SMOOTH",
"1002 531 OFFCURVE",
"984 550 OFFCURVE",
"959 550 CURVE SMOOTH",
"933 550 OFFCURVE",
"914 531 OFFCURVE",
"914 505 CURVE SMOOTH"
);
},
{
closed = 1;
nodes = (
"788 494 OFFCURVE",
"806 476 OFFCURVE",
"832 476 CURVE SMOOTH",
"858 476 OFFCURVE",
"876 494 OFFCURVE",
"876 520 CURVE SMOOTH",
"876 546 OFFCURVE",
"858 564 OFFCURVE",
"832 564 CURVE SMOOTH",
"806 564 OFFCURVE",
"788 546 OFFCURVE",
"788 520 CURVE SMOOTH"
);
}
);
width = 1177;
}
);
unicode = 0DDA;
category = Mark;
},
{
color = 4;
glyphname = snmO;
lastChange = "2022-08-02 02:49:52 +0000";
layers = (
{
components = (
{
name = snmE;
},
{
name = snmAA;
transform = "{1, 0, 0, 1, 1230, 0}";
}
);
layerId = "25BA55F5-DD3E-4682-A696-ADF7D9496427";
name = Light;
paths = (
{
closed = 1;
nodes = (
"720 451 OFFCURVE",
"738 432 OFFCURVE",
"764 432 CURVE SMOOTH",
"790 432 OFFCURVE",
"808 451 OFFCURVE",
"808 477 CURVE SMOOTH",
"808 502 OFFCURVE",
"790 521 OFFCURVE",
"764 521 CURVE SMOOTH",
"738 521 OFFCURVE",
"720 502 OFFCURVE",
"720 477 CURVE SMOOTH"
);
},
{
closed = 1;
nodes = (
"638 342 OFFCURVE",
"658 323 OFFCURVE",
"684 323 CURVE SMOOTH",
"708 323 OFFCURVE",
"728 342 OFFCURVE",
"728 367 CURVE SMOOTH",
"728 392 OFFCURVE",
"708 411 OFFCURVE",
"684 411 CURVE SMOOTH",
"658 411 OFFCURVE",
"638 392 OFFCURVE",
"638 367 CURVE SMOOTH"
);
},
{
closed = 1;
nodes = (
"625 216 OFFCURVE",
"644 198 OFFCURVE",
"669 198 CURVE SMOOTH",
"695 198 OFFCURVE",
"713 216 OFFCURVE",
"713 241 CURVE SMOOTH",
"713 267 OFFCURVE",
"695 286 OFFCURVE",
"669 286 CURVE SMOOTH",
"644 286 OFFCURVE",
"625 267 OFFCURVE",
"625 241 CURVE SMOOTH"
);
},
{
closed = 1;
nodes = (
"677 99 OFFCURVE",
"695 81 OFFCURVE",
"721 81 CURVE SMOOTH",
"746 81 OFFCURVE",
"765 99 OFFCURVE",
"765 125 CURVE SMOOTH",
"765 150 OFFCURVE",
"746 169 OFFCURVE",
"721 169 CURVE SMOOTH",
"695 169 OFFCURVE",
"677 150 OFFCURVE",
"677 125 CURVE SMOOTH"
);
},
{
closed = 1;
nodes = (
"778 24 OFFCURVE",
"797 4 OFFCURVE",
"823 4 CURVE SMOOTH",
"848 4 OFFCURVE",
"867 24 OFFCURVE",
"867 50 CURVE SMOOTH",
"867 74 OFFCURVE",
"848 94 OFFCURVE",
"823 94 CURVE SMOOTH",
"797 94 OFFCURVE",
"778 74 OFFCURVE",
"778 50 CURVE SMOOTH"
);
},
{
closed = 1;
nodes = (
"905 8 OFFCURVE",
"923 -10 OFFCURVE",
"949 -10 CURVE SMOOTH",
"975 -10 OFFCURVE",
"994 8 OFFCURVE",
"994 34 CURVE SMOOTH",
"994 60 OFFCURVE",
"975 78 OFFCURVE",
"949 78 CURVE SMOOTH",
"923 78 OFFCURVE",
"905 60 OFFCURVE",
"905 34 CURVE SMOOTH"
);
},
{
closed = 1;
nodes = (
"1026 61 OFFCURVE",
"1045 43 OFFCURVE",
"1070 43 CURVE SMOOTH",
"1095 43 OFFCURVE",
"1115 61 OFFCURVE",
"1115 87 CURVE SMOOTH",
"1115 112 OFFCURVE",
"1095 131 OFFCURVE",
"1070 131 CURVE SMOOTH",
"1045 131 OFFCURVE",
"1026 112 OFFCURVE",
"1026 87 CURVE SMOOTH"
);
},
{
closed = 1;
nodes = (
"1099 160 OFFCURVE",
"1118 141 OFFCURVE",
"1144 141 CURVE SMOOTH",
"1168 141 OFFCURVE",
"1187 160 OFFCURVE",
"1187 185 CURVE SMOOTH",
"1187 211 OFFCURVE",
"1168 230 OFFCURVE",
"1144 230 CURVE SMOOTH",
"1118 230 OFFCURVE",
"1099 211 OFFCURVE",
"1099 185 CURVE SMOOTH"
);
},
{
closed = 1;
nodes = (
"1109 293 OFFCURVE",
"1127 275 OFFCURVE",
"1153 275 CURVE SMOOTH",
"1178 275 OFFCURVE",
"1197 293 OFFCURVE",
"1197 319 CURVE SMOOTH",
"1197 345 OFFCURVE",
"1178 363 OFFCURVE",
"1153 363 CURVE SMOOTH",
"1127 363 OFFCURVE",
"1109 345 OFFCURVE",
"1109 319 CURVE SMOOTH"
);
},
{
closed = 1;
nodes = (
"1059 412 OFFCURVE",
"1078 393 OFFCURVE",
"1103 393 CURVE SMOOTH",
"1129 393 OFFCURVE",
"1147 412 OFFCURVE",
"1147 437 CURVE SMOOTH",
"1147 463 OFFCURVE",
"1129 482 OFFCURVE",
"1103 482 CURVE SMOOTH",
"1078 482 OFFCURVE",
"1059 463 OFFCURVE",
"1059 437 CURVE SMOOTH"
);
},
{
closed = 1;
nodes = (
"964 481 OFFCURVE",
"983 461 OFFCURVE",
"1009 461 CURVE SMOOTH",
"1034 461 OFFCURVE",
"1052 481 OFFCURVE",
"1052 505 CURVE SMOOTH",
"1052 531 OFFCURVE",
"1034 550 OFFCURVE",
"1009 550 CURVE SMOOTH",
"983 550 OFFCURVE",
"964 531 OFFCURVE",
"964 505 CURVE SMOOTH"
);
},
{
closed = 1;
nodes = (
"838 494 OFFCURVE",
"856 476 OFFCURVE",
"882 476 CURVE SMOOTH",
"908 476 OFFCURVE",
"926 494 OFFCURVE",
"926 520 CURVE SMOOTH",
"926 546 OFFCURVE",
"908 564 OFFCURVE",
"882 564 CURVE SMOOTH",
"856 564 OFFCURVE",
"838 546 OFFCURVE",
"838 520 CURVE SMOOTH"
);
}
);
width = 1631;
}
);
unicode = 0DDC;
category = Mark;
},
{
color = 4;
glyphname = snmOO;
lastChange = "2022-08-02 02:35:47 +0000";
layers = (
{
components = (
{
name = snmE;
},
{
name = snmAA;
transform = "{1, 0, 0, 1, 1230, 0}";
},
{
name = snVirama;
transform = "{1, 0, 0, 1, 1500, 0}";
}
);
layerId = "25BA55F5-DD3E-4682-A696-ADF7D9496427";
name = Light;
paths = (
{
closed = 1;
nodes = (
"746 81 OFFCURVE",
"765 99 OFFCURVE",
"765 125 CURVE SMOOTH",
"765 150 OFFCURVE",
"746 169 OFFCURVE",
"721 169 CURVE SMOOTH",
"695 169 OFFCURVE",
"677 150 OFFCURVE",
"677 125 CURVE SMOOTH",
"677 99 OFFCURVE",
"695 81 OFFCURVE",
"721 81 CURVE SMOOTH"
);
},
{
closed = 1;
nodes = (
"848 4 OFFCURVE",
"867 24 OFFCURVE",
"867 50 CURVE SMOOTH",
"867 74 OFFCURVE",
"848 94 OFFCURVE",
"823 94 CURVE SMOOTH",
"797 94 OFFCURVE",
"778 74 OFFCURVE",
"778 50 CURVE SMOOTH",
"778 24 OFFCURVE",
"797 4 OFFCURVE",
"823 4 CURVE SMOOTH"
);
},
{
closed = 1;
nodes = (
"695 198 OFFCURVE",
"713 216 OFFCURVE",
"713 241 CURVE SMOOTH",
"713 267 OFFCURVE",
"695 286 OFFCURVE",
"669 286 CURVE SMOOTH",
"644 286 OFFCURVE",
"625 267 OFFCURVE",
"625 241 CURVE SMOOTH",
"625 216 OFFCURVE",
"644 198 OFFCURVE",
"669 198 CURVE SMOOTH"
);
},
{
closed = 1;
nodes = (
"975 -10 OFFCURVE",
"994 8 OFFCURVE",
"994 34 CURVE SMOOTH",
"994 60 OFFCURVE",
"975 78 OFFCURVE",
"949 78 CURVE SMOOTH",
"923 78 OFFCURVE",
"905 60 OFFCURVE",
"905 34 CURVE SMOOTH",
"905 8 OFFCURVE",
"923 -10 OFFCURVE",
"949 -10 CURVE SMOOTH"
);
},
{
closed = 1;
nodes = (
"708 323 OFFCURVE",
"728 342 OFFCURVE",
"728 367 CURVE SMOOTH",
"728 392 OFFCURVE",
"708 411 OFFCURVE",
"684 411 CURVE SMOOTH",
"658 411 OFFCURVE",
"638 392 OFFCURVE",
"638 367 CURVE SMOOTH",
"638 342 OFFCURVE",
"658 323 OFFCURVE",
"684 323 CURVE SMOOTH"
);
},
{
closed = 1;
nodes = (
"1095 43 OFFCURVE",
"1115 61 OFFCURVE",
"1115 87 CURVE SMOOTH",
"1115 112 OFFCURVE",
"1095 131 OFFCURVE",
"1070 131 CURVE SMOOTH",
"1045 131 OFFCURVE",
"1026 112 OFFCURVE",
"1026 87 CURVE SMOOTH",
"1026 61 OFFCURVE",
"1045 43 OFFCURVE",
"1070 43 CURVE SMOOTH"
);
},
{
closed = 1;
nodes = (
"790 432 OFFCURVE",
"808 451 OFFCURVE",
"808 477 CURVE SMOOTH",
"808 502 OFFCURVE",
"790 521 OFFCURVE",
"764 521 CURVE SMOOTH",
"738 521 OFFCURVE",
"720 502 OFFCURVE",
"720 477 CURVE SMOOTH",
"720 451 OFFCURVE",
"738 432 OFFCURVE",
"764 432 CURVE SMOOTH"
);
},
{
closed = 1;
nodes = (
"1168 141 OFFCURVE",
"1187 160 OFFCURVE",
"1187 185 CURVE SMOOTH",
"1187 211 OFFCURVE",
"1168 230 OFFCURVE",
"1144 230 CURVE SMOOTH",
"1118 230 OFFCURVE",
"1099 211 OFFCURVE",
"1099 185 CURVE SMOOTH",
"1099 160 OFFCURVE",
"1118 141 OFFCURVE",
"1144 141 CURVE SMOOTH"
);
},
{
closed = 1;
nodes = (
"908 476 OFFCURVE",
"926 494 OFFCURVE",
"926 520 CURVE SMOOTH",
"926 546 OFFCURVE",
"908 564 OFFCURVE",
"882 564 CURVE SMOOTH",
"856 564 OFFCURVE",
"838 546 OFFCURVE",
"838 520 CURVE SMOOTH",
"838 494 OFFCURVE",
"856 476 OFFCURVE",
"882 476 CURVE SMOOTH"
);
},
{
closed = 1;
nodes = (
"1178 275 OFFCURVE",
"1197 293 OFFCURVE",
"1197 319 CURVE SMOOTH",
"1197 345 OFFCURVE",
"1178 363 OFFCURVE",
"1153 363 CURVE SMOOTH",
"1127 363 OFFCURVE",
"1109 345 OFFCURVE",
"1109 319 CURVE SMOOTH",
"1109 293 OFFCURVE",
"1127 275 OFFCURVE",
"1153 275 CURVE SMOOTH"
);
},
{
closed = 1;
nodes = (
"1034 461 OFFCURVE",
"1052 481 OFFCURVE",
"1052 505 CURVE SMOOTH",
"1052 531 OFFCURVE",
"1034 550 OFFCURVE",
"1009 550 CURVE SMOOTH",
"983 550 OFFCURVE",
"964 531 OFFCURVE",
"964 505 CURVE SMOOTH",
"964 481 OFFCURVE",
"983 461 OFFCURVE",
"1009 461 CURVE SMOOTH"
);
},
{
closed = 1;
nodes = (
"1129 393 OFFCURVE",
"1147 412 OFFCURVE",
"1147 437 CURVE SMOOTH",
"1147 463 OFFCURVE",
"1129 482 OFFCURVE",
"1103 482 CURVE SMOOTH",
"1078 482 OFFCURVE",
"1059 463 OFFCURVE",
"1059 437 CURVE SMOOTH",
"1059 412 OFFCURVE",
"1078 393 OFFCURVE",
"1103 393 CURVE SMOOTH"
);
}
);
width = 1457;
}
);
unicode = 0DDD;
category = Mark;
},
{
color = 4;
glyphname = snmAU;
lastChange = "2022-08-02 02:49:52 +0000";
layers = (
{
components = (
{
name = snmE;
},
{
name = snmvL;
transform = "{1, 0, 0, 1, 1240, 0}";
}
);
layerId = "25BA55F5-DD3E-4682-A696-ADF7D9496427";
name = Light;
paths = (
{
closed = 1;
nodes = (
"720 451 OFFCURVE",
"738 432 OFFCURVE",
"764 432 CURVE SMOOTH",
"790 432 OFFCURVE",
"808 451 OFFCURVE",
"808 477 CURVE SMOOTH",
"808 502 OFFCURVE",
"790 521 OFFCURVE",
"764 521 CURVE SMOOTH",
"738 521 OFFCURVE",
"720 502 OFFCURVE",
"720 477 CURVE SMOOTH"
);
},
{
closed = 1;
nodes = (
"638 342 OFFCURVE",
"658 323 OFFCURVE",
"684 323 CURVE SMOOTH",
"708 323 OFFCURVE",
"728 342 OFFCURVE",
"728 367 CURVE SMOOTH",
"728 392 OFFCURVE",
"708 411 OFFCURVE",
"684 411 CURVE SMOOTH",
"658 411 OFFCURVE",
"638 392 OFFCURVE",
"638 367 CURVE SMOOTH"
);
},
{
closed = 1;
nodes = (
"625 216 OFFCURVE",
"644 198 OFFCURVE",
"669 198 CURVE SMOOTH",
"695 198 OFFCURVE",
"713 216 OFFCURVE",
"713 241 CURVE SMOOTH",
"713 267 OFFCURVE",
"695 286 OFFCURVE",
"669 286 CURVE SMOOTH",
"644 286 OFFCURVE",
"625 267 OFFCURVE",
"625 241 CURVE SMOOTH"
);
},
{
closed = 1;
nodes = (
"677 99 OFFCURVE",
"695 81 OFFCURVE",
"721 81 CURVE SMOOTH",
"746 81 OFFCURVE",
"765 99 OFFCURVE",
"765 125 CURVE SMOOTH",
"765 150 OFFCURVE",
"746 169 OFFCURVE",
"721 169 CURVE SMOOTH",
"695 169 OFFCURVE",
"677 150 OFFCURVE",
"677 125 CURVE SMOOTH"
);
},
{
closed = 1;
nodes = (
"778 24 OFFCURVE",
"797 4 OFFCURVE",
"823 4 CURVE SMOOTH",
"848 4 OFFCURVE",
"867 24 OFFCURVE",
"867 50 CURVE SMOOTH",
"867 74 OFFCURVE",
"848 94 OFFCURVE",
"823 94 CURVE SMOOTH",
"797 94 OFFCURVE",
"778 74 OFFCURVE",
"778 50 CURVE SMOOTH"
);
},
{
closed = 1;
nodes = (
"905 8 OFFCURVE",
"923 -10 OFFCURVE",
"949 -10 CURVE SMOOTH",
"975 -10 OFFCURVE",
"994 8 OFFCURVE",
"994 34 CURVE SMOOTH",
"994 60 OFFCURVE",
"975 78 OFFCURVE",
"949 78 CURVE SMOOTH",
"923 78 OFFCURVE",
"905 60 OFFCURVE",
"905 34 CURVE SMOOTH"
);
},
{
closed = 1;
nodes = (
"1026 61 OFFCURVE",
"1045 43 OFFCURVE",
"1070 43 CURVE SMOOTH",
"1095 43 OFFCURVE",
"1115 61 OFFCURVE",
"1115 87 CURVE SMOOTH",
"1115 112 OFFCURVE",
"1095 131 OFFCURVE",
"1070 131 CURVE SMOOTH",
"1045 131 OFFCURVE",
"1026 112 OFFCURVE",
"1026 87 CURVE SMOOTH"
);
},
{
closed = 1;
nodes = (
"1099 160 OFFCURVE",
"1118 141 OFFCURVE",
"1144 141 CURVE SMOOTH",
"1168 141 OFFCURVE",
"1187 160 OFFCURVE",
"1187 185 CURVE SMOOTH",
"1187 211 OFFCURVE",
"1168 230 OFFCURVE",
"1144 230 CURVE SMOOTH",
"1118 230 OFFCURVE",
"1099 211 OFFCURVE",
"1099 185 CURVE SMOOTH"
);
},
{
closed = 1;
nodes = (
"1109 293 OFFCURVE",
"1127 275 OFFCURVE",
"1153 275 CURVE SMOOTH",
"1178 275 OFFCURVE",
"1197 293 OFFCURVE",
"1197 319 CURVE SMOOTH",
"1197 345 OFFCURVE",
"1178 363 OFFCURVE",
"1153 363 CURVE SMOOTH",
"1127 363 OFFCURVE",
"1109 345 OFFCURVE",
"1109 319 CURVE SMOOTH"
);
},
{
closed = 1;
nodes = (
"1059 412 OFFCURVE",
"1078 393 OFFCURVE",
"1103 393 CURVE SMOOTH",
"1129 393 OFFCURVE",
"1147 412 OFFCURVE",
"1147 437 CURVE SMOOTH",
"1147 463 OFFCURVE",
"1129 482 OFFCURVE",
"1103 482 CURVE SMOOTH",
"1078 482 OFFCURVE",
"1059 463 OFFCURVE",
"1059 437 CURVE SMOOTH"
);
},
{
closed = 1;
nodes = (
"964 481 OFFCURVE",
"983 461 OFFCURVE",
"1009 461 CURVE SMOOTH",
"1034 461 OFFCURVE",
"1052 481 OFFCURVE",
"1052 505 CURVE SMOOTH",
"1052 531 OFFCURVE",
"1034 550 OFFCURVE",
"1009 550 CURVE SMOOTH",
"983 550 OFFCURVE",
"964 531 OFFCURVE",
"964 505 CURVE SMOOTH"
);
},
{
closed = 1;
nodes = (
"838 494 OFFCURVE",
"856 476 OFFCURVE",
"882 476 CURVE SMOOTH",
"908 476 OFFCURVE",
"926 494 OFFCURVE",
"926 520 CURVE SMOOTH",
"926 546 OFFCURVE",
"908 564 OFFCURVE",
"882 564 CURVE SMOOTH",
"856 564 OFFCURVE",
"838 546 OFFCURVE",
"838 520 CURVE SMOOTH"
);
}
);
width = 1747;
}
);
unicode = 0DDE;
category = Mark;
},
{
color = 4;
glyphname = snKA;
lastChange = "2022-07-23 16:24:18 +0000";
layers = (
{
layerId = "25BA55F5-DD3E-4682-A696-ADF7D9496427";
name = Light;
paths = (
{
closed = 1;
nodes = (
"328 277 OFFCURVE",
"231 175 OFFCURVE",
"184 103 CURVE",
"210 115 LINE",
"218 91 OFFCURVE",
"250 27 OFFCURVE",
"315 27 CURVE SMOOTH",
"367 27 OFFCURVE",
"381 80 OFFCURVE",
"381 111 CURVE",
"407 111 LINE",
"407 59 OFFCURVE",
"442 27 OFFCURVE",
"490 27 CURVE SMOOTH",
"549 27 OFFCURVE",
"581 84 OFFCURVE",
"581 141 CURVE SMOOTH",
"581 156 OFFCURVE",
"581 263 OFFCURVE",
"468 263 CURVE SMOOTH",
"424 263 OFFCURVE",
"390 244 OFFCURVE",
"349 201 CURVE SMOOTH",
"317 167 LINE",
"300 183 LINE",
"334 219 LINE SMOOTH",
"380 267 OFFCURVE",
"404 315 OFFCURVE",
"404 368 CURVE SMOOTH",
"404 449 OFFCURVE",
"361 478 OFFCURVE",
"319 478 CURVE SMOOTH",
"267 478 OFFCURVE",
"213 440 OFFCURVE",
"213 360 CURVE SMOOTH",
"213 320 OFFCURVE",
"230 297 OFFCURVE",
"253 297 CURVE SMOOTH",
"273 297 OFFCURVE",
"280 315 OFFCURVE",
"280 338 CURVE SMOOTH",
"280 405 OFFCURVE",
"197 424 OFFCURVE",
"154 424 CURVE SMOOTH",
"138 424 OFFCURVE",
"122 421 OFFCURVE",
"106 415 CURVE",
"40 391 OFFCURVE",
"23 338 OFFCURVE",
"23 335 CURVE",
"0 343 LINE",
"0 346 OFFCURVE",
"18 410 OFFCURVE",
"99 439 CURVE",
"117 446 OFFCURVE",
"138 449 OFFCURVE",
"158 449 CURVE SMOOTH",
"227 449 OFFCURVE",
"306 416 OFFCURVE",
"306 338 CURVE SMOOTH",
"306 299 OFFCURVE",
"287 270 OFFCURVE",
"252 270 CURVE SMOOTH",
"221 270 OFFCURVE",
"185 303 OFFCURVE",
"185 359 CURVE SMOOTH",
"185 453 OFFCURVE",
"249 504 OFFCURVE",
"320 504 CURVE SMOOTH",
"384 504 OFFCURVE",
"430 462 OFFCURVE",
"430 366 CURVE SMOOTH",
"430 344 OFFCURVE",
"424 313 OFFCURVE",
"403 272 CURVE",
"419 281 OFFCURVE",
"440 291 OFFCURVE",
"468 290 CURVE SMOOTH",
"578 285 OFFCURVE",
"607 203 OFFCURVE",
"607 148 CURVE SMOOTH",
"607 84 OFFCURVE",
"575 0 OFFCURVE",
"490 0 CURVE SMOOTH",
"442 0 OFFCURVE",
"411 22 OFFCURVE",
"394 55 CURVE",
"384 27 OFFCURVE",
"359 0 OFFCURVE",
"315 0 CURVE SMOOTH",
"242 0 OFFCURVE",
"208 62 OFFCURVE",
"197 83 CURVE",
"172 71 LINE",
"147 92 LINE",
"230 222 OFFCURVE",
"333 315 OFFCURVE",
"415 372 CURVE SMOOTH",
"510 438 OFFCURVE",
"697 511 OFFCURVE",
"843 511 CURVE",
"849 483 LINE",
"779 474 OFFCURVE",
"729 437 OFFCURVE",
"729 336 CURVE SMOOTH",
"729 276 OFFCURVE",
"766 128 OFFCURVE",
"766 50 CURVE SMOOTH",
"766 -166 OFFCURVE",
"651 -264 OFFCURVE",
"433 -281 CURVE",
"432 -253 LINE",
"639 -240 OFFCURVE",
"740 -142 OFFCURVE",
"740 48 CURVE SMOOTH",
"740 115 OFFCURVE",
"702 277 OFFCURVE",
"702 344 CURVE SMOOTH",
"702 404 OFFCURVE",
"731 458 OFFCURVE",
"759 476 CURVE",
"622 450 OFFCURVE",
"510 409 OFFCURVE",
"415 340 CURVE SMOOTH"
);
}
);
width = 829;
}
);
unicode = 0D9A;
},
{
color = 4;
glyphname = snKHA;
lastChange = "2022-07-23 16:24:18 +0000";
layers = (
{
layerId = "25BA55F5-DD3E-4682-A696-ADF7D9496427";
name = Light;
paths = (
{
closed = 1;
nodes = (
"529 285 OFFCURVE",
"567 240 OFFCURVE",
"567 188 CURVE SMOOTH",
"567 175 OFFCURVE",
"565 163 OFFCURVE",
"562 151 CURVE",
"618 185 OFFCURVE",
"662 220 OFFCURVE",
"662 266 CURVE SMOOTH",
"662 317 OFFCURVE",
"606 362 OFFCURVE",
"553 362 CURVE SMOOTH",
"503 362 OFFCURVE",
"451 326 OFFCURVE",
"429 295 CURVE"
);
},
{
closed = 1;
nodes = (
"406 242 OFFCURVE",
"406 219 OFFCURVE",
"406 195 CURVE SMOOTH",
"406 135 OFFCURVE",
"454 109 OFFCURVE",
"483 109 CURVE SMOOTH",
"509 109 OFFCURVE",
"537 150 OFFCURVE",
"537 185 CURVE SMOOTH",
"537 242 OFFCURVE",
"472 262 OFFCURVE",
"415 266 CURVE"
);
},
{
closed = 1;
nodes = (
"232 -269 LINE",
"232 -71 OFFCURVE",
"337 5 OFFCURVE",
"452 85 CURVE",
"423 90 OFFCURVE",
"375 134 OFFCURVE",
"375 195 CURVE SMOOTH",
"375 215 OFFCURVE",
"375 240 OFFCURVE",
"383 266 CURVE",
"247 258 OFFCURVE",
"216 109 OFFCURVE",
"216 50 CURVE",
"188 50 LINE",
"188 127 OFFCURVE",
"232 293 OFFCURVE",
"397 296 CURVE",
"421 349 OFFCURVE",
"492 392 OFFCURVE",
"553 392 CURVE SMOOTH",
"624 392 OFFCURVE",
"692 334 OFFCURVE",
"692 266 CURVE SMOOTH",
"692 167 OFFCURVE",
"526 95 OFFCURVE",
"512 86 CURVE SMOOTH",
"365 -9 OFFCURVE",
"262 -74 OFFCURVE",
"262 -269 CURVE"
);
},
{
closed = 1;
nodes = (
"40 0 LINE",
"40 497 OFFCURVE",
"290 703 OFFCURVE",
"569 703 CURVE SMOOTH",
"887 703 OFFCURVE",
"1013 415 OFFCURVE",
"1013 231 CURVE SMOOTH",
"1013 120 OFFCURVE",
"991 -1 OFFCURVE",
"890 -1 CURVE SMOOTH",
"781 -1 OFFCURVE",
"775 103 OFFCURVE",
"710 103 CURVE SMOOTH",
"647 103 OFFCURVE",
"616 24 OFFCURVE",
"552 -53 CURVE",
"530 -34 LINE",
"581 29 OFFCURVE",
"632 103 OFFCURVE",
"626 189 CURVE",
"654 218 LINE",
"654 216 OFFCURVE",
"656 152 OFFCURVE",
"644 107 CURVE",
"661 122 OFFCURVE",
"687 131 OFFCURVE",
"710 131 CURVE SMOOTH",
"799 131 OFFCURVE",
"793 30 OFFCURVE",
"889 30 CURVE SMOOTH",
"967 30 OFFCURVE",
"983 139 OFFCURVE",
"983 231 CURVE SMOOTH",
"983 403 OFFCURVE",
"861 674 OFFCURVE",
"569 674 CURVE SMOOTH",
"302 674 OFFCURVE",
"70 476 OFFCURVE",
"70 0 CURVE"
);
}
);
width = 1053;
}
);
unicode = 0D9B;
},
{
color = 4;
glyphname = snGA;
lastChange = "2022-07-23 16:24:18 +0000";
layers = (
{
layerId = "25BA55F5-DD3E-4682-A696-ADF7D9496427";
name = Light;
paths = (
{
closed = 1;
nodes = (
"484 489 OFFCURVE",
"358 404 OFFCURVE",
"276 260 CURVE",
"291 273 OFFCURVE",
"317 276 OFFCURVE",
"325 276 CURVE SMOOTH",
"393 276 OFFCURVE",
"436 211 OFFCURVE",
"436 154 CURVE SMOOTH",
"436 41 OFFCURVE",
"327 0 OFFCURVE",
"244 0 CURVE SMOOTH",
"145 0 OFFCURVE",
"40 69 OFFCURVE",
"40 189 CURVE SMOOTH",
"40 353 OFFCURVE",
"189 478 OFFCURVE",
"351 508 CURVE",
"351 478 LINE",
"195 448 OFFCURVE",
"70 331 OFFCURVE",
"70 189 CURVE SMOOTH",
"70 84 OFFCURVE",
"158 27 OFFCURVE",
"250 27 CURVE SMOOTH",
"315 27 OFFCURVE",
"409 66 OFFCURVE",
"409 154 CURVE SMOOTH",
"409 197 OFFCURVE",
"380 249 OFFCURVE",
"317 249 CURVE SMOOTH",
"270 249 OFFCURVE",
"260 220 OFFCURVE",
"254 211 CURVE",
"229 224 LINE",
"336 447 OFFCURVE",
"488 517 OFFCURVE",
"716 517 CURVE SMOOTH",
"747 517 OFFCURVE",
"768 516 OFFCURVE",
"772 516 CURVE",
"771 488 LINE",
"681 488 OFFCURVE",
"613 437 OFFCURVE",
"613 353 CURVE SMOOTH",
"613 258 OFFCURVE",
"650 128 OFFCURVE",
"650 50 CURVE SMOOTH",
"650 -166 OFFCURVE",
"535 -264 OFFCURVE",
"317 -281 CURVE",
"316 -253 LINE",
"523 -240 OFFCURVE",
"624 -152 OFFCURVE",
"624 48 CURVE SMOOTH",
"624 112 OFFCURVE",
"585 288 OFFCURVE",
"585 352 CURVE SMOOTH",
"585 420 OFFCURVE",
"626 476 OFFCURVE",
"698 503 CURVE",
"688 489 LINE"
);
}
);
width = 752;
}
);
unicode = 0D9C;
},
{
color = 4;
glyphname = snGHA;
lastChange = "2022-07-23 16:24:18 +0000";
layers = (
{
layerId = "25BA55F5-DD3E-4682-A696-ADF7D9496427";
name = Light;
paths = (
{
closed = 1;
nodes = (
"451 349 OFFCURVE",
"477 378 OFFCURVE",
"477 412 CURVE SMOOTH",
"477 465 OFFCURVE",
"434 480 OFFCURVE",
"395 480 CURVE SMOOTH",
"349 480 OFFCURVE",
"282 452 OFFCURVE",
"282 374 CURVE SMOOTH",
"282 357 OFFCURVE",
"293 330 OFFCURVE",
"320 330 CURVE SMOOTH",
"340 330 OFFCURVE",
"347 351 OFFCURVE",
"347 373 CURVE SMOOTH",
"347 420 OFFCURVE",
"272 449 OFFCURVE",
"230 449 CURVE SMOOTH",
"154 449 OFFCURVE",
"104 396 OFFCURVE",
"104 342 CURVE SMOOTH",
"104 334 OFFCURVE",
"106 330 OFFCURVE",
"106 329 CURVE",
"78 319 LINE",
"77 320 OFFCURVE",
"75 327 OFFCURVE",
"75 339 CURVE SMOOTH",
"75 415 OFFCURVE",
"141 477 OFFCURVE",
"230 477 CURVE SMOOTH",
"283 477 OFFCURVE",
"375 446 OFFCURVE",
"375 367 CURVE SMOOTH",
"375 327 OFFCURVE",
"347 303 OFFCURVE",
"320 303 CURVE SMOOTH",
"270 303 OFFCURVE",
"254 345 OFFCURVE",
"254 377 CURVE SMOOTH",
"254 450 OFFCURVE",
"316 507 OFFCURVE",
"394 507 CURVE SMOOTH",
"451 507 OFFCURVE",
"503 483 OFFCURVE",
"503 412 CURVE SMOOTH",
"503 351 OFFCURVE",
"452 318 OFFCURVE",
"365 276 CURVE",
"322 256 OFFCURVE",
"266 230 OFFCURVE",
"200 188 CURVE",
"59 101 OFFCURVE",
"24 28 OFFCURVE",
"24 27 CURVE",
"0 38 LINE",
"2 41 OFFCURVE",
"37 119 OFFCURVE",
"184 212 CURVE",
"247 251 OFFCURVE",
"347 300 OFFCURVE",
"391 320 CURVE SMOOTH"
);
},
{
closed = 1;
nodes = (
"497 47 OFFCURVE",
"447 0 OFFCURVE",
"369 0 CURVE SMOOTH",
"291 0 OFFCURVE",
"233 51 OFFCURVE",
"233 119 CURVE SMOOTH",
"233 202 OFFCURVE",
"293 250 OFFCURVE",
"350 288 CURVE",
"385 288 LINE",
"327 245 OFFCURVE",
"261 193 OFFCURVE",
"261 120 CURVE SMOOTH",
"261 71 OFFCURVE",
"301 29 OFFCURVE",
"369 29 CURVE SMOOTH",
"454 29 OFFCURVE",
"469 82 OFFCURVE",
"469 104 CURVE SMOOTH",
"469 147 OFFCURVE",
"392 147 OFFCURVE",
"392 202 CURVE SMOOTH",
"392 231 OFFCURVE",
"425 272 OFFCURVE",
"509 272 CURVE SMOOTH",
"595 272 OFFCURVE",
"615 233 OFFCURVE",
"615 202 CURVE SMOOTH",
"615 162 OFFCURVE",
"554 135 OFFCURVE",
"554 92 CURVE SMOOTH",
"554 62 OFFCURVE",
"587 27 OFFCURVE",
"662 27 CURVE SMOOTH",
"718 27 OFFCURVE",
"784 65 OFFCURVE",
"784 136 CURVE SMOOTH",
"784 208 OFFCURVE",
"716 234 OFFCURVE",
"642 279 CURVE",
"571 322 OFFCURVE",
"486 338 OFFCURVE",
"485 433 CURVE SMOOTH",
"484 508 OFFCURVE",
"546 568 OFFCURVE",
"647 568 CURVE SMOOTH",
"743 568 OFFCURVE",
"846 497 OFFCURVE",
"846 399 CURVE SMOOTH",
"846 306 OFFCURVE",
"783 286 OFFCURVE",
"755 286 CURVE SMOOTH",
"693 286 OFFCURVE",
"652 338 OFFCURVE",
"652 395 CURVE SMOOTH",
"652 550 OFFCURVE",
"844 595 OFFCURVE",
"975 595 CURVE SMOOTH",
"1022 595 OFFCURVE",
"1055 590 OFFCURVE",
"1057 590 CURVE",
"1054 564 LINE",
"1053 564 OFFCURVE",
"1025 568 OFFCURVE",
"974 568 CURVE SMOOTH",
"860 568 OFFCURVE",
"680 529 OFFCURVE",
"680 396 CURVE SMOOTH",
"680 350 OFFCURVE",
"708 314 OFFCURVE",
"755 314 CURVE SMOOTH",
"804 314 OFFCURVE",
"820 366 OFFCURVE",
"820 391 CURVE SMOOTH",
"820 482 OFFCURVE",
"719 541 OFFCURVE",
"650 541 CURVE SMOOTH",
"589 541 OFFCURVE",
"514 507 OFFCURVE",
"514 433 CURVE SMOOTH",
"514 354 OFFCURVE",
"590 343 OFFCURVE",
"657 302 CURVE",
"733 256 OFFCURVE",
"812 223 OFFCURVE",
"812 136 CURVE SMOOTH",
"812 54 OFFCURVE",
"736 0 OFFCURVE",
"662 0 CURVE SMOOTH",
"578 0 OFFCURVE",
"526 42 OFFCURVE",
"526 91 CURVE SMOOTH",
"526 152 OFFCURVE",
"587 171 OFFCURVE",
"587 202 CURVE SMOOTH",
"587 233 OFFCURVE",
"547 245 OFFCURVE",
"509 245 CURVE SMOOTH",
"473 245 OFFCURVE",
"420 229 OFFCURVE",
"420 202 CURVE SMOOTH",
"420 163 OFFCURVE",
"497 158 OFFCURVE",
"497 104 CURVE SMOOTH"
);
}
);
width = 897;
}
);
unicode = 0D9D;
},
{
color = 4;
glyphname = snNGA;
lastChange = "2022-07-23 16:24:18 +0000";
layers = (
{
layerId = "25BA55F5-DD3E-4682-A696-ADF7D9496427";
name = Light;
paths = (
{
closed = 1;
nodes = (
"501 479 OFFCURVE",
"441 430 OFFCURVE",
"441 364 CURVE SMOOTH",
"441 328 OFFCURVE",
"463 308 OFFCURVE",
"480 308 CURVE SMOOTH",
"499 308 OFFCURVE",
"513 321 OFFCURVE",
"513 349 CURVE SMOOTH",
"513 378 OFFCURVE",
"481 425 OFFCURVE",
"435 425 CURVE SMOOTH",
"364 425 OFFCURVE",
"318 369 OFFCURVE",
"308 294 CURVE",
"278 298 LINE",
"290 381 OFFCURVE",
"346 453 OFFCURVE",
"432 453 CURVE SMOOTH",
"494 453 OFFCURVE",
"541 398 OFFCURVE",
"541 349 CURVE SMOOTH",
"541 306 OFFCURVE",
"517 281 OFFCURVE",
"480 281 CURVE SMOOTH",
"441 281 OFFCURVE",
"413 311 OFFCURVE",
"413 364 CURVE SMOOTH",
"413 452 OFFCURVE",
"488 507 OFFCURVE",
"559 507 CURVE SMOOTH",
"629 507 OFFCURVE",
"674 460 OFFCURVE",
"674 395 CURVE SMOOTH",
"674 338 OFFCURVE",
"639 286 OFFCURVE",
"536 245 CURVE SMOOTH",
"441 207 OFFCURVE",
"335 171 OFFCURVE",
"335 90 CURVE SMOOTH",
"335 48 OFFCURVE",
"380 28 OFFCURVE",
"419 28 CURVE SMOOTH",
"512 28 OFFCURVE",
"563 96 OFFCURVE",
"588 214 CURVE",
"613 213 LINE",
"606 100 OFFCURVE",
"651 28 OFFCURVE",
"751 28 CURVE SMOOTH",
"864 28 OFFCURVE",
"913 144 OFFCURVE",
"913 291 CURVE SMOOTH",
"913 433 OFFCURVE",
"831 674 OFFCURVE",
"549 674 CURVE SMOOTH",
"292 674 OFFCURVE",
"70 476 OFFCURVE",
"70 0 CURVE",
"40 0 LINE",
"40 497 OFFCURVE",
"280 703 OFFCURVE",
"549 703 CURVE SMOOTH",
"857 703 OFFCURVE",
"943 445 OFFCURVE",
"943 291 CURVE SMOOTH",
"943 132 OFFCURVE",
"886 0 OFFCURVE",
"751 0 CURVE SMOOTH",
"672 0 OFFCURVE",
"609 38 OFFCURVE",
"588 120 CURVE",
"549 42 OFFCURVE",
"499 0 OFFCURVE",
"419 0 CURVE SMOOTH",
"354 0 OFFCURVE",
"307 39 OFFCURVE",
"307 93 CURVE SMOOTH",
"307 191 OFFCURVE",
"423 226 OFFCURVE",
"519 266 CURVE SMOOTH",
"591 296 OFFCURVE",
"647 333 OFFCURVE",
"647 395 CURVE SMOOTH",
"647 430 OFFCURVE",
"624 479 OFFCURVE",
"559 479 CURVE SMOOTH"
);
}
);
width = 983;
}
);
unicode = 0D9E;
},
{
color = 4;
glyphname = snNNGA;
lastChange = "2022-07-23 16:24:18 +0000";
layers = (
{
layerId = "25BA55F5-DD3E-4682-A696-ADF7D9496427";
name = Light;
paths = (
{
closed = 1;
nodes = (
"298 0 OFFCURVE",
"195 79 OFFCURVE",
"195 194 CURVE SMOOTH",
"195 353 OFFCURVE",
"319 457 OFFCURVE",
"456 494 CURVE",
"453 483 LINE",
"216 481 OFFCURVE",
"70 383 OFFCURVE",
"70 174 CURVE SMOOTH",
"70 125 OFFCURVE",
"78 79 OFFCURVE",
"105 11 CURVE",
"76 1 LINE",
"50 65 OFFCURVE",
"40 121 OFFCURVE",
"40 169 CURVE SMOOTH",
"40 385 OFFCURVE",
"176 507 OFFCURVE",
"428 507 CURVE SMOOTH",
"506 507 LINE",
"506 481 LINE",
"347 450 OFFCURVE",
"225 344 OFFCURVE",
"225 194 CURVE SMOOTH",
"225 94 OFFCURVE",
"311 27 OFFCURVE",
"403 27 CURVE SMOOTH",
"468 27 OFFCURVE",
"562 66 OFFCURVE",
"562 154 CURVE SMOOTH",
"562 197 OFFCURVE",
"533 249 OFFCURVE",
"470 249 CURVE SMOOTH",
"423 249 OFFCURVE",
"413 220 OFFCURVE",
"407 211 CURVE",
"382 224 LINE",
"489 447 OFFCURVE",
"641 517 OFFCURVE",
"869 517 CURVE SMOOTH",
"900 517 OFFCURVE",
"921 516 OFFCURVE",
"925 516 CURVE",
"924 488 LINE",
"834 488 OFFCURVE",
"766 437 OFFCURVE",
"766 353 CURVE SMOOTH",
"766 258 OFFCURVE",
"803 128 OFFCURVE",
"803 50 CURVE SMOOTH",
"803 -166 OFFCURVE",
"688 -264 OFFCURVE",
"470 -281 CURVE",
"469 -253 LINE",
"676 -240 OFFCURVE",
"777 -152 OFFCURVE",
"777 48 CURVE SMOOTH",
"777 112 OFFCURVE",
"738 288 OFFCURVE",
"738 352 CURVE SMOOTH",
"738 420 OFFCURVE",
"779 476 OFFCURVE",
"851 503 CURVE",
"841 489 LINE",
"637 489 OFFCURVE",
"511 404 OFFCURVE",
"429 260 CURVE",
"444 273 OFFCURVE",
"470 276 OFFCURVE",
"478 276 CURVE SMOOTH",
"546 276 OFFCURVE",
"589 211 OFFCURVE",
"589 154 CURVE SMOOTH",
"589 41 OFFCURVE",
"480 0 OFFCURVE",
"397 0 CURVE SMOOTH"
);
}
);
width = 905;
}
);
unicode = 0D9F;
},
{
color = 4;
glyphname = snCA;
lastChange = "2022-07-23 16:24:18 +0000";
layers = (
{
components = (
{
name = snVA;
}
);
layerId = "25BA55F5-DD3E-4682-A696-ADF7D9496427";
name = Light;
paths = (
{
closed = 1;
nodes = (
"589 243 LINE",
"419 142 OFFCURVE",
"331 97 OFFCURVE",
"308 -54 CURVE",
"279 -52 LINE",
"305 125 OFFCURVE",
"423 176 OFFCURVE",
"582 265 CURVE"
);
}
);
width = 1049;
}
);
unicode = 0DA0;
},
{
color = 4;
glyphname = snCHA;
lastChange = "2022-07-23 16:24:18 +0000";
layers = (
{
layerId = "25BA55F5-DD3E-4682-A696-ADF7D9496427";
name = Light;
paths = (
{
closed = 1;
nodes = (
"534 680 OFFCURVE",
"600 845 OFFCURVE",
"735 996 CURVE",
"756 978 LINE",
"633 840 OFFCURVE",
"562 687 OFFCURVE",
"543 542 CURVE SMOOTH",
"514 323 LINE SMOOTH",
"504 249 OFFCURVE",
"471 178 OFFCURVE",
"398 178 CURVE SMOOTH",
"366 178 OFFCURVE",
"315 194 OFFCURVE",
"315 248 CURVE SMOOTH",
"315 301 OFFCURVE",
"357 327 OFFCURVE",
"436 351 CURVE SMOOTH",
"468 361 OFFCURVE",
"506 369 OFFCURVE",
"539 379 CURVE SMOOTH",
"586 392 OFFCURVE",
"624 408 OFFCURVE",
"624 448 CURVE SMOOTH",
"624 479 OFFCURVE",
"587 511 OFFCURVE",
"524 511 CURVE SMOOTH",
"464 511 OFFCURVE",
"435 477 OFFCURVE",
"435 447 CURVE SMOOTH",
"435 407 OFFCURVE",
"482 387 OFFCURVE",
"550 361 CURVE SMOOTH",
"620 335 OFFCURVE",
"698 313 OFFCURVE",
"698 195 CURVE SMOOTH",
"698 58 OFFCURVE",
"550 0 OFFCURVE",
"415 0 CURVE SMOOTH",
"250 0 OFFCURVE",
"143 71 OFFCURVE",
"143 162 CURVE SMOOTH",
"143 245 OFFCURVE",
"207 283 OFFCURVE",
"273 314 CURVE",
"332 342 OFFCURVE",
"370 372 OFFCURVE",
"370 412 CURVE SMOOTH",
"370 452 OFFCURVE",
"326 481 OFFCURVE",
"284 481 CURVE SMOOTH",
"233 481 OFFCURVE",
"180 450 OFFCURVE",
"180 391 CURVE SMOOTH",
"180 368 OFFCURVE",
"193 352 OFFCURVE",
"213 352 CURVE SMOOTH",
"239 352 OFFCURVE",
"248 377 OFFCURVE",
"248 394 CURVE SMOOTH",
"248 453 OFFCURVE",
"183 463 OFFCURVE",
"154 463 CURVE SMOOTH",
"78 463 OFFCURVE",
"47 413 OFFCURVE",
"47 369 CURVE SMOOTH",
"47 349 OFFCURVE",
"57 330 OFFCURVE",
"57 330 CURVE",
"32 318 LINE",
"31 319 OFFCURVE",
"20 340 OFFCURVE",
"20 369 CURVE SMOOTH",
"20 424 OFFCURVE",
"57 490 OFFCURVE",
"154 490 CURVE SMOOTH",
"204 490 OFFCURVE",
"277 469 OFFCURVE",
"277 399 CURVE SMOOTH",
"277 358 OFFCURVE",
"257 324 OFFCURVE",
"213 324 CURVE SMOOTH",
"187 324 OFFCURVE",
"153 344 OFFCURVE",
"153 390 CURVE SMOOTH",
"153 462 OFFCURVE",
"210 508 OFFCURVE",
"280 508 CURVE SMOOTH",
"338 508 OFFCURVE",
"398 472 OFFCURVE",
"398 417 CURVE SMOOTH",
"398 356 OFFCURVE",
"345 319 OFFCURVE",
"285 290 CURVE",
"220 257 OFFCURVE",
"170 230 OFFCURVE",
"170 164 CURVE SMOOTH",
"170 90 OFFCURVE",
"268 27 OFFCURVE",
"414 27 CURVE SMOOTH",
"525 27 OFFCURVE",
"670 78 OFFCURVE",
"670 193 CURVE SMOOTH",
"670 281 OFFCURVE",
"628 301 OFFCURVE",
"542 334 CURVE SMOOTH",
"496 352 OFFCURVE",
"407 375 OFFCURVE",
"407 446 CURVE SMOOTH",
"407 493 OFFCURVE",
"449 539 OFFCURVE",
"533 539 CURVE SMOOTH",
"590 539 OFFCURVE",
"652 503 OFFCURVE",
"652 448 CURVE SMOOTH",
"652 394 OFFCURVE",
"609 367 OFFCURVE",
"543 352 CURVE SMOOTH",
"526 348 OFFCURVE",
"465 335 OFFCURVE",
"445 328 CURVE SMOOTH",
"407 314 OFFCURVE",
"343 301 OFFCURVE",
"343 252 CURVE SMOOTH",
"343 209 OFFCURVE",
"385 205 OFFCURVE",
"399 205 CURVE SMOOTH",
"448 205 OFFCURVE",
"480 253 OFFCURVE",
"489 326 CURVE SMOOTH",
"515 532 LINE SMOOTH"
);
}
);
width = 786;
}
);
unicode = 0DA1;
},
{
color = 4;
glyphname = snJA;
lastChange = "2022-07-23 16:24:18 +0000";
layers = (
{
layerId = "25BA55F5-DD3E-4682-A696-ADF7D9496427";
name = Light;
paths = (
{
closed = 1;
nodes = (
"702 558 OFFCURVE",
"702 485 CURVE SMOOTH",
"702 447 OFFCURVE",
"673 400 OFFCURVE",
"620 400 CURVE SMOOTH",
"576 400 OFFCURVE",
"515 432 OFFCURVE",
"515 532 CURVE SMOOTH",
"515 681 OFFCURVE",
"600 845 OFFCURVE",
"735 996 CURVE",
"756 978 LINE",
"633 840 OFFCURVE",
"543 676 OFFCURVE",
"543 530 CURVE SMOOTH",
"543 453 OFFCURVE",
"592 427 OFFCURVE",
"621 427 CURVE SMOOTH",
"655 427 OFFCURVE",
"674 452 OFFCURVE",
"674 485 CURVE SMOOTH",
"674 538 OFFCURVE",
"626 593 OFFCURVE",
"544 593 CURVE SMOOTH",
"474 593 OFFCURVE",
"425 547 OFFCURVE",
"425 487 CURVE SMOOTH",
"425 437 OFFCURVE",
"472 407 OFFCURVE",
"534 384 CURVE SMOOTH",
"610 355 OFFCURVE",
"708 313 OFFCURVE",
"708 215 CURVE SMOOTH",
"708 58 OFFCURVE",
"550 0 OFFCURVE",
"415 0 CURVE SMOOTH",
"250 0 OFFCURVE",
"143 71 OFFCURVE",
"143 162 CURVE SMOOTH",
"143 245 OFFCURVE",
"207 283 OFFCURVE",
"273 314 CURVE",
"332 342 OFFCURVE",
"370 372 OFFCURVE",
"370 412 CURVE SMOOTH",
"370 452 OFFCURVE",
"326 481 OFFCURVE",
"284 481 CURVE SMOOTH",
"233 481 OFFCURVE",
"180 450 OFFCURVE",
"180 391 CURVE SMOOTH",
"180 368 OFFCURVE",
"193 352 OFFCURVE",
"213 352 CURVE SMOOTH",
"239 352 OFFCURVE",
"248 377 OFFCURVE",
"248 394 CURVE SMOOTH",
"248 453 OFFCURVE",
"183 463 OFFCURVE",
"154 463 CURVE SMOOTH",
"78 463 OFFCURVE",
"47 413 OFFCURVE",
"47 369 CURVE SMOOTH",
"47 349 OFFCURVE",
"57 330 OFFCURVE",
"57 330 CURVE",
"32 318 LINE",
"31 319 OFFCURVE",
"20 340 OFFCURVE",
"20 369 CURVE SMOOTH",
"20 424 OFFCURVE",
"57 490 OFFCURVE",
"154 490 CURVE SMOOTH",
"204 490 OFFCURVE",
"277 469 OFFCURVE",
"277 399 CURVE SMOOTH",
"277 358 OFFCURVE",
"257 324 OFFCURVE",
"213 324 CURVE SMOOTH",
"187 324 OFFCURVE",
"153 344 OFFCURVE",
"153 390 CURVE SMOOTH",
"153 462 OFFCURVE",
"210 508 OFFCURVE",
"280 508 CURVE SMOOTH",
"338 508 OFFCURVE",
"398 472 OFFCURVE",
"398 417 CURVE SMOOTH",
"398 356 OFFCURVE",
"345 319 OFFCURVE",
"285 290 CURVE",
"220 257 OFFCURVE",
"170 230 OFFCURVE",
"170 164 CURVE SMOOTH",
"170 90 OFFCURVE",
"268 27 OFFCURVE",
"414 27 CURVE SMOOTH",
"525 27 OFFCURVE",
"680 78 OFFCURVE",
"680 213 CURVE SMOOTH",
"680 281 OFFCURVE",
"618 321 OFFCURVE",
"526 357 CURVE SMOOTH",
"486 372 OFFCURVE",
"397 405 OFFCURVE",
"397 486 CURVE SMOOTH",
"397 567 OFFCURVE",
"459 621 OFFCURVE",
"549 621 CURVE SMOOTH",
"633 621 OFFCURVE"
);
}
);
width = 786;
}
);
unicode = 0DA2;
},
{
color = 4;
glyphname = snJHA;
lastChange = "2022-07-23 16:24:18 +0000";
layers = (
{
layerId = "25BA55F5-DD3E-4682-A696-ADF7D9496427";
name = Light;
paths = (
{
closed = 1;
nodes = (
"861 446 OFFCURVE",
"789 463 OFFCURVE",
"735 463 CURVE SMOOTH",
"595 463 OFFCURVE",
"480 387 OFFCURVE",
"415 340 CURVE SMOOTH",
"328 277 OFFCURVE",
"231 175 OFFCURVE",
"184 103 CURVE",
"210 115 LINE",
"218 91 OFFCURVE",
"250 27 OFFCURVE",
"315 27 CURVE SMOOTH",
"367 27 OFFCURVE",
"381 80 OFFCURVE",
"381 111 CURVE",
"407 111 LINE",
"407 59 OFFCURVE",
"442 27 OFFCURVE",
"490 27 CURVE SMOOTH",
"549 27 OFFCURVE",
"581 84 OFFCURVE",
"581 141 CURVE SMOOTH",
"581 156 OFFCURVE",
"581 263 OFFCURVE",
"468 263 CURVE SMOOTH",
"424 263 OFFCURVE",
"390 244 OFFCURVE",
"349 201 CURVE SMOOTH",
"317 167 LINE",
"300 183 LINE",
"334 219 LINE SMOOTH",
"380 267 OFFCURVE",
"404 315 OFFCURVE",
"404 368 CURVE SMOOTH",
"404 449 OFFCURVE",
"361 478 OFFCURVE",
"319 478 CURVE SMOOTH",
"267 478 OFFCURVE",
"213 440 OFFCURVE",
"213 360 CURVE SMOOTH",
"213 320 OFFCURVE",
"230 297 OFFCURVE",
"253 297 CURVE SMOOTH",
"273 297 OFFCURVE",
"280 315 OFFCURVE",
"280 338 CURVE SMOOTH",
"280 405 OFFCURVE",
"197 424 OFFCURVE",
"154 424 CURVE SMOOTH",
"138 424 OFFCURVE",
"122 421 OFFCURVE",
"106 415 CURVE",
"40 391 OFFCURVE",
"23 338 OFFCURVE",
"23 335 CURVE",
"0 343 LINE",
"0 346 OFFCURVE",
"18 410 OFFCURVE",
"99 439 CURVE",
"117 446 OFFCURVE",
"138 449 OFFCURVE",
"158 449 CURVE SMOOTH",
"227 449 OFFCURVE",
"306 416 OFFCURVE",
"306 338 CURVE SMOOTH",
"306 299 OFFCURVE",
"287 270 OFFCURVE",
"252 270 CURVE SMOOTH",
"221 270 OFFCURVE",
"185 303 OFFCURVE",
"185 359 CURVE SMOOTH",
"185 453 OFFCURVE",
"249 504 OFFCURVE",
"320 504 CURVE SMOOTH",
"384 504 OFFCURVE",
"430 462 OFFCURVE",
"430 366 CURVE SMOOTH",
"430 344 OFFCURVE",
"424 313 OFFCURVE",
"403 272 CURVE",
"419 281 OFFCURVE",
"440 291 OFFCURVE",
"468 290 CURVE SMOOTH",
"578 285 OFFCURVE",
"607 203 OFFCURVE",
"607 148 CURVE SMOOTH",
"607 84 OFFCURVE",
"575 0 OFFCURVE",
"490 0 CURVE SMOOTH",
"442 0 OFFCURVE",
"411 22 OFFCURVE",
"394 55 CURVE",
"384 27 OFFCURVE",
"359 0 OFFCURVE",
"315 0 CURVE SMOOTH",
"242 0 OFFCURVE",
"208 62 OFFCURVE",
"197 83 CURVE",
"172 71 LINE",
"147 92 LINE",
"230 222 OFFCURVE",
"333 315 OFFCURVE",
"415 372 CURVE SMOOTH",
"477 415 OFFCURVE",
"593 490 OFFCURVE",
"734 490 CURVE SMOOTH",
"796 490 OFFCURVE",
"877 474 OFFCURVE",
"942 417 CURVE",
"918 395 LINE"
);
},
{
closed = 1;
nodes = (
"522 563 LINE",
"613 659 OFFCURVE",
"731 703 OFFCURVE",
"855 703 CURVE SMOOTH",
"1163 703 OFFCURVE",
"1249 445 OFFCURVE",
"1249 291 CURVE SMOOTH",
"1249 132 OFFCURVE",
"1192 0 OFFCURVE",
"1057 0 CURVE SMOOTH",
"978 0 OFFCURVE",
"915 38 OFFCURVE",
"894 120 CURVE",
"855 42 OFFCURVE",
"805 0 OFFCURVE",
"725 0 CURVE SMOOTH",
"660 0 OFFCURVE",
"582 47 OFFCURVE",
"582 156 CURVE SMOOTH",
"582 311 OFFCURVE",
"664 451 OFFCURVE",
"942 417 CURVE",
"938 389 LINE",
"673 420 OFFCURVE",
"610 289 OFFCURVE",
"610 161 CURVE SMOOTH",
"610 54 OFFCURVE",
"686 27 OFFCURVE",
"725 27 CURVE SMOOTH",
"818 27 OFFCURVE",
"869 96 OFFCURVE",
"894 214 CURVE",
"919 213 LINE",
"912 100 OFFCURVE",
"957 27 OFFCURVE",
"1057 27 CURVE SMOOTH",
"1170 27 OFFCURVE",
"1219 144 OFFCURVE",
"1219 291 CURVE SMOOTH",
"1219 433 OFFCURVE",
"1137 674 OFFCURVE",
"855 674 CURVE SMOOTH",
"738 674 OFFCURVE",
"627 633 OFFCURVE",
"543 542 CURVE"
);
}
);
width = 1289;
}
);
unicode = 0DA3;
},
{
color = 4;
glyphname = snNYA;
lastChange = "2022-07-23 16:24:18 +0000";
layers = (
{
components = (
{
name = snDA;
transform = "{1, 0, 0, 1, 620, 0}";
}
);
layerId = "25BA55F5-DD3E-4682-A696-ADF7D9496427";
name = Light;
paths = (
{
closed = 1;
nodes = (
"165 424 OFFCURVE",
"74 370 OFFCURVE",
"67 205 CURVE SMOOTH",
"66 167 OFFCURVE",
"76 83 OFFCURVE",
"125 15 CURVE",
"99 1 LINE",
"54 66 OFFCURVE",
"38 142 OFFCURVE",
"40 206 CURVE SMOOTH",
"46 382 OFFCURVE",
"146 451 OFFCURVE",
"239 451 CURVE SMOOTH",
"310 451 OFFCURVE",
"377 416 OFFCURVE",
"377 338 CURVE SMOOTH",
"377 299 OFFCURVE",
"358 270 OFFCURVE",
"323 270 CURVE SMOOTH",
"292 270 OFFCURVE",
"256 303 OFFCURVE",
"256 359 CURVE SMOOTH",
"256 453 OFFCURVE",
"320 504 OFFCURVE",
"391 504 CURVE SMOOTH",
"455 504 OFFCURVE",
"501 462 OFFCURVE",
"501 366 CURVE SMOOTH",
"501 344 OFFCURVE",
"495 313 OFFCURVE",
"474 272 CURVE",
"490 281 OFFCURVE",
"511 291 OFFCURVE",
"539 290 CURVE SMOOTH",
"649 285 OFFCURVE",
"678 203 OFFCURVE",
"678 148 CURVE SMOOTH",
"678 84 OFFCURVE",
"646 0 OFFCURVE",
"561 0 CURVE SMOOTH",
"513 0 OFFCURVE",
"482 22 OFFCURVE",
"465 55 CURVE",
"455 27 OFFCURVE",
"430 0 OFFCURVE",
"386 0 CURVE SMOOTH",
"313 0 OFFCURVE",
"279 52 OFFCURVE",
"268 73 CURVE",
"243 61 LINE",
"222 84 LINE",
"288 197 OFFCURVE",
"408 329 OFFCURVE",
"487 403 CURVE",
"488 401 LINE",
"551 454 OFFCURVE",
"658 509 OFFCURVE",
"765 509 CURVE",
"765 490 LINE",
"678 490 OFFCURVE",
"558 433 OFFCURVE",
"491 374 CURVE",
"487 368 LINE",
"404 286 OFFCURVE",
"310 179 OFFCURVE",
"258 93 CURVE",
"281 105 LINE",
"289 81 OFFCURVE",
"321 27 OFFCURVE",
"386 27 CURVE SMOOTH",
"438 27 OFFCURVE",
"452 80 OFFCURVE",
"452 111 CURVE",
"478 111 LINE",
"478 59 OFFCURVE",
"513 27 OFFCURVE",
"561 27 CURVE SMOOTH",
"620 27 OFFCURVE",
"652 84 OFFCURVE",
"652 141 CURVE SMOOTH",
"652 156 OFFCURVE",
"652 263 OFFCURVE",
"539 263 CURVE SMOOTH",
"495 263 OFFCURVE",
"461 244 OFFCURVE",
"420 201 CURVE SMOOTH",
"388 167 LINE",
"371 183 LINE",
"405 219 LINE SMOOTH",
"451 267 OFFCURVE",
"475 315 OFFCURVE",
"475 368 CURVE SMOOTH",
"475 449 OFFCURVE",
"432 478 OFFCURVE",
"390 478 CURVE SMOOTH",
"338 478 OFFCURVE",
"284 440 OFFCURVE",
"284 360 CURVE SMOOTH",
"284 320 OFFCURVE",
"301 297 OFFCURVE",
"324 297 CURVE SMOOTH",
"344 297 OFFCURVE",
"351 315 OFFCURVE",
"351 338 CURVE SMOOTH",
"351 405 OFFCURVE",
"292 424 OFFCURVE",
"235 424 CURVE SMOOTH"
);
}
);
width = 1142;
}
);
unicode = 0DA4;
},
{
color = 4;
glyphname = snJNYA;
lastChange = "2022-07-23 16:24:18 +0000";
layers = (
{
components = (
{
name = snDA;
transform = "{1, 0, 0, 1, 582, 0}";
}
);
layerId = "25BA55F5-DD3E-4682-A696-ADF7D9496427";
name = Light;
paths = (
{
closed = 1;
nodes = (
"347 450 OFFCURVE",
"225 344 OFFCURVE",
"225 209 CURVE SMOOTH",
"225 84 OFFCURVE",
"319 27 OFFCURVE",
"411 27 CURVE SMOOTH",
"476 27 OFFCURVE",
"564 66 OFFCURVE",
"564 154 CURVE SMOOTH",
"564 197 OFFCURVE",
"535 249 OFFCURVE",
"472 249 CURVE SMOOTH",
"425 249 OFFCURVE",
"415 220 OFFCURVE",
"409 211 CURVE",
"384 224 LINE",
"453 395 OFFCURVE",
"549 489 OFFCURVE",
"703 507 CURVE",
"703 484 LINE",
"572 460 OFFCURVE",
"487 378 OFFCURVE",
"431 260 CURVE",
"446 273 OFFCURVE",
"472 276 OFFCURVE",
"480 276 CURVE SMOOTH",
"556 276 OFFCURVE",
"591 211 OFFCURVE",
"591 154 CURVE SMOOTH",
"591 41 OFFCURVE",
"488 0 OFFCURVE",
"405 0 CURVE SMOOTH",
"306 0 OFFCURVE",
"195 69 OFFCURVE",
"195 209 CURVE SMOOTH",
"195 353 OFFCURVE",
"319 457 OFFCURVE",
"456 494 CURVE",
"453 483 LINE",
"216 481 OFFCURVE",
"70 383 OFFCURVE",
"70 174 CURVE SMOOTH",
"70 125 OFFCURVE",
"78 79 OFFCURVE",
"105 11 CURVE",
"76 1 LINE",
"50 65 OFFCURVE",
"40 121 OFFCURVE",
"40 169 CURVE SMOOTH",
"40 385 OFFCURVE",
"176 507 OFFCURVE",
"428 507 CURVE SMOOTH",
"506 507 LINE",
"506 481 LINE"
);
}
);
width = 1104;
}
);
unicode = 0DA5;
},
{
color = 4;
glyphname = snNYJA;
lastChange = "2022-07-23 16:24:18 +0000";
layers = (
{
components = (
{
name = snJA;
transform = "{1, 0, 0, 1, 98, 0}";
}
);
layerId = "25BA55F5-DD3E-4682-A696-ADF7D9496427";
name = Light;
paths = (
{
closed = 1;
nodes = (
"257 467 LINE",
"151 467 OFFCURVE",
"47 358 OFFCURVE",
"47 225 CURVE SMOOTH",
"47 160 OFFCURVE",
"74 88 OFFCURVE",
"134 20 CURVE",
"110 1 LINE",
"46 76 OFFCURVE",
"20 154 OFFCURVE",
"20 226 CURVE SMOOTH",
"20 372 OFFCURVE",
"130 490 OFFCURVE",
"252 490 CURVE"
);
}
);
width = 884;
}
);
unicode = 0DA6;
},
{
color = 4;
glyphname = snTTA;
lastChange = "2022-07-23 16:24:18 +0000";
layers = (
{
layerId = "25BA55F5-DD3E-4682-A696-ADF7D9496427";
name = Light;
paths = (
{
closed = 1;
nodes = (
"324 82 OFFCURVE",
"459 27 OFFCURVE",
"579 27 CURVE SMOOTH",
"755 27 OFFCURVE",
"880 170 OFFCURVE",
"880 347 CURVE SMOOTH",
"880 499 OFFCURVE",
"754 673 OFFCURVE",
"558 673 CURVE SMOOTH",
"235 673 OFFCURVE",
"47 388 OFFCURVE",
"47 0 CURVE",
"20 0 LINE",
"20 405 OFFCURVE",
"223 702 OFFCURVE",
"553 702 CURVE SMOOTH",
"759 702 OFFCURVE",
"908 533 OFFCURVE",
"908 348 CURVE SMOOTH",
"908 157 OFFCURVE",
"778 -1 OFFCURVE",
"579 -1 CURVE SMOOTH",
"431 -1 OFFCURVE",
"294 72 OFFCURVE",
"295 210 CURVE SMOOTH",
"296 360 OFFCURVE",
"451 477 OFFCURVE",
"679 423 CURVE",
"673 395 LINE",
"458 446 OFFCURVE",
"324 338 OFFCURVE",
"324 210 CURVE SMOOTH"
);
}
);
width = 948;
}
);
unicode = 0DA7;
},
{
color = 4;
glyphname = snTTHA;
lastChange = "2022-07-23 16:24:18 +0000";
layers = (
{
layerId = "25BA55F5-DD3E-4682-A696-ADF7D9496427";
name = Light;
paths = (
{
closed = 1;
nodes = (
"630 491 LINE",
"588 428 OFFCURVE",
"519 380 OFFCURVE",
"448 380 CURVE SMOOTH",
"364 380 OFFCURVE",
"288 435 OFFCURVE",
"288 531 CURVE SMOOTH",
"288 630 OFFCURVE",
"364 705 OFFCURVE",
"422 763 CURVE",
"441 744 LINE",
"380 683 OFFCURVE",
"314 616 OFFCURVE",
"314 531 CURVE SMOOTH",
"314 465 OFFCURVE",
"363 406 OFFCURVE",
"449 406 CURVE SMOOTH",
"504 406 OFFCURVE",
"560 444 OFFCURVE",
"608 507 CURVE"
);
},
{
closed = 1;
nodes = (
"653 397 OFFCURVE",
"531 468 OFFCURVE",
"418 537 CURVE SMOOTH",
"322 595 OFFCURVE",
"233 646 OFFCURVE",
"233 757 CURVE SMOOTH",
"233 786 OFFCURVE",
"245 825 OFFCURVE",
"268 845 CURVE",
"286 825 LINE",
"268 811 OFFCURVE",
"260 779 OFFCURVE",
"260 753 CURVE SMOOTH",
"260 665 OFFCURVE",
"342 615 OFFCURVE",
"434 560 CURVE SMOOTH",
"551 489 OFFCURVE",
"683 410 OFFCURVE",
"683 214 CURVE SMOOTH",
"683 121 OFFCURVE",
"630 0 OFFCURVE",
"495 0 CURVE SMOOTH",
"416 0 OFFCURVE",
"353 38 OFFCURVE",
"332 120 CURVE",
"293 42 OFFCURVE",
"243 0 OFFCURVE",
"163 0 CURVE SMOOTH",
"98 0 OFFCURVE",
"20 47 OFFCURVE",
"20 156 CURVE SMOOTH",
"20 277 OFFCURVE",
"90 389 OFFCURVE",
"254 416 CURVE",
"261 388 LINE",
"107 364 OFFCURVE",
"48 262 OFFCURVE",
"48 161 CURVE SMOOTH",
"48 54 OFFCURVE",
"124 27 OFFCURVE",
"163 27 CURVE SMOOTH",
"256 27 OFFCURVE",
"307 96 OFFCURVE",
"332 214 CURVE",
"357 213 LINE",
"350 100 OFFCURVE",
"395 27 OFFCURVE",
"495 27 CURVE SMOOTH",
"608 27 OFFCURVE",
"653 133 OFFCURVE",
"653 214 CURVE SMOOTH"
);
}
);
width = 723;
}
);
unicode = 0DA8;
},
{
color = 4;
glyphname = snDDA;
lastChange = "2022-07-23 16:24:18 +0000";
layers = (
{
layerId = "25BA55F5-DD3E-4682-A696-ADF7D9496427";
name = Light;
paths = (
{
closed = 1;
nodes = (
"421 430 OFFCURVE",
"421 364 CURVE SMOOTH",
"421 328 OFFCURVE",
"443 308 OFFCURVE",
"460 308 CURVE SMOOTH",
"479 308 OFFCURVE",
"493 321 OFFCURVE",
"493 349 CURVE SMOOTH",
"493 378 OFFCURVE",
"461 425 OFFCURVE",
"415 425 CURVE SMOOTH",
"344 425 OFFCURVE",
"298 369 OFFCURVE",
"288 294 CURVE",
"258 298 LINE",
"270 381 OFFCURVE",
"326 453 OFFCURVE",
"412 453 CURVE SMOOTH",
"474 453 OFFCURVE",
"521 398 OFFCURVE",
"521 349 CURVE SMOOTH",
"521 306 OFFCURVE",
"497 281 OFFCURVE",
"460 281 CURVE SMOOTH",
"421 281 OFFCURVE",
"393 311 OFFCURVE",
"393 364 CURVE SMOOTH",
"393 452 OFFCURVE",
"468 507 OFFCURVE",
"539 507 CURVE SMOOTH",
"609 507 OFFCURVE",
"654 460 OFFCURVE",
"654 395 CURVE SMOOTH",
"654 338 OFFCURVE",
"619 286 OFFCURVE",
"516 245 CURVE SMOOTH",
"421 207 OFFCURVE",
"315 171 OFFCURVE",
"315 90 CURVE SMOOTH",
"315 48 OFFCURVE",
"360 28 OFFCURVE",
"399 28 CURVE SMOOTH",
"492 28 OFFCURVE",
"543 96 OFFCURVE",
"568 214 CURVE",
"593 213 LINE",
"586 100 OFFCURVE",
"631 28 OFFCURVE",
"731 28 CURVE SMOOTH",
"844 28 OFFCURVE",
"893 144 OFFCURVE",
"893 291 CURVE SMOOTH",
"893 433 OFFCURVE",
"809 674 OFFCURVE",
"529 674 CURVE SMOOTH",
"272 674 OFFCURVE",
"50 476 OFFCURVE",
"50 0 CURVE",
"20 0 LINE",
"20 497 OFFCURVE",
"260 703 OFFCURVE",
"529 703 CURVE SMOOTH",
"835 703 OFFCURVE",
"923 445 OFFCURVE",
"923 291 CURVE SMOOTH",
"923 132 OFFCURVE",
"866 0 OFFCURVE",
"731 0 CURVE SMOOTH",
"652 0 OFFCURVE",
"589 38 OFFCURVE",
"568 120 CURVE",
"529 42 OFFCURVE",
"479 0 OFFCURVE",
"399 0 CURVE SMOOTH",
"334 0 OFFCURVE",
"287 39 OFFCURVE",
"287 93 CURVE SMOOTH",
"287 191 OFFCURVE",
"403 226 OFFCURVE",
"499 266 CURVE SMOOTH",
"571 296 OFFCURVE",
"627 333 OFFCURVE",
"627 395 CURVE SMOOTH",
"627 430 OFFCURVE",
"604 479 OFFCURVE",
"539 479 CURVE SMOOTH",
"481 479 OFFCURVE"
);
},
{
closed = 1;
nodes = (
"470 230 LINE",
"293 157 OFFCURVE",
"192 97 OFFCURVE",
"169 -54 CURVE",
"140 -52 LINE",
"166 125 OFFCURVE",
"280 177 OFFCURVE",
"464 252 CURVE"
);
}
);
width = 963;
}
);
unicode = 0DA9;
},
{
color = 4;
glyphname = snDDHA;
lastChange = "2022-07-23 16:24:18 +0000";
layers = (
{
layerId = "25BA55F5-DD3E-4682-A696-ADF7D9496427";
name = Light;
paths = (
{
closed = 1;
nodes = (
"840 491 LINE",
"798 428 OFFCURVE",
"729 380 OFFCURVE",
"658 380 CURVE SMOOTH",
"574 380 OFFCURVE",
"498 435 OFFCURVE",
"498 531 CURVE SMOOTH",
"498 630 OFFCURVE",
"574 705 OFFCURVE",
"632 763 CURVE",
"651 744 LINE",
"590 683 OFFCURVE",
"524 616 OFFCURVE",
"524 531 CURVE SMOOTH",
"524 465 OFFCURVE",
"573 406 OFFCURVE",
"659 406 CURVE SMOOTH",
"714 406 OFFCURVE",
"770 444 OFFCURVE",
"818 507 CURVE"
);
},
{
closed = 1;
nodes = (
"260 238 OFFCURVE",
"345 263 OFFCURVE",
"406 304 CURVE SMOOTH",
"438 326 OFFCURVE",
"481 345 OFFCURVE",
"481 406 CURVE SMOOTH",
"481 425 OFFCURVE",
"466 479 OFFCURVE",
"387 479 CURVE SMOOTH",
"348 479 OFFCURVE",
"340 469 OFFCURVE",
"324 460 CURVE",
"354 434 OFFCURVE",
"370 400 OFFCURVE",
"370 363 CURVE SMOOTH",
"370 302 OFFCURVE",
"334 282 OFFCURVE",
"302 282 CURVE SMOOTH",
"264 282 OFFCURVE",
"233 309 OFFCURVE",
"233 363 CURVE SMOOTH",
"233 388 OFFCURVE",
"240 428 OFFCURVE",
"273 459 CURVE",
"252 466 OFFCURVE",
"239 470 OFFCURVE",
"200 470 CURVE SMOOTH",
"108 470 OFFCURVE",
"47 401 OFFCURVE",
"47 316 CURVE SMOOTH",
"47 253 OFFCURVE",
"89 219 OFFCURVE",
"89 217 CURVE",
"68 198 LINE",
"66 200 OFFCURVE",
"20 240 OFFCURVE",
"20 316 CURVE SMOOTH",
"20 417 OFFCURVE",
"94 497 OFFCURVE",
"200 497 CURVE SMOOTH",
"249 497 OFFCURVE",
"266 490 OFFCURVE",
"296 476 CURVE",
"318 491 OFFCURVE",
"346 507 OFFCURVE",
"387 507 CURVE SMOOTH",
"471 507 OFFCURVE",
"508 444 OFFCURVE",
"508 406 CURVE SMOOTH",
"508 337 OFFCURVE",
"459 309 OFFCURVE",
"406 275 CURVE SMOOTH",
"357 243 OFFCURVE",
"287 224 OFFCURVE",
"287 126 CURVE SMOOTH",
"287 69 OFFCURVE",
"334 27 OFFCURVE",
"387 27 CURVE SMOOTH",
"466 27 OFFCURVE",
"517 96 OFFCURVE",
"542 214 CURVE",
"567 213 LINE",
"560 100 OFFCURVE",
"605 27 OFFCURVE",
"705 27 CURVE SMOOTH",
"818 27 OFFCURVE",
"863 133 OFFCURVE",
"863 214 CURVE SMOOTH",
"863 397 OFFCURVE",
"741 468 OFFCURVE",
"628 537 CURVE SMOOTH",
"532 595 OFFCURVE",
"443 646 OFFCURVE",
"443 757 CURVE SMOOTH",
"443 786 OFFCURVE",
"455 825 OFFCURVE",
"478 845 CURVE",
"496 825 LINE",
"478 811 OFFCURVE",
"470 779 OFFCURVE",
"470 753 CURVE SMOOTH",
"470 665 OFFCURVE",
"552 615 OFFCURVE",
"644 560 CURVE SMOOTH",
"761 489 OFFCURVE",
"893 410 OFFCURVE",
"893 214 CURVE SMOOTH",
"893 121 OFFCURVE",
"840 0 OFFCURVE",
"705 0 CURVE SMOOTH",
"626 0 OFFCURVE",
"563 38 OFFCURVE",
"542 120 CURVE",
"503 42 OFFCURVE",
"463 0 OFFCURVE",
"387 0 CURVE SMOOTH",
"308 0 OFFCURVE",
"260 59 OFFCURVE",
"260 126 CURVE SMOOTH"
);
},
{
closed = 1;
nodes = (
"268 421 OFFCURVE",
"261 386 OFFCURVE",
"261 363 CURVE SMOOTH",
"261 319 OFFCURVE",
"288 309 OFFCURVE",
"302 309 CURVE SMOOTH",
"326 309 OFFCURVE",
"342 326 OFFCURVE",
"342 363 CURVE SMOOTH",
"342 390 OFFCURVE",
"331 426 OFFCURVE",
"298 444 CURVE"
);
},
{
closed = 1;
nodes = (
"380 260 LINE",
"212 174 OFFCURVE",
"128 113 OFFCURVE",
"109 -52 CURVE",
"80 -50 LINE",
"106 147 OFFCURVE",
"222 211 OFFCURVE",
"406 304 CURVE"
);
}
);
width = 933;
}
);
unicode = 0DAA;
},
{
color = 4;
glyphname = snNNA;
lastChange = "2022-07-23 16:24:18 +0000";
layers = (
{
layerId = "25BA55F5-DD3E-4682-A696-ADF7D9496427";
name = Light;
paths = (
{
closed = 1;
nodes = (
"146 463 OFFCURVE",
"85 367 OFFCURVE",
"85 283 CURVE SMOOTH",
"85 212 OFFCURVE",
"123 166 OFFCURVE",
"180 152 CURVE",
"208 219 OFFCURVE",
"275 427 OFFCURVE",
"284 463 CURVE",
"281 463 OFFCURVE",
"281 463 OFFCURVE",
"278 463 CURVE"
);
},
{
closed = 1;
nodes = (
"217 145 OFFCURVE",
"222 145 OFFCURVE",
"230 145 CURVE SMOOTH",
"318 145 OFFCURVE",
"353 203 OFFCURVE",
"353 235 CURVE SMOOTH",
"353 276 OFFCURVE",
"311 281 OFFCURVE",
"305 281 CURVE SMOOTH",
"276 281 OFFCURVE",
"254 263 OFFCURVE",
"246 251 CURVE",
"232 217 OFFCURVE",
"222 184 OFFCURVE",
"208 146 CURVE"
);
},
{
closed = 1;
nodes = (
"186 87 OFFCURVE",
"171 57 OFFCURVE",
"159 26 CURVE",
"195 28 OFFCURVE",
"195 28 OFFCURVE",
"215 28 CURVE SMOOTH",
"417 28 OFFCURVE",
"487 137 OFFCURVE",
"487 240 CURVE SMOOTH",
"487 340 OFFCURVE",
"433 447 OFFCURVE",
"309 462 CURVE",
"294 407 OFFCURVE",
"272 336 OFFCURVE",
"257 292 CURVE",
"271 303 OFFCURVE",
"290 309 OFFCURVE",
"305 309 CURVE SMOOTH",
"342 309 OFFCURVE",
"382 281 OFFCURVE",
"382 235 CURVE SMOOTH",
"382 184 OFFCURVE",
"328 118 OFFCURVE",
"230 118 CURVE SMOOTH",
"218 118 OFFCURVE",
"206 118 OFFCURVE",
"198 120 CURVE"
);
},
{
closed = 1;
nodes = (
"44 -8 OFFCURVE",
"-58 -20 OFFCURVE",
"-74 -91 CURVE SMOOTH",
"-82 -125 OFFCURVE",
"-53 -140 OFFCURVE",
"-18 -140 CURVE SMOOTH",
"47 -140 OFFCURVE",
"92 -55 OFFCURVE",
"115 -3 CURVE"
);
},
{
closed = 1;
nodes = (
"-100 -145 OFFCURVE",
"-100 -102 CURVE SMOOTH",
"-100 -4 OFFCURVE",
"32 18 OFFCURVE",
"129 26 CURVE",
"145 57 OFFCURVE",
"157 91 OFFCURVE",
"172 124 CURVE",
"101 146 OFFCURVE",
"58 200 OFFCURVE",
"58 283 CURVE SMOOTH",
"58 414 OFFCURVE",
"165 489 OFFCURVE",
"290 489 CURVE",
"365 705 OFFCURVE",
"472 918 OFFCURVE",
"789 918 CURVE",
"789 892 LINE",
"538 892 OFFCURVE",
"415 764 OFFCURVE",
"318 487 CURVE",
"449 467 OFFCURVE",
"513 362 OFFCURVE",
"513 246 CURVE SMOOTH",
"513 103 OFFCURVE",
"417 0 OFFCURVE",
"215 0 CURVE SMOOTH",
"200 0 OFFCURVE",
"189 0 OFFCURVE",
"147 -1 CURVE",
"124 -45 OFFCURVE",
"71 -166 OFFCURVE",
"-17 -166 CURVE SMOOTH",
"-58 -166 OFFCURVE"
);
},
{
closed = 1;
nodes = (
"441 -276 OFFCURVE",
"325 -210 OFFCURVE",
"257 -99 CURVE",
"282 -84 LINE",
"344 -190 OFFCURVE",
"472 -249 OFFCURVE",
"588 -249 CURVE SMOOTH",
"762 -249 OFFCURVE",
"909 -91 OFFCURVE",
"909 136 CURVE SMOOTH",
"909 239 OFFCURVE",
"880 354 OFFCURVE",
"776 354 CURVE SMOOTH",
"674 354 OFFCURVE",
"604 242 OFFCURVE",
"604 242 CURVE",
"581 255 LINE",
"581 255 OFFCURVE",
"619 301 OFFCURVE",
"619 357 CURVE SMOOTH",
"619 386 OFFCURVE",
"602 417 OFFCURVE",
"567 417 CURVE SMOOTH",
"517 417 OFFCURVE",
"495 372 OFFCURVE",
"487 349 CURVE",
"469 366 LINE",
"475 384 OFFCURVE",
"501 442 OFFCURVE",
"567 442 CURVE SMOOTH",
"620 442 OFFCURVE",
"645 403 OFFCURVE",
"645 357 CURVE SMOOTH",
"645 348 OFFCURVE",
"643 330 OFFCURVE",
"636 315 CURVE",
"663 348 OFFCURVE",
"718 382 OFFCURVE",
"776 382 CURVE SMOOTH",
"893 382 OFFCURVE",
"936 260 OFFCURVE",
"936 141 CURVE SMOOTH",
"936 -114 OFFCURVE",
"778 -276 OFFCURVE",
"588 -276 CURVE SMOOTH"
);
}
);
width = 976;
}
);
unicode = 0DAB;
},
{
color = 4;
glyphname = snNNDDA;
lastChange = "2022-07-23 16:24:18 +0000";
layers = (
{
layerId = "25BA55F5-DD3E-4682-A696-ADF7D9496427";
name = Light;
paths = (
{
closed = 1;
nodes = (
"457 230 LINE",
"280 157 OFFCURVE",
"179 97 OFFCURVE",
"156 -54 CURVE",
"127 -52 LINE",
"153 125 OFFCURVE",
"267 177 OFFCURVE",
"451 252 CURVE"
);
},
{
closed = 1;
nodes = (
"372 425 LINE",
"289 425 OFFCURVE",
"172 383 OFFCURVE",
"104 273 CURVE SMOOTH",
"63 208 OFFCURVE",
"42 119 OFFCURVE",
"50 0 CURVE",
"22 0 LINE",
"13 125 OFFCURVE",
"39 221 OFFCURVE",
"85 292 CURVE SMOOTH",
"158 404 OFFCURVE",
"282 453 OFFCURVE",
"399 453 CURVE"
);
},
{
closed = 1;
nodes = (
"125 490 LINE",
"221 637 OFFCURVE",
"364 703 OFFCURVE",
"516 703 CURVE SMOOTH",
"814 703 OFFCURVE",
"910 445 OFFCURVE",
"910 291 CURVE SMOOTH",
"910 132 OFFCURVE",
"853 0 OFFCURVE",
"718 0 CURVE SMOOTH",
"639 0 OFFCURVE",
"576 38 OFFCURVE",
"555 120 CURVE",
"516 42 OFFCURVE",
"466 0 OFFCURVE",
"386 0 CURVE SMOOTH",
"321 0 OFFCURVE",
"274 39 OFFCURVE",
"274 93 CURVE SMOOTH",
"274 191 OFFCURVE",
"390 226 OFFCURVE",
"486 266 CURVE SMOOTH",
"558 296 OFFCURVE",
"614 333 OFFCURVE",
"614 395 CURVE SMOOTH",
"614 430 OFFCURVE",
"591 479 OFFCURVE",
"526 479 CURVE SMOOTH",
"468 479 OFFCURVE",
"408 430 OFFCURVE",
"408 364 CURVE SMOOTH",
"408 328 OFFCURVE",
"430 308 OFFCURVE",
"447 308 CURVE SMOOTH",
"466 308 OFFCURVE",
"480 321 OFFCURVE",
"480 349 CURVE SMOOTH",
"480 378 OFFCURVE",
"448 425 OFFCURVE",
"402 425 CURVE SMOOTH",
"331 425 OFFCURVE",
"285 369 OFFCURVE",
"275 294 CURVE",
"245 298 LINE",
"257 381 OFFCURVE",
"313 453 OFFCURVE",
"399 453 CURVE SMOOTH",
"461 453 OFFCURVE",
"508 398 OFFCURVE",
"508 349 CURVE SMOOTH",
"508 306 OFFCURVE",
"484 281 OFFCURVE",
"447 281 CURVE SMOOTH",
"408 281 OFFCURVE",
"380 311 OFFCURVE",
"380 364 CURVE SMOOTH",
"380 452 OFFCURVE",
"455 507 OFFCURVE",
"526 507 CURVE SMOOTH",
"596 507 OFFCURVE",
"641 460 OFFCURVE",
"641 395 CURVE SMOOTH",
"641 338 OFFCURVE",
"606 286 OFFCURVE",
"503 245 CURVE SMOOTH",
"408 207 OFFCURVE",
"302 171 OFFCURVE",
"302 90 CURVE SMOOTH",
"302 48 OFFCURVE",
"347 28 OFFCURVE",
"386 28 CURVE SMOOTH",
"479 28 OFFCURVE",
"530 96 OFFCURVE",
"555 214 CURVE",
"580 213 LINE",
"573 100 OFFCURVE",
"618 28 OFFCURVE",
"718 28 CURVE SMOOTH",
"831 28 OFFCURVE",
"880 144 OFFCURVE",
"880 291 CURVE SMOOTH",
"880 433 OFFCURVE",
"788 674 OFFCURVE",
"516 674 CURVE SMOOTH",
"372 674 OFFCURVE",
"239 612 OFFCURVE",
"150 474 CURVE"
);
}
);
width = 950;
}
);
unicode = 0DAC;
},
{
color = 4;
glyphname = snTA;
lastChange = "2022-07-23 16:24:18 +0000";
layers = (
{
layerId = "25BA55F5-DD3E-4682-A696-ADF7D9496427";
name = Light;
paths = (
{
closed = 1;
nodes = (
"217 392 OFFCURVE",
"215 375 OFFCURVE",
"215 361 CURVE SMOOTH",
"215 329 OFFCURVE",
"227 290 OFFCURVE",
"256 290 CURVE SMOOTH",
"271 290 OFFCURVE",
"280 307 OFFCURVE",
"280 331 CURVE SMOOTH",
"280 367 OFFCURVE",
"250 397 OFFCURVE",
"223 406 CURVE"
);
},
{
closed = 1;
nodes = (
"317 138 OFFCURVE",
"359 27 OFFCURVE",
"453 27 CURVE SMOOTH",
"563 27 OFFCURVE",
"585 109 OFFCURVE",
"585 158 CURVE SMOOTH",
"585 255 OFFCURVE",
"527 292 OFFCURVE",
"464 292 CURVE SMOOTH",
"410 292 OFFCURVE",
"348 269 OFFCURVE",
"336 264 CURVE",
"279 212 OFFCURVE",
"230 167 OFFCURVE",
"194 135 CURVE",
"203 137 OFFCURVE",
"211 138 OFFCURVE",
"220 138 CURVE"
);
},
{
closed = 1;
nodes = (
"682 536 OFFCURVE",
"920 536 CURVE",
"919 508 LINE",
"881 508 OFFCURVE",
"824 492 OFFCURVE",
"795 462 CURVE",
"772 437 OFFCURVE",
"761 396 OFFCURVE",
"761 351 CURVE SMOOTH",
"761 330 OFFCURVE",
"798 128 OFFCURVE",
"798 50 CURVE SMOOTH",
"798 -166 OFFCURVE",
"683 -264 OFFCURVE",
"465 -281 CURVE",
"464 -253 LINE",
"671 -240 OFFCURVE",
"772 -152 OFFCURVE",
"772 48 CURVE SMOOTH",
"772 125 OFFCURVE",
"733 280 OFFCURVE",
"733 357 CURVE SMOOTH",
"733 431 OFFCURVE",
"771 489 OFFCURVE",
"824 511 CURVE",
"830 504 LINE",
"713 504 OFFCURVE",
"491 419 OFFCURVE",
"363 290 CURVE",
"359 297 LINE",
"387 307 OFFCURVE",
"424 318 OFFCURVE",
"460 318 CURVE SMOOTH",
"540 318 OFFCURVE",
"610 274 OFFCURVE",
"610 152 CURVE SMOOTH",
"610 114 OFFCURVE",
"592 0 OFFCURVE",
"451 0 CURVE SMOOTH",
"345 0 OFFCURVE",
"295 110 OFFCURVE",
"230 110 CURVE SMOOTH",
"192 110 OFFCURVE",
"142 85 OFFCURVE",
"125 72 CURVE",
"108 92 LINE",
"108 94 OFFCURVE",
"192 168 OFFCURVE",
"319 285 CURVE",
"356 329 OFFCURVE",
"379 379 OFFCURVE",
"379 416 CURVE SMOOTH",
"379 450 OFFCURVE",
"360 474 OFFCURVE",
"317 474 CURVE SMOOTH",
"280 474 OFFCURVE",
"252 456 OFFCURVE",
"235 430 CURVE",
"274 413 OFFCURVE",
"307 377 OFFCURVE",
"307 326 CURVE SMOOTH",
"307 293 OFFCURVE",
"289 264 OFFCURVE",
"255 264 CURVE SMOOTH",
"209 264 OFFCURVE",
"189 314 OFFCURVE",
"189 362 CURVE SMOOTH",
"189 379 OFFCURVE",
"191 397 OFFCURVE",
"198 413 CURVE",
"186 416 OFFCURVE",
"174 418 OFFCURVE",
"162 418 CURVE SMOOTH",
"106 418 OFFCURVE",
"59 395 OFFCURVE",
"26 329 CURVE",
"0 335 LINE",
"21 398 OFFCURVE",
"88 445 OFFCURVE",
"162 445 CURVE SMOOTH",
"178 445 OFFCURVE",
"194 443 OFFCURVE",
"210 439 CURVE",
"230 475 OFFCURVE",
"266 501 OFFCURVE",
"317 501 CURVE SMOOTH",
"378 501 OFFCURVE",
"406 460 OFFCURVE",
"406 413 CURVE SMOOTH",
"406 387 OFFCURVE",
"394 335 OFFCURVE",
"352 307 CURVE",
"362 324 LINE",
"496 445 OFFCURVE"
);
}
);
width = 906;
}
);
unicode = 0DAD;
},
{
color = 4;
glyphname = snTHA;
lastChange = "2022-07-23 16:24:18 +0000";
layers = (
{
layerId = "25BA55F5-DD3E-4682-A696-ADF7D9496427";
name = Light;
paths = (
{
closed = 1;
nodes = (
"303 410 OFFCURVE",
"214 452 OFFCURVE",
"214 551 CURVE SMOOTH",
"214 650 OFFCURVE",
"290 705 OFFCURVE",
"348 763 CURVE",
"366 744 LINE",
"305 683 OFFCURVE",
"240 636 OFFCURVE",
"240 551 CURVE SMOOTH",
"240 482 OFFCURVE",
"302 436 OFFCURVE",
"382 436 CURVE SMOOTH",
"456 436 OFFCURVE",
"509 479 OFFCURVE",
"541 514 CURVE",
"558 494 LINE",
"520 456 OFFCURVE",
"471 410 OFFCURVE",
"381 410 CURVE SMOOTH"
);
},
{
closed = 1;
nodes = (
"313 356 OFFCURVE",
"261 365 OFFCURVE",
"235 365 CURVE SMOOTH",
"116 365 OFFCURVE",
"67 276 OFFCURVE",
"67 204 CURVE SMOOTH",
"67 103 OFFCURVE",
"170 27 OFFCURVE",
"295 27 CURVE SMOOTH",
"471 27 OFFCURVE",
"549 161 OFFCURVE",
"549 260 CURVE SMOOTH",
"549 426 OFFCURVE",
"422 511 OFFCURVE",
"339 588 CURVE SMOOTH",
"284 639 OFFCURVE",
"219 696 OFFCURVE",
"219 757 CURVE SMOOTH",
"219 786 OFFCURVE",
"235 825 OFFCURVE",
"258 845 CURVE",
"276 825 LINE",
"258 811 OFFCURVE",
"245 779 OFFCURVE",
"245 757 CURVE SMOOTH",
"245 706 OFFCURVE",
"306 656 OFFCURVE",
"359 606 CURVE SMOOTH",
"445 526 OFFCURVE",
"575 436 OFFCURVE",
"575 260 CURVE SMOOTH",
"575 142 OFFCURVE",
"486 0 OFFCURVE",
"295 0 CURVE SMOOTH",
"164 0 OFFCURVE",
"40 74 OFFCURVE",
"40 204 CURVE SMOOTH",
"40 312 OFFCURVE",
"121 392 OFFCURVE",
"235 392 CURVE SMOOTH",
"276 392 OFFCURVE",
"323 381 OFFCURVE",
"375 349 CURVE",
"361 326 LINE"
);
}
);
width = 615;
}
);
unicode = 0DAE;
},
{
color = 4;
glyphname = snDA;
lastChange = "2022-07-23 16:24:18 +0000";
layers = (
{
layerId = "25BA55F5-DD3E-4682-A696-ADF7D9496427";
name = Light;
paths = (
{
closed = 1;
nodes = (
"180 459 OFFCURVE",
"166 443 OFFCURVE",
"165 416 CURVE",
"164 400 OFFCURVE",
"169 388 OFFCURVE",
"175 379 CURVE",
"182 372 OFFCURVE",
"190 369 OFFCURVE",
"198 369 CURVE",
"206 369 OFFCURVE",
"211 373 OFFCURVE",
"215 376 CURVE",
"224 387 OFFCURVE",
"227 401 OFFCURVE",
"226 420 CURVE",
"224 440 OFFCURVE",
"217 455 OFFCURVE",
"203 465 CURVE",
"201 466 OFFCURVE",
"199 467 OFFCURVE",
"197 469 CURVE"
);
},
{
closed = 1;
nodes = (
"388 167 OFFCURVE",
"359 157 OFFCURVE",
"333 132 CURVE",
"313 112 OFFCURVE",
"282 78 OFFCURVE",
"266 28 CURVE",
"273 30 OFFCURVE",
"280 30 OFFCURVE",
"288 31 CURVE",
"388 46 OFFCURVE",
"448 101 OFFCURVE",
"442 141 CURVE",
"441 153 OFFCURVE",
"434 161 OFFCURVE",
"424 165 CURVE",
"419 166 OFFCURVE",
"414 167 OFFCURVE",
"408 167 CURVE"
);
},
{
closed = 1;
nodes = (
"295 -290 OFFCURVE",
"226 -164 OFFCURVE",
"226 -47 CURVE",
"226 -30 OFFCURVE",
"227 -14 OFFCURVE",
"230 0 CURVE",
"175 0 OFFCURVE",
"112 13 OFFCURVE",
"74 48 CURVE",
"45 71 OFFCURVE",
"32 102 OFFCURVE",
"32 137 CURVE",
"32 246 OFFCURVE",
"136 280 OFFCURVE",
"227 311 CURVE",
"301 335 OFFCURVE",
"364 355 OFFCURVE",
"364 406 CURVE",
"364 485 OFFCURVE",
"271 486 OFFCURVE",
"270 486 CURVE",
"266 486 OFFCURVE",
"248 486 OFFCURVE",
"226 480 CURVE",
"242 466 OFFCURVE",
"251 447 OFFCURVE",
"252 423 CURVE",
"255 397 OFFCURVE",
"250 373 OFFCURVE",
"235 357 CURVE",
"226 347 OFFCURVE",
"212 341 OFFCURVE",
"198 341 CURVE",
"183 341 OFFCURVE",
"167 348 OFFCURVE",
"156 359 CURVE",
"147 370 OFFCURVE",
"135 389 OFFCURVE",
"137 418 CURVE",
"139 445 OFFCURVE",
"151 465 OFFCURVE",
"167 480 CURVE",
"154 482 OFFCURVE",
"140 481 OFFCURVE",
"129 480 CURVE",
"107 476 OFFCURVE",
"36 459 OFFCURVE",
"36 367 CURVE",
"10 367 LINE",
"10 458 OFFCURVE",
"69 498 OFFCURVE",
"125 508 CURVE",
"151 511 OFFCURVE",
"176 508 OFFCURVE",
"197 499 CURVE",
"222 510 OFFCURVE",
"250 514 OFFCURVE",
"270 514 CURVE",
"319 514 OFFCURVE",
"392 485 OFFCURVE",
"392 406 CURVE",
"392 335 OFFCURVE",
"316 311 OFFCURVE",
"236 285 CURVE",
"150 256 OFFCURVE",
"60 227 OFFCURVE",
"60 137 CURVE",
"60 109 OFFCURVE",
"70 87 OFFCURVE",
"90 69 CURVE",
"125 39 OFFCURVE",
"182 27 OFFCURVE",
"236 27 CURVE",
"254 88 OFFCURVE",
"291 129 OFFCURVE",
"314 152 CURVE",
"350 187 OFFCURVE",
"398 203 OFFCURVE",
"433 190 CURVE",
"454 183 OFFCURVE",
"467 167 OFFCURVE",
"470 145 CURVE",
"479 83 OFFCURVE",
"401 20 OFFCURVE",
"293 4 CURVE",
"281 3 OFFCURVE",
"270 2 OFFCURVE",
"257 0 CURVE",
"254 -13 OFFCURVE",
"252 -30 OFFCURVE",
"252 -47 CURVE",
"252 -98 OFFCURVE",
"270 -262 OFFCURVE",
"485 -262 CURVE",
"548 -262 OFFCURVE",
"603 -239 OFFCURVE",
"642 -196 CURVE",
"679 -154 OFFCURVE",
"699 -101 OFFCURVE",
"695 -48 CURVE",
"722 -46 LINE",
"726 -106 OFFCURVE",
"706 -167 OFFCURVE",
"661 -215 CURVE",
"619 -263 OFFCURVE",
"555 -290 OFFCURVE",
"485 -290 CURVE"
);
}
);
width = 522;
}
);
unicode = 0DAF;
},
{
color = 4;
glyphname = snDHA;
lastChange = "2022-07-23 16:24:18 +0000";
layers = (
{
layerId = "25BA55F5-DD3E-4682-A696-ADF7D9496427";
name = Light;
paths = (
{
closed = 1;
nodes = (
"380 420 OFFCURVE",
"284 289 OFFCURVE",
"284 161 CURVE SMOOTH",
"284 54 OFFCURVE",
"360 27 OFFCURVE",
"399 27 CURVE SMOOTH",
"492 27 OFFCURVE",
"543 96 OFFCURVE",
"568 214 CURVE",
"593 213 LINE",
"586 100 OFFCURVE",
"631 27 OFFCURVE",
"731 27 CURVE SMOOTH",
"844 27 OFFCURVE",
"893 144 OFFCURVE",
"893 291 CURVE SMOOTH",
"893 433 OFFCURVE",
"811 674 OFFCURVE",
"529 674 CURVE SMOOTH",
"272 674 OFFCURVE",
"50 476 OFFCURVE",
"50 0 CURVE",
"20 0 LINE",
"20 497 OFFCURVE",
"260 703 OFFCURVE",
"529 703 CURVE SMOOTH",
"837 703 OFFCURVE",
"923 445 OFFCURVE",
"923 291 CURVE SMOOTH",
"923 132 OFFCURVE",
"866 0 OFFCURVE",
"731 0 CURVE SMOOTH",
"652 0 OFFCURVE",
"589 38 OFFCURVE",
"568 120 CURVE",
"529 42 OFFCURVE",
"479 0 OFFCURVE",
"399 0 CURVE SMOOTH",
"334 0 OFFCURVE",
"256 47 OFFCURVE",
"256 156 CURVE SMOOTH",
"256 311 OFFCURVE",
"371 451 OFFCURVE",
"649 417 CURVE",
"645 389 LINE"
);
}
);
width = 963;
}
);
unicode = 0DB0;
},
{
color = 4;
glyphname = snNA;
lastChange = "2022-07-23 16:24:18 +0000";
layers = (
{
layerId = "25BA55F5-DD3E-4682-A696-ADF7D9496427";
name = Light;
paths = (
{
closed = 1;
nodes = (
"221 397 OFFCURVE",
"216 368 OFFCURVE",
"216 357 CURVE SMOOTH",
"216 329 OFFCURVE",
"224 295 OFFCURVE",
"257 295 CURVE SMOOTH",
"275 295 OFFCURVE",
"283 320 OFFCURVE",
"282 335 CURVE SMOOTH",
"279 379 OFFCURVE",
"243 402 OFFCURVE",
"227 407 CURVE"
);
},
{
closed = 1;
nodes = (
"119 253 OFFCURVE",
"113 232 OFFCURVE",
"113 207 CURVE SMOOTH",
"113 106 OFFCURVE",
"208 27 OFFCURVE",
"324 27 CURVE SMOOTH",
"443 27 OFFCURVE",
"555 79 OFFCURVE",
"555 180 CURVE SMOOTH",
"555 227 OFFCURVE",
"518 268 OFFCURVE",
"470 268 CURVE SMOOTH",
"410 268 OFFCURVE",
"358 217 OFFCURVE",
"314 173 CURVE",
"294 190 LINE",
"310 207 OFFCURVE",
"346 247 OFFCURVE",
"366 277 CURVE",
"338 254 OFFCURVE",
"305 208 OFFCURVE",
"240 208 CURVE SMOOTH",
"194 208 OFFCURVE",
"155 231 OFFCURVE",
"124 267 CURVE"
);
},
{
closed = 1;
nodes = (
"679 544 OFFCURVE",
"853 544 CURVE",
"852 518 LINE",
"764 518 OFFCURVE",
"714 453 OFFCURVE",
"714 353 CURVE SMOOTH",
"714 277 OFFCURVE",
"751 181 OFFCURVE",
"751 51 CURVE SMOOTH",
"751 -165 OFFCURVE",
"638 -264 OFFCURVE",
"418 -281 CURVE",
"417 -253 LINE",
"624 -240 OFFCURVE",
"725 -152 OFFCURVE",
"725 48 CURVE SMOOTH",
"725 128 OFFCURVE",
"685 280 OFFCURVE",
"685 361 CURVE SMOOTH",
"685 425 OFFCURVE",
"704 480 OFFCURVE",
"745 508 CURVE",
"610 496 OFFCURVE",
"510 432 OFFCURVE",
"426 329 CURVE",
"418 312 OFFCURVE",
"407 292 OFFCURVE",
"394 273 CURVE",
"418 287 OFFCURVE",
"443 295 OFFCURVE",
"466 295 CURVE SMOOTH",
"520 295 OFFCURVE",
"581 259 OFFCURVE",
"581 178 CURVE SMOOTH",
"581 65 OFFCURVE",
"461 0 OFFCURVE",
"324 0 CURVE SMOOTH",
"190 0 OFFCURVE",
"86 98 OFFCURVE",
"86 207 CURVE SMOOTH",
"86 260 OFFCURVE",
"111 295 OFFCURVE",
"123 315 CURVE",
"147 276 OFFCURVE",
"177 242 OFFCURVE",
"223 235 CURVE SMOOTH",
"257 230 OFFCURVE",
"294 246 OFFCURVE",
"329 279 CURVE",
"355 305 OFFCURVE",
"379 325 OFFCURVE",
"401 348 CURVE",
"406 358 OFFCURVE",
"409 378 OFFCURVE",
"409 389 CURVE SMOOTH",
"409 446 OFFCURVE",
"370 477 OFFCURVE",
"325 477 CURVE SMOOTH",
"284 477 OFFCURVE",
"270 461 OFFCURVE",
"240 431 CURVE",
"268 419 OFFCURVE",
"309 386 OFFCURVE",
"310 337 CURVE SMOOTH",
"311 297 OFFCURVE",
"288 268 OFFCURVE",
"257 268 CURVE SMOOTH",
"214 268 OFFCURVE",
"191 302 OFFCURVE",
"191 354 CURVE SMOOTH",
"191 369 OFFCURVE",
"194 404 OFFCURVE",
"201 417 CURVE",
"189 420 OFFCURVE",
"176 421 OFFCURVE",
"164 421 CURVE SMOOTH",
"107 421 OFFCURVE",
"53 397 OFFCURVE",
"28 333 CURVE",
"0 339 LINE",
"25 414 OFFCURVE",
"94 449 OFFCURVE",
"164 449 CURVE SMOOTH",
"180 449 OFFCURVE",
"198 447 OFFCURVE",
"215 442 CURVE",
"239 478 OFFCURVE",
"279 503 OFFCURVE",
"324 503 CURVE SMOOTH",
"387 503 OFFCURVE",
"436 456 OFFCURVE",
"436 391 CURVE SMOOTH",
"436 386 OFFCURVE",
"436 380 OFFCURVE",
"435 375 CURVE",
"526 501 OFFCURVE"
);
}
);
width = 803;
}
);
unicode = 0DB1;
},
{
color = 4;
glyphname = snNDA;
lastChange = "2022-07-23 16:24:18 +0000";
layers = (
{
components = (
{
name = snDA;
transform = "{1, 0, 0, 1, 224, 0}";
}
);
layerId = "25BA55F5-DD3E-4682-A696-ADF7D9496427";
name = Light;
paths = (
{
closed = 1;
nodes = (
"372 483 LINE",
"84 483 OFFCURVE",
"3 221 OFFCURVE",
"119 10 CURVE",
"93 1 LINE",
"-27 225 OFFCURVE",
"56 509 OFFCURVE",
"367 509 CURVE"
);
}
);
width = 746;
}
);
unicode = 0DB3;
},
{
color = 4;
glyphname = snPA;
lastChange = "2022-07-23 16:24:18 +0000";
layers = (
{
layerId = "25BA55F5-DD3E-4682-A696-ADF7D9496427";
name = Light;
paths = (
{
closed = 1;
nodes = (
"702 561 OFFCURVE",
"702 478 CURVE SMOOTH",
"702 440 OFFCURVE",
"672 390 OFFCURVE",
"616 390 CURVE SMOOTH",
"564 390 OFFCURVE",
"525 429 OFFCURVE",
"525 477 CURVE SMOOTH",
"525 600 OFFCURVE",
"651 647 OFFCURVE",
"813 634 CURVE",
"812 607 LINE",
"692 618 OFFCURVE",
"553 588 OFFCURVE",
"553 481 CURVE SMOOTH",
"553 442 OFFCURVE",
"582 417 OFFCURVE",
"617 417 CURVE SMOOTH",
"654 417 OFFCURVE",
"674 445 OFFCURVE",
"674 478 CURVE SMOOTH",
"674 541 OFFCURVE",
"626 593 OFFCURVE",
"544 593 CURVE SMOOTH",
"474 593 OFFCURVE",
"425 547 OFFCURVE",
"425 487 CURVE SMOOTH",
"425 437 OFFCURVE",
"472 407 OFFCURVE",
"534 384 CURVE SMOOTH",
"610 355 OFFCURVE",
"708 313 OFFCURVE",
"708 215 CURVE SMOOTH",
"708 58 OFFCURVE",
"550 0 OFFCURVE",
"415 0 CURVE SMOOTH",
"250 0 OFFCURVE",
"143 71 OFFCURVE",
"143 162 CURVE SMOOTH",
"143 245 OFFCURVE",
"207 283 OFFCURVE",
"273 314 CURVE",
"332 342 OFFCURVE",
"370 372 OFFCURVE",
"370 412 CURVE SMOOTH",
"370 452 OFFCURVE",
"326 481 OFFCURVE",
"284 481 CURVE SMOOTH",
"233 481 OFFCURVE",
"180 450 OFFCURVE",
"180 391 CURVE SMOOTH",
"180 368 OFFCURVE",
"193 352 OFFCURVE",
"213 352 CURVE SMOOTH",
"239 352 OFFCURVE",
"248 377 OFFCURVE",
"248 394 CURVE SMOOTH",
"248 453 OFFCURVE",
"183 463 OFFCURVE",
"154 463 CURVE SMOOTH",
"78 463 OFFCURVE",
"47 413 OFFCURVE",
"47 369 CURVE SMOOTH",
"47 349 OFFCURVE",
"57 330 OFFCURVE",
"57 330 CURVE",
"32 318 LINE",
"31 319 OFFCURVE",
"20 340 OFFCURVE",
"20 369 CURVE SMOOTH",
"20 424 OFFCURVE",
"57 490 OFFCURVE",
"154 490 CURVE SMOOTH",
"204 490 OFFCURVE",
"277 469 OFFCURVE",
"277 399 CURVE SMOOTH",
"277 358 OFFCURVE",
"257 324 OFFCURVE",
"213 324 CURVE SMOOTH",
"187 324 OFFCURVE",
"153 344 OFFCURVE",
"153 390 CURVE SMOOTH",
"153 462 OFFCURVE",
"210 508 OFFCURVE",
"280 508 CURVE SMOOTH",
"338 508 OFFCURVE",
"398 472 OFFCURVE",
"398 417 CURVE SMOOTH",
"398 356 OFFCURVE",
"345 319 OFFCURVE",
"285 290 CURVE",
"220 257 OFFCURVE",
"170 230 OFFCURVE",
"170 164 CURVE SMOOTH",
"170 90 OFFCURVE",
"268 27 OFFCURVE",
"414 27 CURVE SMOOTH",
"525 27 OFFCURVE",
"680 78 OFFCURVE",
"680 213 CURVE SMOOTH",
"680 281 OFFCURVE",
"618 321 OFFCURVE",
"526 357 CURVE SMOOTH",
"486 372 OFFCURVE",
"397 405 OFFCURVE",
"397 486 CURVE SMOOTH",
"397 567 OFFCURVE",
"459 621 OFFCURVE",
"549 621 CURVE SMOOTH",
"633 621 OFFCURVE"
);
}
);
width = 758;
}
);
unicode = 0DB4;
},
{
color = 4;
glyphname = snPHA;
lastChange = "2022-07-23 16:24:18 +0000";
layers = (
{
layerId = "25BA55F5-DD3E-4682-A696-ADF7D9496427";
name = Light;
paths = (
{
closed = 1;
nodes = (
"662 27 OFFCURVE",
"759 148 OFFCURVE",
"759 270 CURVE SMOOTH",
"759 430 OFFCURVE",
"670 520 OFFCURVE",
"609 588 CURVE",
"559 644 OFFCURVE",
"513 696 OFFCURVE",
"513 757 CURVE SMOOTH",
"513 786 OFFCURVE",
"525 825 OFFCURVE",
"548 845 CURVE",
"566 825 LINE",
"548 811 OFFCURVE",
"540 779 OFFCURVE",
"540 757 CURVE SMOOTH",
"540 706 OFFCURVE",
"581 660 OFFCURVE",
"629 606 CURVE",
"692 534 OFFCURVE",
"785 440 OFFCURVE",
"785 270 CURVE SMOOTH",
"785 129 OFFCURVE",
"677 0 OFFCURVE",
"496 0 CURVE SMOOTH",
"363 0 OFFCURVE",
"270 57 OFFCURVE",
"270 150 CURVE SMOOTH",
"270 240 OFFCURVE",
"345 263 OFFCURVE",
"406 304 CURVE SMOOTH",
"438 326 OFFCURVE",
"481 345 OFFCURVE",
"481 406 CURVE SMOOTH",
"481 425 OFFCURVE",
"466 479 OFFCURVE",
"387 479 CURVE SMOOTH",
"348 479 OFFCURVE",
"340 469 OFFCURVE",
"324 460 CURVE",
"354 434 OFFCURVE",
"370 400 OFFCURVE",
"370 363 CURVE SMOOTH",
"370 302 OFFCURVE",
"334 282 OFFCURVE",
"302 282 CURVE SMOOTH",
"264 282 OFFCURVE",
"233 309 OFFCURVE",
"233 363 CURVE SMOOTH",
"233 388 OFFCURVE",
"240 428 OFFCURVE",
"273 459 CURVE",
"252 466 OFFCURVE",
"239 470 OFFCURVE",
"200 470 CURVE SMOOTH",
"108 470 OFFCURVE",
"47 401 OFFCURVE",
"47 316 CURVE SMOOTH",
"47 253 OFFCURVE",
"89 219 OFFCURVE",
"89 217 CURVE",
"68 198 LINE",
"66 200 OFFCURVE",
"20 240 OFFCURVE",
"20 316 CURVE SMOOTH",
"20 417 OFFCURVE",
"94 497 OFFCURVE",
"200 497 CURVE SMOOTH",
"249 497 OFFCURVE",
"266 490 OFFCURVE",
"296 476 CURVE",
"318 491 OFFCURVE",
"346 507 OFFCURVE",
"387 507 CURVE SMOOTH",
"471 507 OFFCURVE",
"508 444 OFFCURVE",
"508 406 CURVE SMOOTH",
"508 337 OFFCURVE",
"469 316 OFFCURVE",
"423 283 CURVE SMOOTH",
"369 244 OFFCURVE",
"297 226 OFFCURVE",
"297 150 CURVE SMOOTH",
"297 71 OFFCURVE",
"380 27 OFFCURVE",
"496 27 CURVE SMOOTH"
);
},
{
closed = 1;
nodes = (
"268 421 OFFCURVE",
"261 386 OFFCURVE",
"261 363 CURVE SMOOTH",
"261 319 OFFCURVE",
"288 309 OFFCURVE",
"302 309 CURVE SMOOTH",
"326 309 OFFCURVE",
"342 326 OFFCURVE",
"342 363 CURVE SMOOTH",
"342 390 OFFCURVE",
"331 426 OFFCURVE",
"298 444 CURVE"
);
},
{
closed = 1;
nodes = (
"573 410 OFFCURVE",
"484 452 OFFCURVE",
"484 551 CURVE SMOOTH",
"484 650 OFFCURVE",
"560 705 OFFCURVE",
"618 763 CURVE",
"637 744 LINE",
"576 683 OFFCURVE",
"510 636 OFFCURVE",
"510 551 CURVE SMOOTH",
"510 482 OFFCURVE",
"572 436 OFFCURVE",
"641 436 CURVE SMOOTH",
"713 436 OFFCURVE",
"755 476 OFFCURVE",
"783 507 CURVE",
"800 488 LINE",
"769 458 OFFCURVE",
"726 410 OFFCURVE",
"640 410 CURVE SMOOTH"
);
}
);
width = 840;
}
);
unicode = 0DB5;
},
{
color = 4;
glyphname = snBA;
lastChange = "2022-07-23 16:24:18 +0000";
layers = (
{
layerId = "25BA55F5-DD3E-4682-A696-ADF7D9496427";
name = Light;
paths = (
{
closed = 1;
nodes = (
"532 211 OFFCURVE",
"532 114 CURVE SMOOTH",
"532 35 OFFCURVE",
"480 0 OFFCURVE",
"437 0 CURVE SMOOTH",
"380 0 OFFCURVE",
"336 41 OFFCURVE",
"336 121 CURVE SMOOTH",
"336 256 OFFCURVE",
"461 392 OFFCURVE",
"600 392 CURVE SMOOTH",
"685 392 OFFCURVE",
"726 341 OFFCURVE",
"726 288 CURVE SMOOTH",
"726 210 OFFCURVE",
"636 177 OFFCURVE",
"636 96 CURVE SMOOTH",
"636 50 OFFCURVE",
"694 23 OFFCURVE",
"756 27 CURVE SMOOTH",
"897 35 OFFCURVE",
"963 157 OFFCURVE",
"963 291 CURVE SMOOTH",
"963 433 OFFCURVE",
"841 674 OFFCURVE",
"549 674 CURVE SMOOTH",
"282 674 OFFCURVE",
"50 476 OFFCURVE",
"50 0 CURVE",
"20 0 LINE",
"20 497 OFFCURVE",
"270 703 OFFCURVE",
"549 703 CURVE SMOOTH",
"867 703 OFFCURVE",
"993 445 OFFCURVE",
"993 291 CURVE SMOOTH",
"993 121 OFFCURVE",
"891 -1 OFFCURVE",
"744 -1 CURVE SMOOTH",
"669 -1 OFFCURVE",
"608 36 OFFCURVE",
"608 96 CURVE SMOOTH",
"608 189 OFFCURVE",
"698 219 OFFCURVE",
"698 291 CURVE SMOOTH",
"698 341 OFFCURVE",
"644 364 OFFCURVE",
"600 364 CURVE SMOOTH",
"452 364 OFFCURVE",
"363 214 OFFCURVE",
"363 122 CURVE SMOOTH",
"363 58 OFFCURVE",
"397 27 OFFCURVE",
"436 27 CURVE SMOOTH",
"451 27 OFFCURVE",
"504 36 OFFCURVE",
"504 114 CURVE SMOOTH",
"504 195 OFFCURVE",
"428 261 OFFCURVE",
"369 261 CURVE SMOOTH",
"267 261 OFFCURVE",
"206 148 OFFCURVE",
"206 58 CURVE",
"179 58 LINE",
"179 162 OFFCURVE",
"245 288 OFFCURVE",
"369 288 CURVE SMOOTH",
"445 288 OFFCURVE"
);
}
);
width = 1033;
}
);
unicode = 0DB6;
},
{
color = 4;
glyphname = snBHA;
lastChange = "2022-07-23 16:24:18 +0000";
layers = (
{
components = (
{
name = snHA;
transform = "{1, 0, 0, 1, 35, 0}";
}
);
layerId = "25BA55F5-DD3E-4682-A696-ADF7D9496427";
name = Light;
paths = (
{
closed = 1;
nodes = (
"347 251 LINE",
"187 146 OFFCURVE",
"82 97 OFFCURVE",
"59 -54 CURVE",
"30 -52 LINE",
"56 125 OFFCURVE",
"184 180 OFFCURVE",
"343 275 CURVE"
);
}
);
width = 849;
}
);
unicode = 0DB7;
},
{
color = 4;
glyphname = snMA;
lastChange = "2022-07-23 16:24:18 +0000";
layers = (
{
layerId = "25BA55F5-DD3E-4682-A696-ADF7D9496427";
name = Light;
paths = (
{
closed = 1;
nodes = (
"861 539 OFFCURVE",
"740 673 OFFCURVE",
"546 673 CURVE SMOOTH",
"221 673 OFFCURVE",
"47 368 OFFCURVE",
"47 0 CURVE",
"20 0 LINE",
"20 385 OFFCURVE",
"209 700 OFFCURVE",
"539 700 CURVE SMOOTH",
"735 700 OFFCURVE",
"889 573 OFFCURVE",
"889 375 CURVE SMOOTH",
"889 169 OFFCURVE",
"733 0 OFFCURVE",
"546 0 CURVE SMOOTH",
"396 0 OFFCURVE",
"297 73 OFFCURVE",
"297 210 CURVE SMOOTH",
"297 395 OFFCURVE",
"449 507 OFFCURVE",
"570 507 CURVE SMOOTH",
"647 507 OFFCURVE",
"690 449 OFFCURVE",
"690 382 CURVE SMOOTH",
"690 287 OFFCURVE",
"608 185 OFFCURVE",
"502 185 CURVE SMOOTH",
"440 185 OFFCURVE",
"416 227 OFFCURVE",
"416 263 CURVE SMOOTH",
"416 334 OFFCURVE",
"473 395 OFFCURVE",
"527 430 CURVE",
"542 406 LINE",
"486 370 OFFCURVE",
"446 311 OFFCURVE",
"446 263 CURVE SMOOTH",
"446 228 OFFCURVE",
"468 214 OFFCURVE",
"502 214 CURVE SMOOTH",
"590 214 OFFCURVE",
"660 307 OFFCURVE",
"660 385 CURVE SMOOTH",
"660 436 OFFCURVE",
"629 479 OFFCURVE",
"563 479 CURVE SMOOTH",
"462 479 OFFCURVE",
"325 372 OFFCURVE",
"325 210 CURVE SMOOTH",
"325 83 OFFCURVE",
"426 27 OFFCURVE",
"536 27 CURVE SMOOTH",
"708 27 OFFCURVE",
"861 180 OFFCURVE",
"861 374 CURVE SMOOTH"
);
}
);
width = 929;
}
);
unicode = 0DB8;
},
{
color = 4;
glyphname = snMBA;
lastChange = "2022-07-23 16:24:18 +0000";
layers = (
{
layerId = "25BA55F5-DD3E-4682-A696-ADF7D9496427";
name = Light;
paths = (
{
closed = 1;
nodes = (
"600 473 OFFCURVE",
"554 386 OFFCURVE",
"554 328 CURVE SMOOTH",
"554 291 OFFCURVE",
"583 274 OFFCURVE",
"604 274 CURVE SMOOTH",
"685 274 OFFCURVE",
"732 349 OFFCURVE",
"731 424 CURVE SMOOTH",
"731 449 OFFCURVE",
"715 473 OFFCURVE",
"674 473 CURVE SMOOTH"
);
},
{
closed = 1;
nodes = (
"378 477 OFFCURVE",
"277 315 OFFCURVE",
"276 199 CURVE SMOOTH",
"275 98 OFFCURVE",
"324 28 OFFCURVE",
"408 28 CURVE SMOOTH",
"450 28 OFFCURVE",
"481 51 OFFCURVE",
"483 91 CURVE SMOOTH",
"485 119 OFFCURVE",
"475 128 OFFCURVE",
"462 139 CURVE",
"449 150 OFFCURVE",
"431 164 OFFCURVE",
"430 199 CURVE SMOOTH",
"428 250 OFFCURVE",
"471 275 OFFCURVE",
"525 275 CURVE SMOOTH",
"532 275 OFFCURVE",
"543 275 OFFCURVE",
"550 274 CURVE",
"536 286 OFFCURVE",
"529 308 OFFCURVE",
"529 328 CURVE SMOOTH",
"529 352 OFFCURVE",
"536 379 OFFCURVE",
"557 422 CURVE",
"563 453 OFFCURVE",
"528 479 OFFCURVE",
"494 480 CURVE SMOOTH"
);
},
{
closed = 1;
nodes = (
"955 71 OFFCURVE",
"811 -2 OFFCURVE",
"727 -2 CURVE SMOOTH",
"633 -2 OFFCURVE",
"581 26 OFFCURVE",
"578 76 CURVE SMOOTH",
"576 123 OFFCURVE",
"602 136 OFFCURVE",
"622 144 CURVE",
"637 152 OFFCURVE",
"650 158 OFFCURVE",
"653 182 CURVE SMOOTH",
"658 218 OFFCURVE",
"590 250 OFFCURVE",
"525 250 CURVE SMOOTH",
"491 250 OFFCURVE",
"458 236 OFFCURVE",
"458 199 CURVE SMOOTH",
"458 177 OFFCURVE",
"466 170 OFFCURVE",
"481 159 CURVE",
"494 146 OFFCURVE",
"513 132 OFFCURVE",
"510 89 CURVE SMOOTH",
"506 32 OFFCURVE",
"465 0 OFFCURVE",
"408 0 CURVE SMOOTH",
"307 0 OFFCURVE",
"247 83 OFFCURVE",
"249 199 CURVE SMOOTH",
"251 341 OFFCURVE",
"366 507 OFFCURVE",
"494 507 CURVE SMOOTH",
"529 507 OFFCURVE",
"562 491 OFFCURVE",
"578 457 CURVE",
"598 480 OFFCURVE",
"638 501 OFFCURVE",
"674 501 CURVE SMOOTH",
"725 501 OFFCURVE",
"760 470 OFFCURVE",
"760 418 CURVE SMOOTH",
"760 358 OFFCURVE",
"725 274 OFFCURVE",
"636 248 CURVE",
"664 233 OFFCURVE",
"685 211 OFFCURVE",
"681 179 CURVE SMOOTH",
"677 139 OFFCURVE",
"651 128 OFFCURVE",
"633 120 CURVE",
"616 111 OFFCURVE",
"604 107 OFFCURVE",
"605 77 CURVE SMOOTH",
"607 30 OFFCURVE",
"691 25 OFFCURVE",
"727 25 CURVE SMOOTH",
"749 25 OFFCURVE",
"928 38 OFFCURVE",
"928 320 CURVE SMOOTH",
"928 505 OFFCURVE",
"781 674 OFFCURVE",
"576 674 CURVE SMOOTH",
"246 674 OFFCURVE",
"54 384 OFFCURVE",
"48 -2 CURVE",
"20 1 LINE",
"27 397 OFFCURVE",
"230 701 OFFCURVE",
"576 701 CURVE SMOOTH",
"795 701 OFFCURVE",
"955 528 OFFCURVE",
"955 321 CURVE SMOOTH"
);
}
);
width = 995;
}
);
unicode = 0DB9;
},
{
color = 4;
glyphname = snYA;
lastChange = "2022-07-23 16:24:18 +0000";
layers = (
{
layerId = "25BA55F5-DD3E-4682-A696-ADF7D9496427";
name = Light;
paths = (
{
closed = 1;
nodes = (
"667 568 OFFCURVE",
"487 529 OFFCURVE",
"487 396 CURVE SMOOTH",
"487 350 OFFCURVE",
"515 314 OFFCURVE",
"562 314 CURVE SMOOTH",
"611 314 OFFCURVE",
"627 366 OFFCURVE",
"627 391 CURVE SMOOTH",
"627 482 OFFCURVE",
"526 541 OFFCURVE",
"457 541 CURVE SMOOTH",
"396 541 OFFCURVE",
"321 507 OFFCURVE",
"321 433 CURVE SMOOTH",
"321 354 OFFCURVE",
"397 343 OFFCURVE",
"464 302 CURVE",
"540 256 OFFCURVE",
"619 223 OFFCURVE",
"619 136 CURVE SMOOTH",
"619 54 OFFCURVE",
"563 0 OFFCURVE",
"474 0 CURVE SMOOTH",
"385 0 OFFCURVE",
"331 60 OFFCURVE",
"313 120 CURVE",
"299 48 OFFCURVE",
"254 0 OFFCURVE",
"176 0 CURVE SMOOTH",
"98 0 OFFCURVE",
"40 59 OFFCURVE",
"40 144 CURVE SMOOTH",
"40 252 OFFCURVE",
"119 316 OFFCURVE",
"205 353 CURVE",
"217 326 LINE",
"131 288 OFFCURVE",
"68 233 OFFCURVE",
"68 145 CURVE SMOOTH",
"68 79 OFFCURVE",
"108 29 OFFCURVE",
"176 29 CURVE SMOOTH",
"272 29 OFFCURVE",
"295 119 OFFCURVE",
"295 208 CURVE SMOOTH",
"295 219 LINE",
"324 221 LINE",
"324 219 LINE SMOOTH",
"324 95 OFFCURVE",
"394 27 OFFCURVE",
"474 27 CURVE SMOOTH",
"545 27 OFFCURVE",
"591 65 OFFCURVE",
"591 136 CURVE SMOOTH",
"591 208 OFFCURVE",
"523 234 OFFCURVE",
"449 279 CURVE",
"378 322 OFFCURVE",
"293 338 OFFCURVE",
"292 433 CURVE SMOOTH",
"291 508 OFFCURVE",
"353 568 OFFCURVE",
"454 568 CURVE SMOOTH",
"550 568 OFFCURVE",
"653 497 OFFCURVE",
"653 399 CURVE SMOOTH",
"653 306 OFFCURVE",
"590 286 OFFCURVE",
"562 286 CURVE SMOOTH",
"500 286 OFFCURVE",
"459 338 OFFCURVE",
"459 395 CURVE SMOOTH",
"459 550 OFFCURVE",
"651 595 OFFCURVE",
"782 595 CURVE SMOOTH",
"829 595 OFFCURVE",
"862 590 OFFCURVE",
"864 590 CURVE",
"861 564 LINE",
"860 564 OFFCURVE",
"832 568 OFFCURVE",
"781 568 CURVE SMOOTH"
);
}
);
width = 704;
}
);
unicode = 0DBA;
},
{
color = 4;
glyphname = snRA;
lastChange = "2022-07-23 16:24:18 +0000";
layers = (
{
layerId = "25BA55F5-DD3E-4682-A696-ADF7D9496427";
name = Light;
paths = (
{
closed = 1;
nodes = (
"168 0 OFFCURVE",
"30 123 OFFCURVE",
"30 300 CURVE SMOOTH",
"30 440 OFFCURVE",
"108 524 OFFCURVE",
"226 648 CURVE SMOOTH",
"308 734 OFFCURVE",
"397 826 OFFCURVE",
"397 914 CURVE SMOOTH",
"397 941 OFFCURVE",
"391 965 OFFCURVE",
"378 994 CURVE",
"400 1007 LINE",
"416 978 OFFCURVE",
"424 953 OFFCURVE",
"424 914 CURVE SMOOTH",
"424 820 OFFCURVE",
"328 716 OFFCURVE",
"240 626 CURVE SMOOTH",
"134 517 OFFCURVE",
"57 427 OFFCURVE",
"57 309 CURVE SMOOTH",
"57 131 OFFCURVE",
"176 26 OFFCURVE",
"352 26 CURVE SMOOTH",
"503 26 OFFCURVE",
"621 138 OFFCURVE",
"621 271 CURVE SMOOTH",
"621 414 OFFCURVE",
"523 507 OFFCURVE",
"400 507 CURVE SMOOTH",
"292 507 OFFCURVE",
"193 441 OFFCURVE",
"193 322 CURVE SMOOTH",
"193 243 OFFCURVE",
"250 158 OFFCURVE",
"351 158 CURVE SMOOTH",
"425 158 OFFCURVE",
"481 206 OFFCURVE",
"481 276 CURVE SMOOTH",
"481 324 OFFCURVE",
"439 357 OFFCURVE",
"407 357 CURVE SMOOTH",
"370 357 OFFCURVE",
"347 335 OFFCURVE",
"347 335 CURVE",
"331 357 LINE",
"333 358 OFFCURVE",
"358 384 OFFCURVE",
"403 384 CURVE SMOOTH",
"443 384 OFFCURVE",
"507 351 OFFCURVE",
"507 275 CURVE SMOOTH",
"507 198 OFFCURVE",
"449 132 OFFCURVE",
"351 132 CURVE SMOOTH",
"244 132 OFFCURVE",
"165 214 OFFCURVE",
"165 322 CURVE SMOOTH",
"165 465 OFFCURVE",
"281 534 OFFCURVE",
"400 534 CURVE SMOOTH",
"508 534 OFFCURVE",
"650 460 OFFCURVE",
"650 272 CURVE SMOOTH",
"650 103 OFFCURVE",
"495 0 OFFCURVE",
"353 0 CURVE SMOOTH"
);
}
);
width = 680;
}
);
unicode = 0DBB;
},
{
color = 4;
glyphname = snLA;
lastChange = "2022-07-23 16:24:18 +0000";
layers = (
{
layerId = "25BA55F5-DD3E-4682-A696-ADF7D9496427";
name = Light;
paths = (
{
closed = 1;
nodes = (
"184 -298 OFFCURVE",
"20 -112 OFFCURVE",
"20 125 CURVE SMOOTH",
"20 462 OFFCURVE",
"258 594 OFFCURVE",
"444 594 CURVE SMOOTH",
"606 594 OFFCURVE",
"742 476 OFFCURVE",
"734 294 CURVE SMOOTH",
"725 86 OFFCURVE",
"571 0 OFFCURVE",
"472 0 CURVE SMOOTH",
"308 0 OFFCURVE",
"250 105 OFFCURVE",
"250 197 CURVE SMOOTH",
"250 316 OFFCURVE",
"351 410 OFFCURVE",
"457 410 CURVE SMOOTH",
"519 410 OFFCURVE",
"583 375 OFFCURVE",
"583 290 CURVE SMOOTH",
"583 223 OFFCURVE",
"533 161 OFFCURVE",
"464 161 CURVE SMOOTH",
"411 161 OFFCURVE",
"375 192 OFFCURVE",
"366 224 CURVE",
"392 235 LINE",
"398 214 OFFCURVE",
"424 188 OFFCURVE",
"464 188 CURVE SMOOTH",
"520 188 OFFCURVE",
"555 240 OFFCURVE",
"555 287 CURVE SMOOTH",
"555 360 OFFCURVE",
"506 381 OFFCURVE",
"457 381 CURVE SMOOTH",
"367 381 OFFCURVE",
"278 299 OFFCURVE",
"278 197 CURVE SMOOTH",
"278 121 OFFCURVE",
"322 27 OFFCURVE",
"472 27 CURVE SMOOTH",
"560 27 OFFCURVE",
"701 105 OFFCURVE",
"708 294 CURVE SMOOTH",
"714 455 OFFCURVE",
"595 567 OFFCURVE",
"444 567 CURVE SMOOTH",
"234 567 OFFCURVE",
"48 396 OFFCURVE",
"48 122 CURVE SMOOTH",
"48 -98 OFFCURVE",
"201 -271 OFFCURVE",
"450 -271 CURVE SMOOTH",
"687 -271 OFFCURVE",
"903 -100 OFFCURVE",
"833 219 CURVE",
"860 227 LINE",
"930 -112 OFFCURVE",
"708 -298 OFFCURVE",
"449 -298 CURVE SMOOTH"
);
}
);
width = 903;
}
);
unicode = 0DBD;
},
{
color = 4;
glyphname = snVA;
lastChange = "2022-07-23 16:24:18 +0000";
layers = (
{
layerId = "25BA55F5-DD3E-4682-A696-ADF7D9496427";
name = Light;
paths = (
{
closed = 1;
nodes = (
"498 421 OFFCURVE",
"491 386 OFFCURVE",
"491 363 CURVE SMOOTH",
"491 319 OFFCURVE",
"518 309 OFFCURVE",
"532 309 CURVE SMOOTH",
"556 309 OFFCURVE",
"572 326 OFFCURVE",
"572 363 CURVE SMOOTH",
"572 390 OFFCURVE",
"561 426 OFFCURVE",
"528 444 CURVE"
);
},
{
closed = 1;
nodes = (
"581 0 OFFCURVE",
"480 34 OFFCURVE",
"480 125 CURVE SMOOTH",
"480 225 OFFCURVE",
"585 263 OFFCURVE",
"646 304 CURVE SMOOTH",
"678 326 OFFCURVE",
"721 345 OFFCURVE",
"721 406 CURVE SMOOTH",
"721 425 OFFCURVE",
"706 479 OFFCURVE",
"627 479 CURVE SMOOTH",
"588 479 OFFCURVE",
"570 469 OFFCURVE",
"554 460 CURVE",
"584 434 OFFCURVE",
"600 400 OFFCURVE",
"600 363 CURVE SMOOTH",
"600 302 OFFCURVE",
"564 282 OFFCURVE",
"532 282 CURVE SMOOTH",
"494 282 OFFCURVE",
"463 309 OFFCURVE",
"463 363 CURVE SMOOTH",
"463 388 OFFCURVE",
"470 428 OFFCURVE",
"503 459 CURVE",
"482 466 OFFCURVE",
"469 470 OFFCURVE",
"430 470 CURVE SMOOTH",
"338 470 OFFCURVE",
"277 401 OFFCURVE",
"277 316 CURVE SMOOTH",
"277 253 OFFCURVE",
"319 219 OFFCURVE",
"319 217 CURVE",
"298 198 LINE",
"296 200 OFFCURVE",
"250 240 OFFCURVE",
"250 316 CURVE SMOOTH",
"250 417 OFFCURVE",
"324 497 OFFCURVE",
"430 497 CURVE SMOOTH",
"479 497 OFFCURVE",
"496 490 OFFCURVE",
"526 476 CURVE",
"548 491 OFFCURVE",
"586 507 OFFCURVE",
"627 507 CURVE SMOOTH",
"711 507 OFFCURVE",
"748 444 OFFCURVE",
"748 406 CURVE SMOOTH",
"748 337 OFFCURVE",
"709 316 OFFCURVE",
"663 283 CURVE SMOOTH",
"609 244 OFFCURVE",
"507 211 OFFCURVE",
"507 125 CURVE SMOOTH",
"507 48 OFFCURVE",
"600 27 OFFCURVE",
"656 27 CURVE SMOOTH",
"824 27 OFFCURVE",
"981 142 OFFCURVE",
"981 341 CURVE SMOOTH",
"981 437 OFFCURVE",
"920 674 OFFCURVE",
"603 674 CURVE SMOOTH",
"379 674 OFFCURVE",
"48 515 OFFCURVE",
"48 0 CURVE",
"20 0 LINE",
"20 499 OFFCURVE",
"325 699 OFFCURVE",
"603 699 CURVE SMOOTH",
"934 699 OFFCURVE",
"1009 456 OFFCURVE",
"1009 341 CURVE SMOOTH",
"1009 138 OFFCURVE",
"856 0 OFFCURVE",
"658 0 CURVE SMOOTH"
);
}
);
width = 1049;
}
);
unicode = 0DC0;
},
{
color = 4;
glyphname = snSHA;
lastChange = "2022-07-23 16:24:18 +0000";
layers = (
{
layerId = "25BA55F5-DD3E-4682-A696-ADF7D9496427";
name = Light;
paths = (
{
closed = 1;
nodes = (
"635 51 OFFCURVE",
"603 -12 OFFCURVE",
"535 -12 CURVE SMOOTH",
"493 -12 OFFCURVE",
"449 15 OFFCURVE",
"449 79 CURVE SMOOTH",
"449 172 OFFCURVE",
"518 228 OFFCURVE",
"607 228 CURVE SMOOTH",
"685 228 OFFCURVE",
"730 151 OFFCURVE",
"730 63 CURVE SMOOTH",
"730 -147 OFFCURVE",
"523 -267 OFFCURVE",
"297 -281 CURVE",
"296 -252 LINE",
"474 -240 OFFCURVE",
"702 -147 OFFCURVE",
"702 63 CURVE SMOOTH",
"702 127 OFFCURVE",
"662 200 OFFCURVE",
"613 200 CURVE SMOOTH",
"524 200 OFFCURVE",
"477 151 OFFCURVE",
"477 79 CURVE SMOOTH",
"477 47 OFFCURVE",
"497 15 OFFCURVE",
"535 15 CURVE SMOOTH",
"574 15 OFFCURVE",
"609 50 OFFCURVE",
"609 99 CURVE SMOOTH",
"609 181 OFFCURVE",
"565 288 OFFCURVE",
"565 352 CURVE SMOOTH",
"565 409 OFFCURVE",
"588 452 OFFCURVE",
"633 485 CURVE",
"458 485 OFFCURVE",
"333 395 OFFCURVE",
"256 260 CURVE",
"271 273 OFFCURVE",
"297 276 OFFCURVE",
"305 276 CURVE SMOOTH",
"373 276 OFFCURVE",
"416 211 OFFCURVE",
"416 154 CURVE SMOOTH",
"416 41 OFFCURVE",
"307 0 OFFCURVE",
"224 0 CURVE SMOOTH",
"125 0 OFFCURVE",
"20 69 OFFCURVE",
"20 189 CURVE SMOOTH",
"20 353 OFFCURVE",
"169 478 OFFCURVE",
"331 508 CURVE",
"331 478 LINE",
"175 448 OFFCURVE",
"50 331 OFFCURVE",
"50 189 CURVE SMOOTH",
"50 84 OFFCURVE",
"138 27 OFFCURVE",
"230 27 CURVE SMOOTH",
"295 27 OFFCURVE",
"389 66 OFFCURVE",
"389 154 CURVE SMOOTH",
"389 197 OFFCURVE",
"360 249 OFFCURVE",
"297 249 CURVE SMOOTH",
"250 249 OFFCURVE",
"240 220 OFFCURVE",
"234 211 CURVE",
"209 224 LINE",
"316 447 OFFCURVE",
"468 517 OFFCURVE",
"696 517 CURVE SMOOTH",
"727 517 OFFCURVE",
"748 516 OFFCURVE",
"752 516 CURVE",
"751 488 LINE",
"661 488 OFFCURVE",
"593 437 OFFCURVE",
"593 353 CURVE SMOOTH",
"593 258 OFFCURVE",
"635 192 OFFCURVE",
"635 97 CURVE SMOOTH"
);
}
);
width = 792;
}
);
unicode = 0DC1;
},
{
color = 4;
glyphname = snSSA;
lastChange = "2022-07-23 16:24:18 +0000";
layers = (
{
layerId = "25BA55F5-DD3E-4682-A696-ADF7D9496427";
name = Light;
paths = (
{
closed = 1;
nodes = (
"359 169 OFFCURVE",
"359 229 CURVE SMOOTH",
"359 303 OFFCURVE",
"441 344 OFFCURVE",
"473 367 CURVE SMOOTH",
"510 394 OFFCURVE",
"580 440 OFFCURVE",
"580 496 CURVE SMOOTH",
"580 539 OFFCURVE",
"549 575 OFFCURVE",
"504 575 CURVE SMOOTH",
"467 575 OFFCURVE",
"425 547 OFFCURVE",
"425 487 CURVE SMOOTH",
"425 437 OFFCURVE",
"472 407 OFFCURVE",
"534 384 CURVE SMOOTH",
"610 355 OFFCURVE",
"698 313 OFFCURVE",
"698 215 CURVE SMOOTH",
"698 68 OFFCURVE",
"550 0 OFFCURVE",
"415 0 CURVE SMOOTH",
"250 0 OFFCURVE",
"143 71 OFFCURVE",
"143 162 CURVE SMOOTH",
"143 245 OFFCURVE",
"207 283 OFFCURVE",
"273 314 CURVE",
"332 342 OFFCURVE",
"370 372 OFFCURVE",
"370 412 CURVE SMOOTH",
"370 452 OFFCURVE",
"326 481 OFFCURVE",
"284 481 CURVE SMOOTH",
"233 481 OFFCURVE",
"180 450 OFFCURVE",
"180 391 CURVE SMOOTH",
"180 368 OFFCURVE",
"193 352 OFFCURVE",
"213 352 CURVE SMOOTH",
"239 352 OFFCURVE",
"248 377 OFFCURVE",
"248 394 CURVE SMOOTH",
"248 453 OFFCURVE",
"183 463 OFFCURVE",
"154 463 CURVE SMOOTH",
"78 463 OFFCURVE",
"47 413 OFFCURVE",
"47 369 CURVE SMOOTH",
"47 349 OFFCURVE",
"57 330 OFFCURVE",
"57 330 CURVE",
"32 318 LINE",
"31 319 OFFCURVE",
"20 340 OFFCURVE",
"20 369 CURVE SMOOTH",
"20 424 OFFCURVE",
"57 490 OFFCURVE",
"154 490 CURVE SMOOTH",
"204 490 OFFCURVE",
"277 469 OFFCURVE",
"277 399 CURVE SMOOTH",
"277 358 OFFCURVE",
"257 324 OFFCURVE",
"213 324 CURVE SMOOTH",
"187 324 OFFCURVE",
"153 344 OFFCURVE",
"153 390 CURVE SMOOTH",
"153 462 OFFCURVE",
"210 508 OFFCURVE",
"280 508 CURVE SMOOTH",
"338 508 OFFCURVE",
"398 472 OFFCURVE",
"398 417 CURVE SMOOTH",
"398 356 OFFCURVE",
"345 319 OFFCURVE",
"285 290 CURVE",
"220 257 OFFCURVE",
"170 230 OFFCURVE",
"170 164 CURVE SMOOTH",
"170 90 OFFCURVE",
"268 27 OFFCURVE",
"414 27 CURVE SMOOTH",
"525 27 OFFCURVE",
"670 88 OFFCURVE",
"670 213 CURVE SMOOTH",
"670 281 OFFCURVE",
"618 321 OFFCURVE",
"526 357 CURVE SMOOTH",
"486 372 OFFCURVE",
"397 405 OFFCURVE",
"397 486 CURVE SMOOTH",
"397 567 OFFCURVE",
"452 601 OFFCURVE",
"504 601 CURVE SMOOTH",
"565 601 OFFCURVE",
"608 552 OFFCURVE",
"608 493 CURVE SMOOTH",
"608 435 OFFCURVE",
"552 389 OFFCURVE",
"505 356 CURVE SMOOTH",
"466 328 OFFCURVE",
"387 290 OFFCURVE",
"387 229 CURVE SMOOTH",
"387 187 OFFCURVE",
"430 167 OFFCURVE",
"480 167 CURVE SMOOTH",
"504 167 OFFCURVE",
"542 181 OFFCURVE",
"542 211 CURVE SMOOTH",
"542 231 OFFCURVE",
"527 248 OFFCURVE",
"503 248 CURVE SMOOTH",
"443 248 OFFCURVE",
"402 165 OFFCURVE",
"402 90 CURVE SMOOTH",
"402 -26 OFFCURVE",
"490 -87 OFFCURVE",
"615 -100 CURVE",
"613 -128 LINE",
"473 -112 OFFCURVE",
"375 -40 OFFCURVE",
"375 90 CURVE SMOOTH",
"375 183 OFFCURVE",
"424 275 OFFCURVE",
"503 275 CURVE SMOOTH",
"542 275 OFFCURVE",
"569 249 OFFCURVE",
"569 211 CURVE SMOOTH",
"569 163 OFFCURVE",
"521 140 OFFCURVE",
"480 140 CURVE SMOOTH",
"420 140 OFFCURVE"
);
}
);
width = 738;
}
);
unicode = 0DC2;
},
{
color = 4;
glyphname = snSA;
lastChange = "2022-07-23 16:24:18 +0000";
layers = (
{
layerId = "25BA55F5-DD3E-4682-A696-ADF7D9496427";
name = Light;
paths = (
{
closed = 1;
nodes = (
"451 349 OFFCURVE",
"477 378 OFFCURVE",
"477 412 CURVE SMOOTH",
"477 465 OFFCURVE",
"434 480 OFFCURVE",
"395 480 CURVE SMOOTH",
"349 480 OFFCURVE",
"282 452 OFFCURVE",
"282 374 CURVE SMOOTH",
"282 357 OFFCURVE",
"293 330 OFFCURVE",
"320 330 CURVE SMOOTH",
"340 330 OFFCURVE",
"347 351 OFFCURVE",
"347 373 CURVE SMOOTH",
"347 420 OFFCURVE",
"272 449 OFFCURVE",
"230 449 CURVE SMOOTH",
"154 449 OFFCURVE",
"104 396 OFFCURVE",
"104 342 CURVE SMOOTH",
"104 334 OFFCURVE",
"106 330 OFFCURVE",
"106 329 CURVE",
"78 319 LINE",
"77 320 OFFCURVE",
"75 327 OFFCURVE",
"75 339 CURVE SMOOTH",
"75 415 OFFCURVE",
"141 477 OFFCURVE",
"230 477 CURVE SMOOTH",
"283 477 OFFCURVE",
"375 446 OFFCURVE",
"375 367 CURVE SMOOTH",
"375 327 OFFCURVE",
"347 303 OFFCURVE",
"320 303 CURVE SMOOTH",
"270 303 OFFCURVE",
"254 345 OFFCURVE",
"254 377 CURVE SMOOTH",
"254 450 OFFCURVE",
"316 507 OFFCURVE",
"394 507 CURVE SMOOTH",
"451 507 OFFCURVE",
"503 483 OFFCURVE",
"503 412 CURVE SMOOTH",
"503 351 OFFCURVE",
"452 318 OFFCURVE",
"365 276 CURVE",
"322 256 OFFCURVE",
"266 230 OFFCURVE",
"200 188 CURVE",
"59 101 OFFCURVE",
"24 28 OFFCURVE",
"24 27 CURVE",
"0 38 LINE",
"2 41 OFFCURVE",
"37 119 OFFCURVE",
"184 212 CURVE",
"247 251 OFFCURVE",
"347 300 OFFCURVE",
"391 320 CURVE SMOOTH"
);
},
{
closed = 1;
nodes = (
"680 529 OFFCURVE",
"680 396 CURVE SMOOTH",
"680 350 OFFCURVE",
"708 314 OFFCURVE",
"755 314 CURVE SMOOTH",
"804 314 OFFCURVE",
"820 366 OFFCURVE",
"820 391 CURVE SMOOTH",
"820 482 OFFCURVE",
"719 541 OFFCURVE",
"650 541 CURVE SMOOTH",
"589 541 OFFCURVE",
"514 507 OFFCURVE",
"514 433 CURVE SMOOTH",
"514 354 OFFCURVE",
"590 343 OFFCURVE",
"657 302 CURVE",
"733 256 OFFCURVE",
"812 223 OFFCURVE",
"812 136 CURVE SMOOTH",
"812 54 OFFCURVE",
"756 0 OFFCURVE",
"667 0 CURVE SMOOTH",
"578 0 OFFCURVE",
"524 60 OFFCURVE",
"506 120 CURVE",
"492 48 OFFCURVE",
"447 0 OFFCURVE",
"369 0 CURVE SMOOTH",
"291 0 OFFCURVE",
"233 51 OFFCURVE",
"233 119 CURVE SMOOTH",
"233 202 OFFCURVE",
"293 250 OFFCURVE",
"350 288 CURVE",
"385 288 LINE",
"327 245 OFFCURVE",
"261 193 OFFCURVE",
"261 120 CURVE SMOOTH",
"261 71 OFFCURVE",
"301 29 OFFCURVE",
"369 29 CURVE SMOOTH",
"465 29 OFFCURVE",
"488 119 OFFCURVE",
"488 208 CURVE SMOOTH",
"488 219 LINE",
"517 221 LINE",
"517 219 LINE SMOOTH",
"517 95 OFFCURVE",
"587 27 OFFCURVE",
"667 27 CURVE SMOOTH",
"738 27 OFFCURVE",
"784 65 OFFCURVE",
"784 136 CURVE SMOOTH",
"784 208 OFFCURVE",
"716 234 OFFCURVE",
"642 279 CURVE",
"571 322 OFFCURVE",
"486 338 OFFCURVE",
"485 433 CURVE SMOOTH",
"484 508 OFFCURVE",
"546 568 OFFCURVE",
"647 568 CURVE SMOOTH",
"743 568 OFFCURVE",
"846 497 OFFCURVE",
"846 399 CURVE SMOOTH",
"846 306 OFFCURVE",
"783 286 OFFCURVE",
"755 286 CURVE SMOOTH",
"693 286 OFFCURVE",
"652 338 OFFCURVE",
"652 395 CURVE SMOOTH",
"652 550 OFFCURVE",
"844 595 OFFCURVE",
"975 595 CURVE SMOOTH",
"1022 595 OFFCURVE",
"1055 590 OFFCURVE",
"1057 590 CURVE",
"1054 564 LINE",
"1053 564 OFFCURVE",
"1025 568 OFFCURVE",
"974 568 CURVE SMOOTH",
"860 568 OFFCURVE"
);
}
);
width = 897;
}
);
unicode = 0DC3;
},
{
color = 4;
glyphname = snHA;
lastChange = "2022-07-23 16:24:18 +0000";
layers = (
{
layerId = "25BA55F5-DD3E-4682-A696-ADF7D9496427";
name = Light;
paths = (
{
closed = 1;
nodes = (
"215 417 OFFCURVE",
"202 389 OFFCURVE",
"202 367 CURVE SMOOTH",
"202 329 OFFCURVE",
"229 305 OFFCURVE",
"249 305 CURVE SMOOTH",
"271 305 OFFCURVE",
"286 318 OFFCURVE",
"286 352 CURVE SMOOTH",
"286 388 OFFCURVE",
"264 413 OFFCURVE",
"236 433 CURVE"
);
},
{
closed = 1;
nodes = (
"407 -253 LINE",
"614 -239 OFFCURVE",
"715 -151 OFFCURVE",
"715 48 CURVE SMOOTH",
"715 115 OFFCURVE",
"677 287 OFFCURVE",
"677 354 CURVE SMOOTH",
"677 422 OFFCURVE",
"699 459 OFFCURVE",
"732 482 CURVE",
"526 445 OFFCURVE",
"469 339 OFFCURVE",
"408 248 CURVE",
"419 251 OFFCURVE",
"431 253 OFFCURVE",
"442 253 CURVE SMOOTH",
"490 253 OFFCURVE",
"531 224 OFFCURVE",
"531 163 CURVE SMOOTH",
"531 58 OFFCURVE",
"431 1 OFFCURVE",
"338 1 CURVE SMOOTH",
"269 1 OFFCURVE",
"188 40 OFFCURVE",
"188 115 CURVE SMOOTH",
"188 196 OFFCURVE",
"260 244 OFFCURVE",
"314 279 CURVE SMOOTH",
"354 305 OFFCURVE",
"406 357 OFFCURVE",
"406 427 CURVE SMOOTH",
"406 456 OFFCURVE",
"380 481 OFFCURVE",
"340 481 CURVE SMOOTH",
"307 481 OFFCURVE",
"276 462 OFFCURVE",
"259 448 CURVE",
"288 427 OFFCURVE",
"313 395 OFFCURVE",
"313 352 CURVE SMOOTH",
"313 314 OFFCURVE",
"295 279 OFFCURVE",
"249 279 CURVE SMOOTH",
"208 279 OFFCURVE",
"176 318 OFFCURVE",
"176 367 CURVE SMOOTH",
"176 393 OFFCURVE",
"190 427 OFFCURVE",
"210 445 CURVE",
"193 452 OFFCURVE",
"173 457 OFFCURVE",
"148 457 CURVE SMOOTH",
"91 457 OFFCURVE",
"29 419 OFFCURVE",
"29 336 CURVE",
"0 336 LINE",
"0 407 OFFCURVE",
"47 483 OFFCURVE",
"148 483 CURVE SMOOTH",
"188 483 OFFCURVE",
"207 476 OFFCURVE",
"233 464 CURVE",
"257 483 OFFCURVE",
"299 507 OFFCURVE",
"340 507 CURVE SMOOTH",
"400 507 OFFCURVE",
"434 474 OFFCURVE",
"434 429 CURVE SMOOTH",
"434 351 OFFCURVE",
"384 297 OFFCURVE",
"327 254 CURVE SMOOTH",
"279 218 OFFCURVE",
"215 181 OFFCURVE",
"215 115 CURVE SMOOTH",
"215 77 OFFCURVE",
"256 29 OFFCURVE",
"338 29 CURVE SMOOTH",
"419 29 OFFCURVE",
"504 75 OFFCURVE",
"504 163 CURVE SMOOTH",
"504 201 OFFCURVE",
"480 227 OFFCURVE",
"444 227 CURVE SMOOTH",
"418 227 OFFCURVE",
"389 215 OFFCURVE",
"375 196 CURVE",
"354 211 LINE",
"436 343 OFFCURVE",
"505 493 OFFCURVE",
"818 521 CURVE",
"824 493 LINE",
"757 485 OFFCURVE",
"704 445 OFFCURVE",
"704 356 CURVE SMOOTH",
"704 278 OFFCURVE",
"741 128 OFFCURVE",
"741 50 CURVE SMOOTH",
"741 -166 OFFCURVE",
"626 -265 OFFCURVE",
"408 -281 CURVE"
);
}
);
width = 794;
}
);
unicode = 0DC4;
},
{
color = 4;
glyphname = snLLA;
lastChange = "2022-07-23 16:24:18 +0000";
layers = (
{
layerId = "25BA55F5-DD3E-4682-A696-ADF7D9496427";
name = Light;
paths = (
{
closed = 1;
nodes = (
"193 500 OFFCURVE",
"162 411 OFFCURVE",
"166 327 CURVE SMOOTH",
"169 272 OFFCURVE",
"185 229 OFFCURVE",
"205 193 CURVE",
"251 215 OFFCURVE",
"300 228 OFFCURVE",
"350 242 CURVE SMOOTH",
"470 277 OFFCURVE",
"577 305 OFFCURVE",
"577 415 CURVE SMOOTH",
"577 455 OFFCURVE",
"548 503 OFFCURVE",
"498 503 CURVE SMOOTH",
"402 503 OFFCURVE",
"394 401 OFFCURVE",
"394 396 CURVE",
"366 398 LINE",
"366 450 OFFCURVE",
"331 500 OFFCURVE",
"276 500 CURVE SMOOTH"
);
},
{
closed = 1;
nodes = (
"189 -298 OFFCURVE",
"40 -192 OFFCURVE",
"40 -37 CURVE SMOOTH",
"40 78 OFFCURVE",
"103 141 OFFCURVE",
"180 182 CURVE",
"158 220 OFFCURVE",
"143 270 OFFCURVE",
"139 327 CURVE SMOOTH",
"130 456 OFFCURVE",
"196 522 OFFCURVE",
"262 527 CURVE SMOOTH",
"314 531 OFFCURVE",
"357 509 OFFCURVE",
"380 456 CURVE",
"399 494 OFFCURVE",
"435 530 OFFCURVE",
"498 530 CURVE SMOOTH",
"562 530 OFFCURVE",
"605 469 OFFCURVE",
"605 415 CURVE SMOOTH",
"605 286 OFFCURVE",
"480 248 OFFCURVE",
"358 215 CURVE SMOOTH",
"310 202 OFFCURVE",
"262 190 OFFCURVE",
"218 171 CURVE",
"277 91 OFFCURVE",
"374 66 OFFCURVE",
"433 66 CURVE SMOOTH",
"497 66 OFFCURVE",
"542 89 OFFCURVE",
"542 89 CURVE",
"555 67 LINE",
"553 64 OFFCURVE",
"503 38 OFFCURVE",
"432 38 CURVE SMOOTH",
"349 38 OFFCURVE",
"254 79 OFFCURVE",
"194 157 CURVE",
"125 122 OFFCURVE",
"68 64 OFFCURVE",
"68 -37 CURVE SMOOTH",
"68 -174 OFFCURVE",
"200 -271 OFFCURVE",
"400 -270 CURVE SMOOTH",
"615 -269 OFFCURVE",
"771 -122 OFFCURVE",
"771 103 CURVE SMOOTH",
"771 132 OFFCURVE",
"765 176 OFFCURVE",
"751 217 CURVE",
"776 226 LINE",
"792 182 OFFCURVE",
"798 130 OFFCURVE",
"798 99 CURVE SMOOTH",
"798 -118 OFFCURVE",
"653 -296 OFFCURVE",
"400 -297 CURVE SMOOTH"
);
}
);
width = 838;
}
);
unicode = 0DC5;
},
{
color = 4;
glyphname = snFA;
lastChange = "2022-07-23 16:24:18 +0000";
layers = (
{
layerId = "25BA55F5-DD3E-4682-A696-ADF7D9496427";
name = Light;
paths = (
{
closed = 1;
nodes = (
"181 320 OFFCURVE",
"181 184 CURVE SMOOTH",
"181 80 OFFCURVE",
"215 27 OFFCURVE",
"269 27 CURVE SMOOTH",
"309 27 OFFCURVE",
"320 63 OFFCURVE",
"320 90 CURVE SMOOTH",
"320 155 OFFCURVE",
"276 201 OFFCURVE",
"201 201 CURVE SMOOTH",
"102 201 OFFCURVE",
"45 131 OFFCURVE",
"45 57 CURVE SMOOTH",
"45 37 OFFCURVE",
"48 25 OFFCURVE",
"51 15 CURVE",
"26 8 LINE",
"22 21 OFFCURVE",
"20 34 OFFCURVE",
"20 60 CURVE SMOOTH",
"20 147 OFFCURVE",
"99 228 OFFCURVE",
"202 228 CURVE SMOOTH",
"282 228 OFFCURVE",
"348 175 OFFCURVE",
"348 91 CURVE SMOOTH",
"348 46 OFFCURVE",
"322 0 OFFCURVE",
"269 0 CURVE SMOOTH",
"223 0 OFFCURVE",
"153 32 OFFCURVE",
"153 184 CURVE SMOOTH",
"153 339 OFFCURVE",
"213 507 OFFCURVE",
"351 507 CURVE SMOOTH",
"507 507 OFFCURVE",
"537 319 OFFCURVE",
"537 77 CURVE",
"511 77 LINE",
"511 280 OFFCURVE",
"483 480 OFFCURVE",
"351 480 CURVE SMOOTH",
"233 480 OFFCURVE"
);
},
{
closed = 1;
nodes = (
"610 -180 OFFCURVE",
"556 -173 OFFCURVE",
"495 -138 CURVE",
"505 -114 LINE",
"562 -145 OFFCURVE",
"613 -153 OFFCURVE",
"659 -153 CURVE SMOOTH",
"808 -153 OFFCURVE",
"894 8 OFFCURVE",
"894 192 CURVE SMOOTH",
"894 313 OFFCURVE",
"857 493 OFFCURVE",
"714 493 CURVE SMOOTH",
"580 493 OFFCURVE",
"537 306 OFFCURVE",
"537 125 CURVE",
"537 78 LINE",
"511 77 LINE",
"511 125 LINE",
"511 319 OFFCURVE",
"551 520 OFFCURVE",
"714 520 CURVE SMOOTH",
"830 520 OFFCURVE",
"920 418 OFFCURVE",
"920 192 CURVE SMOOTH",
"920 -20 OFFCURVE",
"816 -180 OFFCURVE",
"659 -180 CURVE SMOOTH"
);
}
);
width = 960;
}
);
unicode = 0DC6;
},
{
color = 4;
glyphname = snK_SSA;
lastChange = "2022-07-23 16:24:18 +0000";
layers = (
{
components = (
{
name = snSSA;
transform = "{1, 0, 0, 1, 525, 0}";
}
);
layerId = "25BA55F5-DD3E-4682-A696-ADF7D9496427";
name = Light;
paths = (
{
closed = 1;
nodes = (
"604 468 OFFCURVE",
"502 413 OFFCURVE",
"415 340 CURVE SMOOTH",
"331 269 OFFCURVE",
"231 175 OFFCURVE",
"184 103 CURVE",
"210 115 LINE",
"218 91 OFFCURVE",
"250 27 OFFCURVE",
"315 27 CURVE SMOOTH",
"367 27 OFFCURVE",
"381 80 OFFCURVE",
"381 111 CURVE",
"407 111 LINE",
"407 59 OFFCURVE",
"442 27 OFFCURVE",
"490 27 CURVE SMOOTH",
"549 27 OFFCURVE",
"581 84 OFFCURVE",
"581 141 CURVE SMOOTH",
"581 156 OFFCURVE",
"581 263 OFFCURVE",
"468 263 CURVE SMOOTH",
"424 263 OFFCURVE",
"390 244 OFFCURVE",
"349 201 CURVE SMOOTH",
"317 167 LINE",
"300 183 LINE",
"334 219 LINE SMOOTH",
"380 267 OFFCURVE",
"404 315 OFFCURVE",
"404 368 CURVE SMOOTH",
"404 449 OFFCURVE",
"361 478 OFFCURVE",
"319 478 CURVE SMOOTH",
"267 478 OFFCURVE",
"213 440 OFFCURVE",
"213 360 CURVE SMOOTH",
"213 320 OFFCURVE",
"230 297 OFFCURVE",
"253 297 CURVE SMOOTH",
"273 297 OFFCURVE",
"280 315 OFFCURVE",
"280 338 CURVE SMOOTH",
"280 405 OFFCURVE",
"197 424 OFFCURVE",
"154 424 CURVE SMOOTH",
"138 424 OFFCURVE",
"122 421 OFFCURVE",
"106 415 CURVE",
"40 391 OFFCURVE",
"23 338 OFFCURVE",
"23 335 CURVE",
"0 343 LINE",
"0 346 OFFCURVE",
"18 410 OFFCURVE",
"99 439 CURVE",
"117 446 OFFCURVE",
"138 449 OFFCURVE",
"158 449 CURVE SMOOTH",
"227 449 OFFCURVE",
"306 416 OFFCURVE",
"306 338 CURVE SMOOTH",
"306 299 OFFCURVE",
"287 270 OFFCURVE",
"252 270 CURVE SMOOTH",
"221 270 OFFCURVE",
"185 303 OFFCURVE",
"185 359 CURVE SMOOTH",
"185 453 OFFCURVE",
"249 504 OFFCURVE",
"320 504 CURVE SMOOTH",
"384 504 OFFCURVE",
"430 462 OFFCURVE",
"430 366 CURVE SMOOTH",
"430 344 OFFCURVE",
"424 313 OFFCURVE",
"403 272 CURVE",
"419 281 OFFCURVE",
"440 291 OFFCURVE",
"468 290 CURVE SMOOTH",
"578 285 OFFCURVE",
"607 203 OFFCURVE",
"607 148 CURVE SMOOTH",
"607 84 OFFCURVE",
"575 0 OFFCURVE",
"490 0 CURVE SMOOTH",
"442 0 OFFCURVE",
"411 22 OFFCURVE",
"394 55 CURVE",
"384 27 OFFCURVE",
"359 0 OFFCURVE",
"315 0 CURVE SMOOTH",
"242 0 OFFCURVE",
"208 62 OFFCURVE",
"197 83 CURVE",
"172 71 LINE",
"147 92 LINE",
"230 222 OFFCURVE",
"338 303 OFFCURVE",
"415 372 CURVE SMOOTH",
"498 447 OFFCURVE",
"598 490 OFFCURVE",
"679 490 CURVE",
"679 468 LINE"
);
}
);
width = 1263;
}
);
},
{
color = 4;
glyphname = snVirama;
lastChange = "2022-08-02 02:51:20 +0000";
layers = (
{
layerId = "25BA55F5-DD3E-4682-A696-ADF7D9496427";
name = Light;
paths = (
{
closed = 1;
nodes = (
"-77 788 OFFCURVE",
"-25 788 CURVE SMOOTH",
"12 788 OFFCURVE",
"39 804 OFFCURVE",
"51 816 CURVE",
"67 796 LINE",
"42 772 OFFCURVE",
"6 761 OFFCURVE",
"-25 761 CURVE SMOOTH",
"-77 761 OFFCURVE",
"-142 789 OFFCURVE",
"-142 882 CURVE SMOOTH",
"-142 928 OFFCURVE",
"-115 982 OFFCURVE",
"-65 982 CURVE SMOOTH",
"-37 982 OFFCURVE",
"0 960 OFFCURVE",
"0 913 CURVE SMOOTH",
"0 842 OFFCURVE",
"-79 803 OFFCURVE",
"-173 803 CURVE SMOOTH",
"-261 803 OFFCURVE",
"-326 847 OFFCURVE",
"-326 944 CURVE SMOOTH",
"-326 1027 OFFCURVE",
"-271 1116 OFFCURVE",
"-162 1132 CURVE",
"-162 507 LINE",
"-189 507 LINE",
"-189 1097 LINE",
"-220 1090 OFFCURVE",
"-299 1042 OFFCURVE",
"-299 944 CURVE SMOOTH",
"-299 856 OFFCURVE",
"-238 830 OFFCURVE",
"-171 830 CURVE SMOOTH",
"-115 830 OFFCURVE",
"-28 850 OFFCURVE",
"-28 914 CURVE SMOOTH",
"-28 942 OFFCURVE",
"-46 955 OFFCURVE",
"-65 955 CURVE SMOOTH",
"-99 955 OFFCURVE",
"-114 915 OFFCURVE",
"-114 882 CURVE SMOOTH",
"-114 819 OFFCURVE"
);
}
);
width = 0;
}
);
unicode = 0DCA;
category = Mark;
},
{
color = 4;
glyphname = snKunddaliya;
lastChange = "2022-07-24 14:01:46 +0000";
layers = (
{
background = {
paths = (
{
closed = 1;
nodes = (
"311 49 LINE",
"310 58 OFFCURVE",
"306 73 OFFCURVE",
"296 115 CURVE",
"260 44 OFFCURVE",
"213 7 OFFCURVE",
"146 7 CURVE SMOOTH",
"63 7 OFFCURVE",
"20 67 OFFCURVE",
"20 148 CURVE",
"123 148 LINE",
"130 121 OFFCURVE",
"141 107 OFFCURVE",
"161 107 CURVE SMOOTH",
"217 107 OFFCURVE",
"245 182 OFFCURVE",
"279 272 CURVE",
"339 272 LINE",
"342 246 OFFCURVE",
"346 226 OFFCURVE",
"351 208 CURVE",
"371 263 OFFCURVE",
"397 324 OFFCURVE",
"427 387 CURVE",
"489 387 LINE",
"491 357 OFFCURVE",
"498 319 OFFCURVE",
"508 267 CURVE",
"542 340 OFFCURVE",
"574 399 OFFCURVE",
"603 440 CURVE",
"666 440 LINE",
"667 422 OFFCURVE",
"668 402 OFFCURVE",
"669 374 CURVE SMOOTH",
"674 287 LINE",
"715 346 OFFCURVE",
"737 374 OFFCURVE",
"770 414 CURVE",
"832 414 LINE",
"828 354 OFFCURVE",
"823 296 OFFCURVE",
"818 233 CURVE",
"852 267 OFFCURVE",
"872 288 OFFCURVE",
"897 313 CURVE",
"949 313 LINE",
"939 252 OFFCURVE",
"933 205 OFFCURVE",
"927 163 CURVE",
"949 182 OFFCURVE",
"955 190 OFFCURVE",
"974 211 CURVE",
"1021 211 LINE",
"1021 164 OFFCURVE",
"1038 100 OFFCURVE",
"1073 100 CURVE SMOOTH",
"1091 100 OFFCURVE",
"1100 112 OFFCURVE",
"1100 137 CURVE SMOOTH",
"1100 144 OFFCURVE",
"1099 150 OFFCURVE",
"1097 163 CURVE",
"1195 163 LINE",
"1199 157 OFFCURVE",
"1200 139 OFFCURVE",
"1200 119 CURVE SMOOTH",
"1200 44 OFFCURVE",
"1161 2 OFFCURVE",
"1085 2 CURVE SMOOTH",
"1014 2 OFFCURVE",
"971 34 OFFCURVE",
"956 99 CURVE",
"929 71 OFFCURVE",
"921 63 OFFCURVE",
"894 35 CURVE",
"836 35 LINE",
"845 101 OFFCURVE",
"853 128 OFFCURVE",
"860 172 CURVE",
"832 146 OFFCURVE",
"819 128 OFFCURVE",
"785 94 CURVE",
"734 94 LINE",
"737 248 LINE",
"708 207 OFFCURVE",
"681 165 OFFCURVE",
"657 129 CURVE",
"603 129 LINE",
"593 264 LINE",
"559 193 OFFCURVE",
"536 135 OFFCURVE",
"521 98 CURVE",
"458 98 LINE",
"449 148 OFFCURVE",
"440 183 OFFCURVE",
"433 211 CURVE",
"417 175 OFFCURVE",
"394 119 OFFCURVE",
"365 49 CURVE"
);
}
);
};
layerId = "25BA55F5-DD3E-4682-A696-ADF7D9496427";
name = Light;
paths = (
{
closed = 1;
nodes = (
"1079 2 OFFCURVE",
"1097 85 OFFCURVE",
"1085 147 CURVE",
"1062 147 LINE",
"1070 91 OFFCURVE",
"1054 29 OFFCURVE",
"1006 29 CURVE SMOOTH",
"937 29 OFFCURVE",
"921 119 OFFCURVE",
"909 191 CURVE",
"895 191 LINE",
"835 94 LINE",
"859 283 LINE",
"838 283 LINE",
"721 120 LINE",
"765 375 LINE",
"741 375 LINE",
"630 178 LINE",
"623 399 LINE",
"598 399 LINE",
"492 148 LINE",
"472 351 LINE",
"451 350 LINE",
"354 101 LINE",
"334 246 LINE",
"310 246 LINE",
"282 153 OFFCURVE",
"249 71 OFFCURVE",
"200 71 CURVE SMOOTH",
"160 71 OFFCURVE",
"152 109 OFFCURVE",
"153 134 CURVE",
"125 134 LINE",
"125 70 OFFCURVE",
"163 44 OFFCURVE",
"200 44 CURVE SMOOTH",
"249 44 OFFCURVE",
"293 108 OFFCURVE",
"316 187 CURVE",
"337 44 LINE",
"360 44 LINE",
"453 283 LINE",
"474 88 LINE",
"496 88 LINE",
"601 350 LINE",
"607 117 LINE",
"623 117 LINE",
"726 298 LINE",
"690 85 LINE",
"725 85 LINE",
"827 228 LINE",
"803 31 LINE",
"822 31 LINE",
"893 147 LINE",
"914 46 OFFCURVE",
"948 2 OFFCURVE",
"1006 2 CURVE SMOOTH"
);
}
);
width = 1213;
}
);
unicode = 0DF4;
},
{
color = 4;
glyphname = snReph;
lastChange = "2022-08-02 02:51:20 +0000";
layers = (
{
background = {
paths = (
{
closed = 1;
nodes = (
"-253 609 OFFCURVE",
"-268 586 OFFCURVE",
"-301 586 CURVE SMOOTH",
"-334 586 OFFCURVE",
"-348 609 OFFCURVE",
"-348 636 CURVE SMOOTH",
"-348 664 OFFCURVE",
"-334 686 OFFCURVE",
"-301 686 CURVE SMOOTH",
"-268 686 OFFCURVE",
"-253 664 OFFCURVE",
"-253 636 CURVE SMOOTH"
);
},
{
closed = 1;
nodes = (
"-139 532 LINE",
"-110 571 OFFCURVE",
"-100 622 OFFCURVE",
"-100 664 CURVE SMOOTH",
"-100 777 OFFCURVE",
"-196 841 OFFCURVE",
"-299 841 CURVE",
"-408 842 OFFCURVE",
"-490 778 OFFCURVE",
"-490 680 CURVE",
"-490 585 OFFCURVE",
"-414 530 OFFCURVE",
"-321 530 CURVE",
"-251 531 OFFCURVE",
"-200 569 OFFCURVE",
"-200 638 CURVE SMOOTH",
"-200 699 OFFCURVE",
"-242 736 OFFCURVE",
"-302 736 CURVE SMOOTH",
"-363 736 OFFCURVE",
"-399 699 OFFCURVE",
"-399 645 CURVE SMOOTH",
"-399 611 OFFCURVE",
"-380 584 OFFCURVE",
"-360 577 CURVE",
"-353 588 LINE",
"-406 588 OFFCURVE",
"-430 634 OFFCURVE",
"-430 679 CURVE",
"-430 748 OFFCURVE",
"-384 788 OFFCURVE",
"-299 788 CURVE",
"-228 788 OFFCURVE",
"-159 752 OFFCURVE",
"-159 665 CURVE SMOOTH",
"-159 618 OFFCURVE",
"-175 571 OFFCURVE",
"-205 532 CURVE"
);
}
);
};
layerId = "25BA55F5-DD3E-4682-A696-ADF7D9496427";
name = Light;
paths = (
{
closed = 1;
nodes = (
"-318 619 OFFCURVE",
"-335 596 OFFCURVE",
"-360 596 CURVE SMOOTH",
"-393 596 OFFCURVE",
"-410 619 OFFCURVE",
"-410 646 CURVE SMOOTH",
"-410 667 OFFCURVE",
"-399 696 OFFCURVE",
"-366 696 CURVE SMOOTH",
"-333 696 OFFCURVE",
"-318 674 OFFCURVE",
"-318 646 CURVE SMOOTH"
);
},
{
closed = 1;
nodes = (
"-258 572 LINE",
"-234 599 OFFCURVE",
"-214 642 OFFCURVE",
"-214 674 CURVE SMOOTH",
"-214 764 OFFCURVE",
"-289 802 OFFCURVE",
"-352 802 CURVE SMOOTH",
"-431 802 OFFCURVE",
"-494 755 OFFCURVE",
"-494 680 CURVE SMOOTH",
"-494 615 OFFCURVE",
"-443 570 OFFCURVE",
"-376 570 CURVE SMOOTH",
"-314 570 OFFCURVE",
"-290 609 OFFCURVE",
"-290 648 CURVE SMOOTH",
"-290 709 OFFCURVE",
"-337 723 OFFCURVE",
"-367 723 CURVE SMOOTH",
"-394 723 OFFCURVE",
"-438 702 OFFCURVE",
"-438 648 CURVE SMOOTH",
"-438 614 OFFCURVE",
"-419 594 OFFCURVE",
"-395 587 CURVE",
"-388 598 LINE",
"-445 598 OFFCURVE",
"-466 644 OFFCURVE",
"-466 679 CURVE SMOOTH",
"-466 735 OFFCURVE",
"-417 775 OFFCURVE",
"-353 775 CURVE SMOOTH",
"-291 775 OFFCURVE",
"-242 739 OFFCURVE",
"-242 675 CURVE SMOOTH",
"-242 648 OFFCURVE",
"-252 618 OFFCURVE",
"-281 585 CURVE"
);
}
);
width = 0;
}
);
category = Mark;
},
{
color = 4;
glyphname = snYAc2;
lastChange = "2022-07-24 13:40:41 +0000";
layers = (
{
background = {
paths = (
{
closed = 1;
nodes = (
"69 553 OFFCURVE",
"27 494 OFFCURVE",
"27 429 CURVE",
"87 429 LINE",
"88 466 OFFCURVE",
"106 498 OFFCURVE",
"162 498 CURVE",
"213 498 OFFCURVE",
"237 466 OFFCURVE",
"237 422 CURVE SMOOTH",
"237 377 OFFCURVE",
"211 315 OFFCURVE",
"170 247 CURVE SMOOTH",
"20 0 LINE",
"84 0 LINE",
"223 227 LINE SMOOTH",
"272 307 OFFCURVE",
"298 367 OFFCURVE",
"298 425 CURVE SMOOTH",
"298 500 OFFCURVE",
"243 553 OFFCURVE",
"157 553 CURVE SMOOTH"
);
},
{
closed = 1;
nodes = (
"84 0 LINE",
"105 24 OFFCURVE",
"132 33 OFFCURVE",
"164 33 CURVE SMOOTH",
"238 33 OFFCURVE",
"339 -10 OFFCURVE",
"455 -10 CURVE SMOOTH",
"611 -10 OFFCURVE",
"688 65 OFFCURVE",
"688 195 CURVE SMOOTH",
"688 299 OFFCURVE",
"606 380 OFFCURVE",
"485 380 CURVE",
"425 380 LINE",
"425 439 OFFCURVE",
"446 498 OFFCURVE",
"520 498 CURVE",
"573 498 OFFCURVE",
"600 469 OFFCURVE",
"601 424 CURVE",
"661 424 LINE",
"661 492 OFFCURVE",
"613 553 OFFCURVE",
"521 553 CURVE SMOOTH",
"405 553 OFFCURVE",
"361 462 OFFCURVE",
"361 367 CURVE",
"361 353 OFFCURVE",
"361 340 OFFCURVE",
"363 326 CURVE",
"466 326 LINE",
"573 326 OFFCURVE",
"624 272 OFFCURVE",
"624 196 CURVE SMOOTH",
"624 97 OFFCURVE",
"577 45 OFFCURVE",
"454 45 CURVE SMOOTH",
"352 45 OFFCURVE",
"253 86 OFFCURVE",
"179 86 CURVE SMOOTH",
"140 86 OFFCURVE",
"107 75 OFFCURVE",
"84 42 CURVE"
);
}
);
};
layerId = "25BA55F5-DD3E-4682-A696-ADF7D9496427";
name = Light;
paths = (
{
closed = 1;
nodes = (
"159 30 OFFCURVE",
"254 121 OFFCURVE",
"327 201 CURVE SMOOTH",
"377 255 OFFCURVE",
"434 319 OFFCURVE",
"434 397 CURVE SMOOTH",
"434 442 OFFCURVE",
"400 507 OFFCURVE",
"310 507 CURVE SMOOTH",
"249 507 OFFCURVE",
"176 460 OFFCURVE",
"176 367 CURVE SMOOTH",
"176 318 OFFCURVE",
"208 279 OFFCURVE",
"249 279 CURVE SMOOTH",
"295 279 OFFCURVE",
"313 314 OFFCURVE",
"313 352 CURVE SMOOTH",
"313 424 OFFCURVE",
"228 483 OFFCURVE",
"148 483 CURVE SMOOTH",
"47 483 OFFCURVE",
"0 407 OFFCURVE",
"0 336 CURVE",
"29 336 LINE",
"29 419 OFFCURVE",
"91 457 OFFCURVE",
"148 457 CURVE SMOOTH",
"207 457 OFFCURVE",
"286 411 OFFCURVE",
"286 352 CURVE SMOOTH",
"286 318 OFFCURVE",
"271 305 OFFCURVE",
"249 305 CURVE SMOOTH",
"229 305 OFFCURVE",
"202 329 OFFCURVE",
"202 367 CURVE SMOOTH",
"202 440 OFFCURVE",
"260 481 OFFCURVE",
"310 481 CURVE SMOOTH",
"380 481 OFFCURVE",
"406 424 OFFCURVE",
"406 395 CURVE SMOOTH",
"406 325 OFFCURVE",
"348 260 OFFCURVE",
"314 226 CURVE SMOOTH",
"235 147 OFFCURVE",
"132 45 OFFCURVE",
"132 -36 CURVE",
"159 -36 LINE"
);
},
{
closed = 1;
nodes = (
"652 465 OFFCURVE",
"638 441 OFFCURVE",
"608 441 CURVE SMOOTH",
"589 441 OFFCURVE",
"549 452 OFFCURVE",
"549 512 CURVE SMOOTH",
"549 590 OFFCURVE",
"615 634 OFFCURVE",
"693 634 CURVE SMOOTH",
"736 634 OFFCURVE",
"791 610 OFFCURVE",
"840 563 CURVE",
"861 583 LINE",
"814 628 OFFCURVE",
"756 661 OFFCURVE",
"694 661 CURVE SMOOTH",
"574 661 OFFCURVE",
"522 586 OFFCURVE",
"522 512 CURVE SMOOTH",
"522 441 OFFCURVE",
"571 414 OFFCURVE",
"608 414 CURVE SMOOTH",
"647 414 OFFCURVE",
"679 437 OFFCURVE",
"679 492 CURVE SMOOTH",
"679 553 OFFCURVE",
"632 600 OFFCURVE",
"567 600 CURVE SMOOTH",
"488 600 OFFCURVE",
"440 539 OFFCURVE",
"440 469 CURVE SMOOTH",
"440 394 OFFCURVE",
"497 355 OFFCURVE",
"538 319 CURVE SMOOTH",
"598 267 OFFCURVE",
"655 227 OFFCURVE",
"655 156 CURVE SMOOTH",
"655 81 OFFCURVE",
"595 27 OFFCURVE",
"520 27 CURVE SMOOTH",
"418 27 OFFCURVE",
"382 109 OFFCURVE",
"275 109 CURVE SMOOTH",
"240 109 OFFCURVE",
"208 103 OFFCURVE",
"171 50 CURVE",
"183 32 LINE",
"212 76 OFFCURVE",
"242 82 OFFCURVE",
"272 82 CURVE SMOOTH",
"383 82 OFFCURVE",
"402 0 OFFCURVE",
"523 0 CURVE SMOOTH",
"576 0 OFFCURVE",
"683 31 OFFCURVE",
"683 156 CURVE SMOOTH",
"683 247 OFFCURVE",
"607 298 OFFCURVE",
"551 344 CURVE SMOOTH",
"508 379 OFFCURVE",
"468 412 OFFCURVE",
"468 471 CURVE SMOOTH",
"468 535 OFFCURVE",
"515 573 OFFCURVE",
"567 573 CURVE SMOOTH",
"614 573 OFFCURVE",
"652 537 OFFCURVE",
"652 490 CURVE SMOOTH"
);
}
);
width = 751;
}
);
},
{
color = 4;
glyphname = snRAc2;
lastChange = "2022-08-02 02:51:20 +0000";
layers = (
{
background = {
paths = (
{
closed = 1;
nodes = (
"-100 -200 OFFCURVE",
"-24 -115 OFFCURVE",
"-24 14 CURVE SMOOTH",
"-24 17 OFFCURVE",
"-24 20 OFFCURVE",
"-24 23 CURVE",
"-84 23 LINE",
"-84 20 OFFCURVE",
"-84 18 OFFCURVE",
"-84 15 CURVE SMOOTH",
"-84 -88 OFFCURVE",
"-130 -145 OFFCURVE",
"-227 -145 CURVE SMOOTH",
"-298 -145 OFFCURVE",
"-361 -114 OFFCURVE",
"-412 -58 CURVE",
"-412 -128 LINE",
"-370 -165 OFFCURVE",
"-308 -200 OFFCURVE",
"-227 -200 CURVE SMOOTH"
);
}
);
};
layerId = "25BA55F5-DD3E-4682-A696-ADF7D9496427";
name = Light;
paths = (
{
closed = 1;
nodes = (
"-648 -68 OFFCURVE",
"-615 -27 OFFCURVE",
"-560 -27 CURVE SMOOTH",
"-525 -27 OFFCURVE",
"-469 -47 OFFCURVE",
"-469 -123 CURVE SMOOTH",
"-469 -197 OFFCURVE",
"-519 -268 OFFCURVE",
"-630 -268 CURVE SMOOTH",
"-701 -268 OFFCURVE",
"-754 -245 OFFCURVE",
"-795 -215 CURVE",
"-780 -192 LINE",
"-741 -222 OFFCURVE",
"-681 -241 OFFCURVE",
"-633 -241 CURVE SMOOTH",
"-539 -241 OFFCURVE",
"-497 -186 OFFCURVE",
"-497 -122 CURVE SMOOTH",
"-497 -88 OFFCURVE",
"-520 -52 OFFCURVE",
"-560 -54 CURVE SMOOTH",
"-602 -56 OFFCURVE",
"-620 -87 OFFCURVE",
"-620 -125 CURVE SMOOTH",
"-620 -220 OFFCURVE",
"-493 -262 OFFCURVE",
"-377 -262 CURVE SMOOTH",
"-202 -262 OFFCURVE",
"-54 -118 OFFCURVE",
"-77 210 CURVE",
"-50 210 LINE",
"-28 -128 OFFCURVE",
"-175 -289 OFFCURVE",
"-377 -289 CURVE SMOOTH",
"-537 -289 OFFCURVE",
"-648 -218 OFFCURVE",
"-648 -125 CURVE SMOOTH"
);
}
);
width = 0;
},
{
associatedMasterId = "25BA55F5-DD3E-4682-A696-ADF7D9496427";
background = {
paths = (
{
closed = 1;
nodes = (
"-85 13 LINE",
"-85 -101 OFFCURVE",
"-125 -146 OFFCURVE",
"-234 -146 CURVE SMOOTH",
"-303 -146 OFFCURVE",
"-387 -100 OFFCURVE",
"-413 -68 CURVE",
"-413 -138 LINE",
"-387 -162 OFFCURVE",
"-324 -201 OFFCURVE",
"-234 -201 CURVE SMOOTH",
"-101 -201 OFFCURVE",
"-25 -140 OFFCURVE",
"-25 13 CURVE"
);
}
);
};
layerId = "343F5378-1228-4BD5-AF93-43DCB7249432";
name = "old version";
paths = (
{
closed = 1;
nodes = (
"-121 -201 OFFCURVE",
"-25 -151 OFFCURVE",
"-25 -38 CURVE SMOOTH",
"-25 20 OFFCURVE",
"-50 51 OFFCURVE",
"-75 74 CURVE",
"-116 39 LINE",
"-97 17 OFFCURVE",
"-85 -4 OFFCURVE",
"-85 -38 CURVE SMOOTH",
"-85 -112 OFFCURVE",
"-145 -146 OFFCURVE",
"-254 -146 CURVE SMOOTH",
"-363 -146 OFFCURVE",
"-432 -112 OFFCURVE",
"-432 -38 CURVE",
"-492 -38 LINE",
"-492 -151 OFFCURVE",
"-384 -201 OFFCURVE",
"-254 -201 CURVE SMOOTH"
);
}
);
width = 0;
},
{
associatedMasterId = "25BA55F5-DD3E-4682-A696-ADF7D9496427";
background = {
paths = (
{
closed = 1;
nodes = (
"-85 13 LINE",
"-85 -101 OFFCURVE",
"-125 -146 OFFCURVE",
"-234 -146 CURVE SMOOTH",
"-303 -146 OFFCURVE",
"-387 -100 OFFCURVE",
"-413 -68 CURVE",
"-413 -138 LINE",
"-387 -162 OFFCURVE",
"-324 -201 OFFCURVE",
"-234 -201 CURVE SMOOTH",
"-101 -201 OFFCURVE",
"-25 -140 OFFCURVE",
"-25 13 CURVE"
);
}
);
};
layerId = "42609B90-EF0A-4B3A-ADA2-D556A3F09AD6";
name = "Light Oct 7 15, 12:33 Oct 7 15, 12:35";
paths = (
{
closed = 1;
nodes = (
"-84 13 LINE",
"-84 -91 OFFCURVE",
"-134 -146 OFFCURVE",
"-235 -146 CURVE SMOOTH",
"-304 -146 OFFCURVE",
"-369 -120 OFFCURVE",
"-412 -68 CURVE",
"-412 -138 LINE",
"-368 -178 OFFCURVE",
"-306 -201 OFFCURVE",
"-231 -201 CURVE SMOOTH",
"-95 -201 OFFCURVE",
"-24 -125 OFFCURVE",
"-24 13 CURVE"
);
}
);
width = 0;
},
{
associatedMasterId = "25BA55F5-DD3E-4682-A696-ADF7D9496427";
background = {
paths = (
{
closed = 1;
nodes = (
"-85 13 LINE",
"-85 -101 OFFCURVE",
"-125 -146 OFFCURVE",
"-234 -146 CURVE SMOOTH",
"-303 -146 OFFCURVE",
"-387 -100 OFFCURVE",
"-413 -68 CURVE",
"-413 -138 LINE",
"-387 -162 OFFCURVE",
"-324 -201 OFFCURVE",
"-234 -201 CURVE SMOOTH",
"-101 -201 OFFCURVE",
"-25 -140 OFFCURVE",
"-25 13 CURVE"
);
}
);
};
layerId = "8423C133-10D9-4D71-8845-C9B407922A55";
name = "Light Oct 7 15, 13:37";
paths = (
{
closed = 1;
nodes = (
"-226 -202 CURVE SMOOTH",
"-96 -202 OFFCURVE",
"-23 -130 OFFCURVE",
"-23 0 CURVE SMOOTH",
"-23 13 LINE",
"-83 13 LINE",
"-83 3 LINE SMOOTH",
"-83 -93 OFFCURVE",
"-130 -147 OFFCURVE",
"-226 -147 CURVE SMOOTH",
"-294 -147 OFFCURVE",
"-345 -121 OFFCURVE",
"-412 -74 CURVE",
"-412 -142 LINE",
"-351 -183 OFFCURVE",
"-293 -202 OFFCURVE"
);
}
);
width = 0;
}
);
category = Mark;
},
{
color = 4;
glyphname = snRA_mAE;
lastChange = "2022-07-23 16:23:55 +0000";
layers = (
{
components = (
{
name = snRA;
}
);
layerId = "25BA55F5-DD3E-4682-A696-ADF7D9496427";
name = Light;
paths = (
{
closed = 1;
nodes = (
"1017 64 LINE",
"985 26 OFFCURVE",
"937 0 OFFCURVE",
"873 0 CURVE SMOOTH",
"698 0 OFFCURVE",
"623 171 OFFCURVE",
"623 333 CURVE SMOOTH",
"623 523 OFFCURVE",
"689 758 OFFCURVE",
"792 980 CURVE",
"400 980 LINE",
"400 1007 LINE",
"823 1007 LINE",
"823 981 LINE",
"722 766 OFFCURVE",
"651 529 OFFCURVE",
"651 334 CURVE SMOOTH",
"651 185 OFFCURVE",
"718 27 OFFCURVE",
"873 27 CURVE SMOOTH",
"929 27 OFFCURVE",
"971 50 OFFCURVE",
"998 84 CURVE"
);
}
);
width = 1047;
},
{
associatedMasterId = "25BA55F5-DD3E-4682-A696-ADF7D9496427";
background = {
components = (
{
name = snRA;
}
);
};
layerId = "B2A2B4DF-F758-45D3-9CD4-7868A23EF6A0";
name = "older version";
paths = (
{
closed = 1;
nodes = (
"507 -10 OFFCURVE",
"623 95 OFFCURVE",
"623 271 CURVE SMOOTH",
"623 446 OFFCURVE",
"507 553 OFFCURVE",
"354 553 CURVE SMOOTH",
"200 553 OFFCURVE",
"80 446 OFFCURVE",
"80 271 CURVE SMOOTH",
"80 95 OFFCURVE",
"200 -10 OFFCURVE",
"354 -10 CURVE SMOOTH"
);
},
{
closed = 1;
nodes = (
"228 42 OFFCURVE",
"138 129 OFFCURVE",
"138 271 CURVE SMOOTH",
"138 412 OFFCURVE",
"228 501 OFFCURVE",
"354 501 CURVE SMOOTH",
"479 501 OFFCURVE",
"565 412 OFFCURVE",
"565 271 CURVE SMOOTH",
"565 129 OFFCURVE",
"479 42 OFFCURVE",
"354 42 CURVE SMOOTH"
);
},
{
closed = 1;
nodes = (
"749 -10 OFFCURVE",
"770 2 OFFCURVE",
"787 16 CURVE",
"787 71 LINE",
"775 59 OFFCURVE",
"750 47 OFFCURVE",
"730 47 CURVE SMOOTH",
"673 47 OFFCURVE",
"635 68 OFFCURVE",
"635 145 CURVE SMOOTH",
"635 253 OFFCURVE",
"688 507 OFFCURVE",
"688 755 CURVE",
"629 755 LINE",
"629 520 OFFCURVE",
"575 261 OFFCURVE",
"575 145 CURVE SMOOTH",
"575 42 OFFCURVE",
"625 -10 OFFCURVE",
"720 -10 CURVE SMOOTH"
);
},
{
closed = 1;
nodes = (
"429 558 OFFCURVE",
"641 630 OFFCURVE",
"688 755 CURVE",
"629 755 LINE",
"579 678 OFFCURVE",
"341 575 OFFCURVE",
"250 535 CURVE",
"337 520 LINE"
);
}
);
width = 832;
},
{
associatedMasterId = "25BA55F5-DD3E-4682-A696-ADF7D9496427";
layerId = "1D65726E-8712-4694-8200-7928F270706A";
name = "Light Oct 7 15, 17:50";
paths = (
{
closed = 1;
nodes = (
"519 -10 OFFCURVE",
"635 95 OFFCURVE",
"635 271 CURVE SMOOTH",
"635 439 OFFCURVE",
"528 544 OFFCURVE",
"385 552 CURVE",
"390 537 LINE",
"488 596 OFFCURVE",
"587 624 OFFCURVE",
"678 755 CURVE",
"619 755 LINE",
"549 674 OFFCURVE",
"308 572 OFFCURVE",
"221 515 CURVE SMOOTH",
"137 460 OFFCURVE",
"92 380 OFFCURVE",
"92 272 CURVE SMOOTH",
"92 95 OFFCURVE",
"212 -10 OFFCURVE",
"366 -10 CURVE SMOOTH"
);
},
{
closed = 1;
nodes = (
"240 42 OFFCURVE",
"150 129 OFFCURVE",
"150 271 CURVE SMOOTH",
"150 412 OFFCURVE",
"240 501 OFFCURVE",
"366 501 CURVE SMOOTH",
"491 501 OFFCURVE",
"577 412 OFFCURVE",
"577 271 CURVE SMOOTH",
"577 129 OFFCURVE",
"491 42 OFFCURVE",
"366 42 CURVE SMOOTH"
);
},
{
closed = 1;
nodes = (
"722 -10 OFFCURVE",
"735 -8 OFFCURVE",
"752 -4 CURVE",
"752 51 LINE",
"740 49 OFFCURVE",
"725 47 OFFCURVE",
"707 47 CURVE SMOOTH",
"629 47 OFFCURVE",
"622 86 OFFCURVE",
"623 125 CURVE SMOOTH",
"626 242 OFFCURVE",
"707 590 OFFCURVE",
"678 754 CURVE",
"619 754 LINE",
"652 593 OFFCURVE",
"571 264 OFFCURVE",
"565 125 CURVE SMOOTH",
"563 77 OFFCURVE",
"568 -10 OFFCURVE",
"701 -10 CURVE SMOOTH"
);
}
);
width = 832;
}
);
},
{
color = 4;
glyphname = snRA_mAAE;
lastChange = "2022-07-23 16:23:55 +0000";
layers = (
{
background = {
paths = (
{
closed = 1;
nodes = (
"230 42 OFFCURVE",
"140 129 OFFCURVE",
"140 271 CURVE SMOOTH",
"140 412 OFFCURVE",
"230 501 OFFCURVE",
"356 501 CURVE SMOOTH",
"481 501 OFFCURVE",
"567 412 OFFCURVE",
"567 271 CURVE SMOOTH",
"567 129 OFFCURVE",
"481 42 OFFCURVE",
"356 42 CURVE SMOOTH"
);
},
{
closed = 1;
nodes = (
"82 95 OFFCURVE",
"201 -10 OFFCURVE",
"358 -10 CURVE SMOOTH",
"478 -10 OFFCURVE",
"548 51 OFFCURVE",
"583 119 CURVE",
"562 118 LINE",
"565 51 OFFCURVE",
"581 -10 OFFCURVE",
"692 -10 CURVE SMOOTH",
"712 -10 OFFCURVE",
"725 -8 OFFCURVE",
"742 -4 CURVE",
"742 51 LINE",
"730 49 OFFCURVE",
"715 47 OFFCURVE",
"698 47 CURVE SMOOTH",
"620 47 OFFCURVE",
"608 91 OFFCURVE",
"609 132 CURVE SMOOTH",
"611 236 OFFCURVE",
"697 587 OFFCURVE",
"667 754 CURVE",
"668 755 LINE",
"609 755 LINE",
"539 674 OFFCURVE",
"299 572 OFFCURVE",
"211 515 CURVE SMOOTH",
"127 460 OFFCURVE",
"82 380 OFFCURVE",
"82 272 CURVE SMOOTH"
);
},
{
closed = 1;
nodes = (
"431 573 OFFCURVE",
"556 616 OFFCURVE",
"640 718 CURVE",
"619 718 LINE",
"628 627 OFFCURVE",
"607 474 OFFCURVE",
"589 356 CURVE",
"601 376 LINE",
"562 489 OFFCURVE",
"456 549 OFFCURVE",
"364 544 CURVE",
"358 528 LINE"
);
}
);
};
components = (
{
name = snRA;
}
);
layerId = "25BA55F5-DD3E-4682-A696-ADF7D9496427";
name = Light;
paths = (
{
closed = 1;
nodes = (
"496 779 LINE",
"496 808 LINE",
"676 980 LINE",
"400 980 LINE",
"400 1007 LINE",
"713 1007 LINE",
"713 981 LINE",
"532 806 LINE",
"773 806 LINE",
"773 780 LINE",
"742 705 OFFCURVE",
"651 539 OFFCURVE",
"651 294 CURVE SMOOTH",
"651 195 OFFCURVE",
"698 27 OFFCURVE",
"873 27 CURVE SMOOTH",
"929 27 OFFCURVE",
"971 50 OFFCURVE",
"998 84 CURVE",
"1017 64 LINE",
"985 26 OFFCURVE",
"937 0 OFFCURVE",
"873 0 CURVE SMOOTH",
"678 0 OFFCURVE",
"623 181 OFFCURVE",
"623 293 CURVE SMOOTH",
"623 533 OFFCURVE",
"709 697 OFFCURVE",
"742 779 CURVE"
);
}
);
width = 1047;
},
{
associatedMasterId = "25BA55F5-DD3E-4682-A696-ADF7D9496427";
background = {
components = (
{
name = snRA;
}
);
paths = (
{
closed = 1;
nodes = (
"749 -10 OFFCURVE",
"770 2 OFFCURVE",
"787 16 CURVE",
"787 71 LINE",
"775 59 OFFCURVE",
"750 47 OFFCURVE",
"730 47 CURVE SMOOTH",
"673 47 OFFCURVE",
"635 68 OFFCURVE",
"635 145 CURVE SMOOTH",
"635 253 OFFCURVE",
"688 507 OFFCURVE",
"688 755 CURVE",
"629 755 LINE",
"629 520 OFFCURVE",
"575 261 OFFCURVE",
"575 145 CURVE SMOOTH",
"575 42 OFFCURVE",
"625 -10 OFFCURVE",
"720 -10 CURVE SMOOTH"
);
}
);
};
layerId = "F02CA89F-CC9E-4B2F-A9E8-7813408FBA84";
name = "older version";
paths = (
{
closed = 1;
nodes = (
"507 -10 OFFCURVE",
"623 95 OFFCURVE",
"623 271 CURVE SMOOTH",
"623 446 OFFCURVE",
"507 553 OFFCURVE",
"354 553 CURVE SMOOTH",
"200 553 OFFCURVE",
"80 446 OFFCURVE",
"80 271 CURVE SMOOTH",
"80 95 OFFCURVE",
"200 -10 OFFCURVE",
"354 -10 CURVE SMOOTH"
);
},
{
closed = 1;
nodes = (
"228 42 OFFCURVE",
"138 129 OFFCURVE",
"138 271 CURVE SMOOTH",
"138 412 OFFCURVE",
"228 501 OFFCURVE",
"354 501 CURVE SMOOTH",
"479 501 OFFCURVE",
"565 412 OFFCURVE",
"565 271 CURVE SMOOTH",
"565 129 OFFCURVE",
"479 42 OFFCURVE",
"354 42 CURVE SMOOTH"
);
},
{
closed = 1;
nodes = (
"749 -10 OFFCURVE",
"770 2 OFFCURVE",
"787 16 CURVE",
"787 71 LINE",
"775 59 OFFCURVE",
"750 47 OFFCURVE",
"730 47 CURVE SMOOTH",
"673 47 OFFCURVE",
"635 68 OFFCURVE",
"635 145 CURVE SMOOTH",
"635 228 OFFCURVE",
"676 412 OFFCURVE",
"731 579 CURVE",
"663 579 LINE",
"686 646 OFFCURVE",
"688 706 OFFCURVE",
"688 755 CURVE",
"629 755 LINE",
"629 706 OFFCURVE",
"617 618 OFFCURVE",
"583 529 CURVE",
"651 529 LINE",
"597 373 OFFCURVE",
"575 235 OFFCURVE",
"575 145 CURVE SMOOTH",
"575 42 OFFCURVE",
"625 -10 OFFCURVE",
"720 -10 CURVE SMOOTH"
);
},
{
closed = 1;
nodes = (
"429 558 OFFCURVE",
"641 630 OFFCURVE",
"688 755 CURVE",
"629 755 LINE",
"579 678 OFFCURVE",
"341 575 OFFCURVE",
"250 535 CURVE",
"337 520 LINE"
);
},
{
closed = 1;
nodes = (
"1587 26 OFFCURVE",
"1598 28 OFFCURVE",
"1615 32 CURVE",
"1615 87 LINE",
"1603 85 OFFCURVE",
"1588 83 OFFCURVE",
"1568 83 CURVE SMOOTH",
"1511 83 OFFCURVE",
"1470 104 OFFCURVE",
"1470 161 CURVE SMOOTH",
"1470 278 OFFCURVE",
"1520 446 OFFCURVE",
"1578 608 CURVE",
"1578 660 LINE",
"1483 660 LINE",
"1508 790 LINE",
"1449 790 LINE",
"1421 662 LINE",
"1421 608 LINE",
"1514 608 LINE",
"1462 449 OFFCURVE",
"1410 292 OFFCURVE",
"1410 161 CURVE SMOOTH",
"1410 68 OFFCURVE",
"1473 26 OFFCURVE",
"1558 26 CURVE SMOOTH"
);
},
{
closed = 1;
nodes = (
"1359 26 OFFCURVE",
"1475 131 OFFCURVE",
"1475 307 CURVE SMOOTH",
"1475 482 OFFCURVE",
"1359 589 OFFCURVE",
"1206 589 CURVE SMOOTH",
"1052 589 OFFCURVE",
"932 482 OFFCURVE",
"932 307 CURVE SMOOTH",
"932 131 OFFCURVE",
"1052 26 OFFCURVE",
"1206 26 CURVE SMOOTH"
);
},
{
closed = 1;
nodes = (
"1080 78 OFFCURVE",
"990 165 OFFCURVE",
"990 307 CURVE SMOOTH",
"990 448 OFFCURVE",
"1080 537 OFFCURVE",
"1206 537 CURVE SMOOTH",
"1331 537 OFFCURVE",
"1417 448 OFFCURVE",
"1417 307 CURVE SMOOTH",
"1417 165 OFFCURVE",
"1331 78 OFFCURVE",
"1206 78 CURVE SMOOTH"
);
},
{
closed = 1;
nodes = (
"1261 584 OFFCURVE",
"1461 696 OFFCURVE",
"1508 791 CURVE",
"1449 791 LINE",
"1399 714 OFFCURVE",
"1193 611 OFFCURVE",
"1102 571 CURVE",
"1169 546 LINE"
);
}
);
width = 832;
},
{
associatedMasterId = "25BA55F5-DD3E-4682-A696-ADF7D9496427";
background = {
components = (
{
name = snRA;
}
);
paths = (
{
closed = 1;
nodes = (
"749 -10 OFFCURVE",
"770 2 OFFCURVE",
"787 16 CURVE",
"787 71 LINE",
"775 59 OFFCURVE",
"750 47 OFFCURVE",
"730 47 CURVE SMOOTH",
"673 47 OFFCURVE",
"635 68 OFFCURVE",
"635 145 CURVE SMOOTH",
"635 253 OFFCURVE",
"688 507 OFFCURVE",
"688 755 CURVE",
"629 755 LINE",
"629 520 OFFCURVE",
"575 261 OFFCURVE",
"575 145 CURVE SMOOTH",
"575 42 OFFCURVE",
"625 -10 OFFCURVE",
"720 -10 CURVE SMOOTH"
);
}
);
};
layerId = "602D5C55-6B7D-4C70-BF44-CD8410D5F083";
name = "Light Oct 7 15, 17:58";
paths = (
{
closed = 1;
nodes = (
"509 -10 OFFCURVE",
"625 95 OFFCURVE",
"625 271 CURVE SMOOTH",
"625 439 OFFCURVE",
"518 544 OFFCURVE",
"375 552 CURVE",
"380 537 LINE",
"478 596 OFFCURVE",
"577 624 OFFCURVE",
"668 755 CURVE",
"609 755 LINE",
"539 674 OFFCURVE",
"298 572 OFFCURVE",
"211 515 CURVE SMOOTH",
"127 460 OFFCURVE",
"82 380 OFFCURVE",
"82 272 CURVE SMOOTH",
"82 95 OFFCURVE",
"202 -10 OFFCURVE",
"356 -10 CURVE SMOOTH"
);
},
{
closed = 1;
nodes = (
"230 42 OFFCURVE",
"140 129 OFFCURVE",
"140 271 CURVE SMOOTH",
"140 412 OFFCURVE",
"230 501 OFFCURVE",
"356 501 CURVE SMOOTH",
"481 501 OFFCURVE",
"567 412 OFFCURVE",
"567 271 CURVE SMOOTH",
"567 129 OFFCURVE",
"481 42 OFFCURVE",
"356 42 CURVE SMOOTH"
);
},
{
closed = 1;
nodes = (
"717 -10 OFFCURVE",
"730 -8 OFFCURVE",
"747 -4 CURVE",
"747 51 LINE",
"735 49 OFFCURVE",
"720 47 OFFCURVE",
"701 47 CURVE SMOOTH",
"642 47 OFFCURVE",
"618 69 OFFCURVE",
"618 125 CURVE SMOOTH",
"618 240 OFFCURVE",
"669 395 OFFCURVE",
"718 532 CURVE",
"718 581 LINE",
"623 581 LINE",
"668 754 LINE",
"609 754 LINE",
"561 570 LINE",
"561 532 LINE",
"654 532 LINE",
"606 385 OFFCURVE",
"560 254 OFFCURVE",
"560 125 CURVE SMOOTH",
"560 31 OFFCURVE",
"609 -10 OFFCURVE",
"696 -10 CURVE SMOOTH"
);
}
);
width = 832;
}
);
},
{
color = 4;
glyphname = snKA_Virama;
lastChange = "2022-07-23 16:23:55 +0000";
layers = (
{
components = (
{
name = snKA;
}
);
layerId = "25BA55F5-DD3E-4682-A696-ADF7D9496427";
paths = (
{
closed = 1;
nodes = (
"863 788 OFFCURVE",
"915 788 CURVE SMOOTH",
"952 788 OFFCURVE",
"979 804 OFFCURVE",
"991 816 CURVE",
"1007 796 LINE",
"982 772 OFFCURVE",
"946 761 OFFCURVE",
"915 761 CURVE SMOOTH",
"863 761 OFFCURVE",
"798 789 OFFCURVE",
"798 882 CURVE SMOOTH",
"798 928 OFFCURVE",
"825 982 OFFCURVE",
"875 982 CURVE SMOOTH",
"903 982 OFFCURVE",
"940 960 OFFCURVE",
"940 913 CURVE SMOOTH",
"940 842 OFFCURVE",
"861 803 OFFCURVE",
"767 803 CURVE SMOOTH",
"679 803 OFFCURVE",
"614 847 OFFCURVE",
"614 944 CURVE SMOOTH",
"614 1027 OFFCURVE",
"669 1116 OFFCURVE",
"778 1132 CURVE",
"778 497 LINE",
"751 497 LINE",
"751 1097 LINE",
"720 1090 OFFCURVE",
"641 1042 OFFCURVE",
"641 944 CURVE SMOOTH",
"641 856 OFFCURVE",
"702 830 OFFCURVE",
"769 830 CURVE SMOOTH",
"825 830 OFFCURVE",
"912 850 OFFCURVE",
"912 914 CURVE SMOOTH",
"912 942 OFFCURVE",
"894 955 OFFCURVE",
"875 955 CURVE SMOOTH",
"841 955 OFFCURVE",
"826 915 OFFCURVE",
"826 882 CURVE SMOOTH",
"826 819 OFFCURVE"
);
}
);
width = 887;
}
);
},
{
color = 4;
glyphname = snKHA_Virama;
lastChange = "2022-07-23 16:23:55 +0000";
layers = (
{
background = {
paths = (
{
closed = 1;
nodes = (
"178 44 OFFCURVE",
"149 74 OFFCURVE",
"149 120 CURVE SMOOTH",
"149 167 OFFCURVE",
"177 199 OFFCURVE",
"223 199 CURVE SMOOTH",
"268 199 OFFCURVE",
"295 169 OFFCURVE",
"295 122 CURVE SMOOTH",
"295 76 OFFCURVE",
"269 44 OFFCURVE",
"224 44 CURVE SMOOTH"
);
},
{
closed = 1;
nodes = (
"763 546 OFFCURVE",
"658 773 OFFCURVE",
"347 773 CURVE",
"258 773 OFFCURVE",
"149 747 OFFCURVE",
"88 710 CURVE",
"88 655 LINE",
"148 691 OFFCURVE",
"258 718 OFFCURVE",
"347 718 CURVE",
"601 718 OFFCURVE",
"703 544 OFFCURVE",
"703 320 CURVE",
"703 178 OFFCURVE",
"685 45 OFFCURVE",
"586 45 CURVE SMOOTH",
"539 45 OFFCURVE",
"507 76 OFFCURVE",
"493 106 CURVE",
"465 63 LINE",
"484 30 OFFCURVE",
"523 -10 OFFCURVE",
"586 -10 CURVE SMOOTH",
"731 -10 OFFCURVE",
"763 152 OFFCURVE",
"763 319 CURVE"
);
},
{
closed = 1;
nodes = (
"50 102 OFFCURVE",
"110 -10 OFFCURVE",
"225 -10 CURVE SMOOTH",
"296 -10 OFFCURVE",
"349 42 OFFCURVE",
"349 123 CURVE SMOOTH",
"349 202 OFFCURVE",
"303 253 OFFCURVE",
"229 253 CURVE SMOOTH",
"167 253 OFFCURVE",
"114 213 OFFCURVE",
"114 134 CURVE",
"130 129 LINE",
"126 144 OFFCURVE",
"108 167 OFFCURVE",
"108 224 CURVE SMOOTH",
"108 320 OFFCURVE",
"156 427 OFFCURVE",
"288 427 CURVE",
"409 427 OFFCURVE",
"461 340 OFFCURVE",
"461 222 CURVE SMOOTH",
"461 132 OFFCURVE",
"425 50 OFFCURVE",
"398 0 CURVE",
"462 0 LINE",
"497 60 OFFCURVE",
"521 147 OFFCURVE",
"521 222 CURVE SMOOTH",
"521 356 OFFCURVE",
"456 482 OFFCURVE",
"289 482 CURVE",
"140 482 OFFCURVE",
"50 374 OFFCURVE",
"50 223 CURVE SMOOTH"
);
}
);
};
components = (
{
name = snKHA;
}
);
layerId = "25BA55F5-DD3E-4682-A696-ADF7D9496427";
name = Light;
paths = (
{
closed = 1;
nodes = (
"259 899 LINE",
"259 590 LINE",
"231 570 LINE",
"231 899 LINE"
);
},
{
closed = 1;
nodes = (
"898 834 LINE",
"898 807 LINE",
"25 807 LINE",
"25 834 LINE"
);
}
);
width = 1033;
}
);
},
{
color = 4;
glyphname = snGHA_Virama;
lastChange = "2022-07-23 16:23:55 +0000";
layers = (
{
components = (
{
name = snGHA;
}
);
layerId = "25BA55F5-DD3E-4682-A696-ADF7D9496427";
paths = (
{
closed = 1;
nodes = (
"843 788 OFFCURVE",
"895 788 CURVE SMOOTH",
"932 788 OFFCURVE",
"959 804 OFFCURVE",
"971 816 CURVE",
"987 796 LINE",
"962 772 OFFCURVE",
"926 761 OFFCURVE",
"895 761 CURVE SMOOTH",
"843 761 OFFCURVE",
"778 789 OFFCURVE",
"778 882 CURVE SMOOTH",
"778 928 OFFCURVE",
"805 982 OFFCURVE",
"855 982 CURVE SMOOTH",
"883 982 OFFCURVE",
"920 960 OFFCURVE",
"920 913 CURVE SMOOTH",
"920 842 OFFCURVE",
"841 803 OFFCURVE",
"747 803 CURVE SMOOTH",
"659 803 OFFCURVE",
"594 847 OFFCURVE",
"594 944 CURVE SMOOTH",
"594 1027 OFFCURVE",
"649 1116 OFFCURVE",
"758 1132 CURVE",
"758 527 LINE",
"731 527 LINE",
"731 1097 LINE",
"700 1090 OFFCURVE",
"621 1042 OFFCURVE",
"621 944 CURVE SMOOTH",
"621 856 OFFCURVE",
"682 830 OFFCURVE",
"749 830 CURVE SMOOTH",
"805 830 OFFCURVE",
"892 850 OFFCURVE",
"892 914 CURVE SMOOTH",
"892 942 OFFCURVE",
"874 955 OFFCURVE",
"855 955 CURVE SMOOTH",
"821 955 OFFCURVE",
"806 915 OFFCURVE",
"806 882 CURVE SMOOTH",
"806 819 OFFCURVE"
);
}
);
width = 897;
}
);
},
{
color = 4;
glyphname = snNGA_Virama;
lastChange = "2022-07-23 16:23:55 +0000";
layers = (
{
components = (
{
name = snNGA;
}
);
layerId = "25BA55F5-DD3E-4682-A696-ADF7D9496427";
name = Light;
paths = (
{
closed = 1;
nodes = (
"259 899 LINE",
"259 590 LINE",
"231 570 LINE",
"231 899 LINE"
);
},
{
closed = 1;
nodes = (
"898 834 LINE",
"898 807 LINE",
"25 807 LINE",
"25 834 LINE"
);
}
);
width = 963;
}
);
},
{
color = 4;
glyphname = snCA_Virama;
lastChange = "2022-07-23 16:23:55 +0000";
layers = (
{
components = (
{
name = snCA;
}
);
layerId = "25BA55F5-DD3E-4682-A696-ADF7D9496427";
name = Light;
paths = (
{
closed = 1;
nodes = (
"349 899 LINE",
"349 620 LINE",
"321 600 LINE",
"321 899 LINE"
);
},
{
closed = 1;
nodes = (
"988 834 LINE",
"988 807 LINE",
"115 807 LINE",
"115 834 LINE"
);
}
);
width = 1049;
}
);
},
{
color = 4;
glyphname = snJA_Virama;
lastChange = "2022-07-23 16:23:55 +0000";
layers = (
{
components = (
{
name = snJA;
}
);
layerId = "25BA55F5-DD3E-4682-A696-ADF7D9496427";
name = Light;
paths = (
{
closed = 1;
nodes = (
"543 788 OFFCURVE",
"595 788 CURVE SMOOTH",
"632 788 OFFCURVE",
"659 804 OFFCURVE",
"671 816 CURVE",
"687 796 LINE",
"662 772 OFFCURVE",
"626 761 OFFCURVE",
"595 761 CURVE SMOOTH",
"543 761 OFFCURVE",
"478 789 OFFCURVE",
"478 882 CURVE SMOOTH",
"478 928 OFFCURVE",
"505 982 OFFCURVE",
"555 982 CURVE SMOOTH",
"583 982 OFFCURVE",
"620 960 OFFCURVE",
"620 913 CURVE SMOOTH",
"620 842 OFFCURVE",
"541 803 OFFCURVE",
"447 803 CURVE SMOOTH",
"359 803 OFFCURVE",
"294 847 OFFCURVE",
"294 944 CURVE SMOOTH",
"294 1027 OFFCURVE",
"349 1116 OFFCURVE",
"458 1132 CURVE",
"458 577 LINE",
"431 557 LINE",
"431 1097 LINE",
"400 1090 OFFCURVE",
"321 1042 OFFCURVE",
"321 944 CURVE SMOOTH",
"321 856 OFFCURVE",
"382 830 OFFCURVE",
"449 830 CURVE SMOOTH",
"505 830 OFFCURVE",
"592 850 OFFCURVE",
"592 914 CURVE SMOOTH",
"592 942 OFFCURVE",
"574 955 OFFCURVE",
"555 955 CURVE SMOOTH",
"521 955 OFFCURVE",
"506 915 OFFCURVE",
"506 882 CURVE SMOOTH",
"506 819 OFFCURVE"
);
}
);
width = 786;
}
);
leftMetricsKey = snJA;
},
{
color = 4;
glyphname = snJHA_Virama;
lastChange = "2022-07-23 16:23:55 +0000";
layers = (
{
components = (
{
name = snJHA;
}
);
layerId = "25BA55F5-DD3E-4682-A696-ADF7D9496427";
name = Light;
paths = (
{
closed = 1;
nodes = (
"709 899 LINE",
"709 660 LINE",
"681 640 LINE",
"681 899 LINE"
);
},
{
closed = 1;
nodes = (
"1268 834 LINE",
"1268 807 LINE",
"465 807 LINE",
"465 834 LINE"
);
}
);
width = 1314;
}
);
},
{
color = 4;
glyphname = snNYJA_Virama;
lastChange = "2022-07-23 16:23:55 +0000";
layers = (
{
components = (
{
name = snNYJA;
}
);
layerId = "25BA55F5-DD3E-4682-A696-ADF7D9496427";
name = Light;
paths = (
{
closed = 1;
nodes = (
"643 788 OFFCURVE",
"695 788 CURVE SMOOTH",
"732 788 OFFCURVE",
"759 804 OFFCURVE",
"771 816 CURVE",
"787 796 LINE",
"762 772 OFFCURVE",
"726 761 OFFCURVE",
"695 761 CURVE SMOOTH",
"643 761 OFFCURVE",
"578 789 OFFCURVE",
"578 882 CURVE SMOOTH",
"578 928 OFFCURVE",
"605 982 OFFCURVE",
"655 982 CURVE SMOOTH",
"683 982 OFFCURVE",
"720 960 OFFCURVE",
"720 913 CURVE SMOOTH",
"720 842 OFFCURVE",
"641 803 OFFCURVE",
"547 803 CURVE SMOOTH",
"459 803 OFFCURVE",
"394 847 OFFCURVE",
"394 944 CURVE SMOOTH",
"394 1027 OFFCURVE",
"449 1116 OFFCURVE",
"558 1132 CURVE",
"558 577 LINE",
"531 557 LINE",
"531 1097 LINE",
"500 1090 OFFCURVE",
"421 1042 OFFCURVE",
"421 944 CURVE SMOOTH",
"421 856 OFFCURVE",
"482 830 OFFCURVE",
"549 830 CURVE SMOOTH",
"605 830 OFFCURVE",
"692 850 OFFCURVE",
"692 914 CURVE SMOOTH",
"692 942 OFFCURVE",
"674 955 OFFCURVE",
"655 955 CURVE SMOOTH",
"621 955 OFFCURVE",
"606 915 OFFCURVE",
"606 882 CURVE SMOOTH",
"606 819 OFFCURVE"
);
}
);
width = 884;
},
{
associatedMasterId = "25BA55F5-DD3E-4682-A696-ADF7D9496427";
layerId = "A2812D16-B447-4AFB-B308-E34C082D29BF";
name = "Light Oct 15 15, 17:21";
paths = (
{
closed = 1;
nodes = (
"748 342 LINE",
"821 342 OFFCURVE",
"857 394 OFFCURVE",
"857 448 CURVE",
"857 501 OFFCURVE",
"827 555 OFFCURVE",
"758 555 CURVE SMOOTH",
"701 555 OFFCURVE",
"676 510 OFFCURVE",
"663 467 CURVE",
"684 437 LINE",
"684 474 OFFCURVE",
"707 502 OFFCURVE",
"748 502 CURVE SMOOTH",
"784 502 OFFCURVE",
"803 481 OFFCURVE",
"803 448 CURVE",
"803 414 OFFCURVE",
"777 391 OFFCURVE",
"733 391 CURVE"
);
},
{
closed = 1;
nodes = (
"207 0 LINE",
"163 81 OFFCURVE",
"130 182 OFFCURVE",
"130 281 CURVE SMOOTH",
"130 420 OFFCURVE",
"171 503 OFFCURVE",
"246 503 CURVE SMOOTH",
"274 503 OFFCURVE",
"301 488 OFFCURVE",
"316 470 CURVE",
"361 493 LINE",
"341 525 OFFCURVE",
"297 553 OFFCURVE",
"245 553 CURVE SMOOTH",
"130 553 OFFCURVE",
"70 443 OFFCURVE",
"70 284 CURVE",
"70 171 OFFCURVE",
"102 66 OFFCURVE",
"140 0 CURVE"
);
},
{
closed = 1;
nodes = (
"773 -10 OFFCURVE",
"930 59 OFFCURVE",
"930 209 CURVE",
"930 324 OFFCURVE",
"850 391 OFFCURVE",
"733 391 CURVE",
"688 390 LINE",
"685 407 OFFCURVE",
"684 417 OFFCURVE",
"684 437 CURVE SMOOTH",
"684 531 OFFCURVE",
"719 611 OFFCURVE",
"819 611 CURVE",
"819 665 LINE",
"669 665 OFFCURVE",
"623 562 OFFCURVE",
"623 435 CURVE",
"623 399 OFFCURVE",
"629 352 OFFCURVE",
"634 336 CURVE",
"712 336 LINE",
"810 336 OFFCURVE",
"868 294 OFFCURVE",
"868 210 CURVE",
"868 91 OFFCURVE",
"740 45 OFFCURVE",
"605 45 CURVE",
"463 45 OFFCURVE",
"335 94 OFFCURVE",
"335 213 CURVE",
"335 297 OFFCURVE",
"391 336 OFFCURVE",
"489 336 CURVE SMOOTH",
"571 336 LINE",
"573 349 OFFCURVE",
"574 362 OFFCURVE",
"574 386 CURVE",
"574 481 OFFCURVE",
"536 553 OFFCURVE",
"430 553 CURVE SMOOTH",
"342 553 OFFCURVE",
"301 499 OFFCURVE",
"300 434 CURVE",
"360 434 LINE",
"362 474 OFFCURVE",
"388 498 OFFCURVE",
"431 498 CURVE",
"495 498 OFFCURVE",
"510 449 OFFCURVE",
"510 390 CURVE",
"470 391 LINE",
"353 391 OFFCURVE",
"275 327 OFFCURVE",
"275 212 CURVE",
"275 62 OFFCURVE",
"430 -10 OFFCURVE",
"605 -10 CURVE"
);
}
);
width = 960;
}
);
leftMetricsKey = snNYJA;
},
{
color = 4;
glyphname = snTTA_Virama;
lastChange = "2022-07-23 16:23:55 +0000";
layers = (
{
components = (
{
name = snTTA;
}
);
layerId = "25BA55F5-DD3E-4682-A696-ADF7D9496427";
name = Light;
paths = (
{
closed = 1;
nodes = (
"259 899 LINE",
"259 590 LINE",
"231 570 LINE",
"231 899 LINE"
);
},
{
closed = 1;
nodes = (
"898 834 LINE",
"898 807 LINE",
"25 807 LINE",
"25 834 LINE"
);
}
);
width = 948;
}
);
},
{
color = 4;
glyphname = snDDA_Virama;
lastChange = "2022-07-23 16:23:55 +0000";
layers = (
{
components = (
{
name = snDDA;
}
);
layerId = "25BA55F5-DD3E-4682-A696-ADF7D9496427";
name = Light;
paths = (
{
closed = 1;
nodes = (
"249 899 LINE",
"249 590 LINE",
"221 570 LINE",
"221 899 LINE"
);
},
{
closed = 1;
nodes = (
"888 834 LINE",
"888 807 LINE",
"15 807 LINE",
"15 834 LINE"
);
}
);
width = 963;
}
);
},
{
color = 4;
glyphname = snNNA_Virama;
lastChange = "2022-07-23 16:23:55 +0000";
layers = (
{
components = (
{
name = snNNA;
}
);
layerId = "25BA55F5-DD3E-4682-A696-ADF7D9496427";
paths = (
{
closed = 1;
nodes = (
"831 847 LINE",
"798 835 OFFCURVE",
"721 802 OFFCURVE",
"721 722 CURVE",
"721 634 OFFCURVE",
"784 599 OFFCURVE",
"831 585 CURVE"
);
},
{
closed = 1;
nodes = (
"936 718 OFFCURVE",
"926 712 OFFCURVE",
"918 708 CURVE",
"895 689 OFFCURVE",
"882 650 OFFCURVE",
"882 607 CURVE",
"882 595 OFFCURVE",
"885 587 OFFCURVE",
"887 582 CURVE",
"928 587 OFFCURVE",
"983 607 OFFCURVE",
"991 661 CURVE",
"997 694 OFFCURVE",
"983 710 OFFCURVE",
"950 718 CURVE",
"948 718 OFFCURVE",
"948 718 OFFCURVE",
"945 718 CURVE"
);
},
{
closed = 1;
nodes = (
"858 317 LINE",
"831 337 LINE",
"831 558 LINE",
"809 563 OFFCURVE",
"784 571 OFFCURVE",
"760 587 CURVE",
"729 609 OFFCURVE",
"694 650 OFFCURVE",
"694 722 CURVE",
"694 773 OFFCURVE",
"721 819 OFFCURVE",
"770 849 CURVE",
"806 871 OFFCURVE",
"841 876 OFFCURVE",
"844 880 CURVE",
"858 882 LINE",
"858 650 LINE",
"866 683 OFFCURVE",
"879 710 OFFCURVE",
"901 730 CURVE",
"918 743 OFFCURVE",
"936 749 OFFCURVE",
"956 743 CURVE",
"1005 735 OFFCURVE",
"1026 702 OFFCURVE",
"1018 656 CURVE",
"1010 601 OFFCURVE",
"964 568 OFFCURVE",
"909 558 CURVE",
"934 544 OFFCURVE",
"967 538 OFFCURVE",
"989 538 CURVE",
"1032 538 OFFCURVE",
"1071 566 OFFCURVE",
"1071 566 CURVE",
"1087 544 LINE",
"1084 541 OFFCURVE",
"1040 511 OFFCURVE",
"989 511 CURVE",
"945 511 OFFCURVE",
"899 525 OFFCURVE",
"874 554 CURVE",
"868 552 OFFCURVE",
"864 552 OFFCURVE",
"858 554 CURVE"
);
}
);
width = 967;
}
);
},
{
color = 4;
glyphname = snNNDDA_Virama;
lastChange = "2022-07-23 16:23:55 +0000";
layers = (
{
components = (
{
name = snNNDDA;
}
);
layerId = "25BA55F5-DD3E-4682-A696-ADF7D9496427";
name = Light;
paths = (
{
closed = 1;
nodes = (
"249 899 LINE",
"249 590 LINE",
"221 570 LINE",
"221 899 LINE"
);
},
{
closed = 1;
nodes = (
"888 834 LINE",
"888 807 LINE",
"15 807 LINE",
"15 834 LINE"
);
}
);
width = 950;
}
);
},
{
color = 4;
glyphname = snDA_Virama;
lastChange = "2022-07-23 16:23:55 +0000";
layers = (
{
components = (
{
name = snDA;
}
);
layerId = "25BA55F5-DD3E-4682-A696-ADF7D9496427";
paths = (
{
closed = 1;
nodes = (
"443 788 OFFCURVE",
"495 788 CURVE SMOOTH",
"532 788 OFFCURVE",
"559 804 OFFCURVE",
"571 816 CURVE",
"587 796 LINE",
"562 772 OFFCURVE",
"526 761 OFFCURVE",
"495 761 CURVE SMOOTH",
"443 761 OFFCURVE",
"378 789 OFFCURVE",
"378 882 CURVE SMOOTH",
"378 928 OFFCURVE",
"405 982 OFFCURVE",
"455 982 CURVE SMOOTH",
"483 982 OFFCURVE",
"520 960 OFFCURVE",
"520 913 CURVE SMOOTH",
"520 842 OFFCURVE",
"441 803 OFFCURVE",
"347 803 CURVE SMOOTH",
"259 803 OFFCURVE",
"194 847 OFFCURVE",
"194 944 CURVE SMOOTH",
"194 1027 OFFCURVE",
"249 1116 OFFCURVE",
"358 1132 CURVE",
"358 467 LINE",
"331 477 LINE",
"331 1097 LINE",
"300 1090 OFFCURVE",
"221 1042 OFFCURVE",
"221 944 CURVE SMOOTH",
"221 856 OFFCURVE",
"282 830 OFFCURVE",
"349 830 CURVE SMOOTH",
"405 830 OFFCURVE",
"492 850 OFFCURVE",
"492 914 CURVE SMOOTH",
"492 942 OFFCURVE",
"474 955 OFFCURVE",
"455 955 CURVE SMOOTH",
"421 955 OFFCURVE",
"406 915 OFFCURVE",
"406 882 CURVE SMOOTH",
"406 819 OFFCURVE"
);
}
);
width = 522;
}
);
},
{
color = 4;
glyphname = snDHA_Virama;
lastChange = "2022-07-23 16:23:55 +0000";
layers = (
{
components = (
{
name = snDHA;
}
);
layerId = "25BA55F5-DD3E-4682-A696-ADF7D9496427";
name = Light;
paths = (
{
closed = 1;
nodes = (
"249 899 LINE",
"249 590 LINE",
"221 570 LINE",
"221 899 LINE"
);
},
{
closed = 1;
nodes = (
"888 834 LINE",
"888 807 LINE",
"15 807 LINE",
"15 834 LINE"
);
}
);
width = 963;
}
);
},
{
color = 4;
glyphname = snNA_Virama;
lastChange = "2022-07-23 16:23:55 +0000";
layers = (
{
components = (
{
name = snNA;
}
);
layerId = "25BA55F5-DD3E-4682-A696-ADF7D9496427";
paths = (
{
closed = 1;
nodes = (
"873 788 OFFCURVE",
"925 788 CURVE SMOOTH",
"962 788 OFFCURVE",
"989 804 OFFCURVE",
"1001 816 CURVE",
"1017 796 LINE",
"992 772 OFFCURVE",
"956 761 OFFCURVE",
"925 761 CURVE SMOOTH",
"873 761 OFFCURVE",
"808 789 OFFCURVE",
"808 882 CURVE SMOOTH",
"808 928 OFFCURVE",
"835 982 OFFCURVE",
"885 982 CURVE SMOOTH",
"913 982 OFFCURVE",
"950 960 OFFCURVE",
"950 913 CURVE SMOOTH",
"950 842 OFFCURVE",
"871 803 OFFCURVE",
"777 803 CURVE SMOOTH",
"689 803 OFFCURVE",
"624 847 OFFCURVE",
"624 944 CURVE SMOOTH",
"624 1027 OFFCURVE",
"679 1116 OFFCURVE",
"788 1132 CURVE",
"788 497 LINE",
"761 497 LINE",
"761 1097 LINE",
"730 1090 OFFCURVE",
"651 1042 OFFCURVE",
"651 944 CURVE SMOOTH",
"651 856 OFFCURVE",
"712 830 OFFCURVE",
"779 830 CURVE SMOOTH",
"835 830 OFFCURVE",
"922 850 OFFCURVE",
"922 914 CURVE SMOOTH",
"922 942 OFFCURVE",
"904 955 OFFCURVE",
"885 955 CURVE SMOOTH",
"851 955 OFFCURVE",
"836 915 OFFCURVE",
"836 882 CURVE SMOOTH",
"836 819 OFFCURVE"
);
}
);
width = 803;
}
);
},
{
color = 4;
glyphname = snNDA_Virama;
lastChange = "2022-07-23 16:23:55 +0000";
layers = (
{
components = (
{
name = snNDA;
}
);
layerId = "25BA55F5-DD3E-4682-A696-ADF7D9496427";
paths = (
{
closed = 1;
nodes = (
"663 788 OFFCURVE",
"715 788 CURVE SMOOTH",
"752 788 OFFCURVE",
"779 804 OFFCURVE",
"791 816 CURVE",
"807 796 LINE",
"782 772 OFFCURVE",
"746 761 OFFCURVE",
"715 761 CURVE SMOOTH",
"663 761 OFFCURVE",
"598 789 OFFCURVE",
"598 882 CURVE SMOOTH",
"598 928 OFFCURVE",
"625 982 OFFCURVE",
"675 982 CURVE SMOOTH",
"703 982 OFFCURVE",
"740 960 OFFCURVE",
"740 913 CURVE SMOOTH",
"740 842 OFFCURVE",
"661 803 OFFCURVE",
"567 803 CURVE SMOOTH",
"479 803 OFFCURVE",
"414 847 OFFCURVE",
"414 944 CURVE SMOOTH",
"414 1027 OFFCURVE",
"469 1116 OFFCURVE",
"578 1132 CURVE",
"578 467 LINE",
"551 477 LINE",
"551 1097 LINE",
"520 1090 OFFCURVE",
"441 1042 OFFCURVE",
"441 944 CURVE SMOOTH",
"441 856 OFFCURVE",
"502 830 OFFCURVE",
"569 830 CURVE SMOOTH",
"625 830 OFFCURVE",
"712 850 OFFCURVE",
"712 914 CURVE SMOOTH",
"712 942 OFFCURVE",
"694 955 OFFCURVE",
"675 955 CURVE SMOOTH",
"641 955 OFFCURVE",
"626 915 OFFCURVE",
"626 882 CURVE SMOOTH",
"626 819 OFFCURVE"
);
}
);
width = 746;
}
);
},
{
color = 4;
glyphname = snPA_Virama;
lastChange = "2022-07-23 16:23:55 +0000";
layers = (
{
components = (
{
name = snPA;
}
);
layerId = "25BA55F5-DD3E-4682-A696-ADF7D9496427";
paths = (
{
closed = 1;
nodes = (
"710 788 OFFCURVE",
"762 788 CURVE SMOOTH",
"799 788 OFFCURVE",
"826 804 OFFCURVE",
"838 816 CURVE",
"854 796 LINE",
"829 772 OFFCURVE",
"793 761 OFFCURVE",
"762 761 CURVE SMOOTH",
"710 761 OFFCURVE",
"645 789 OFFCURVE",
"645 882 CURVE SMOOTH",
"645 928 OFFCURVE",
"672 982 OFFCURVE",
"722 982 CURVE SMOOTH",
"750 982 OFFCURVE",
"787 960 OFFCURVE",
"787 913 CURVE SMOOTH",
"787 842 OFFCURVE",
"708 803 OFFCURVE",
"614 803 CURVE SMOOTH",
"526 803 OFFCURVE",
"461 847 OFFCURVE",
"461 944 CURVE SMOOTH",
"461 1027 OFFCURVE",
"516 1116 OFFCURVE",
"625 1132 CURVE",
"625 597 LINE",
"598 597 LINE",
"598 1097 LINE",
"567 1090 OFFCURVE",
"488 1042 OFFCURVE",
"488 944 CURVE SMOOTH",
"488 856 OFFCURVE",
"549 830 OFFCURVE",
"616 830 CURVE SMOOTH",
"672 830 OFFCURVE",
"759 850 OFFCURVE",
"759 914 CURVE SMOOTH",
"759 942 OFFCURVE",
"741 955 OFFCURVE",
"722 955 CURVE SMOOTH",
"688 955 OFFCURVE",
"673 915 OFFCURVE",
"673 882 CURVE SMOOTH",
"673 819 OFFCURVE"
);
}
);
width = 758;
}
);
},
{
color = 4;
glyphname = snBA_Virama;
lastChange = "2022-07-23 16:23:55 +0000";
layers = (
{
components = (
{
name = snBA;
}
);
layerId = "25BA55F5-DD3E-4682-A696-ADF7D9496427";
name = Light;
paths = (
{
closed = 1;
nodes = (
"279 899 LINE",
"279 600 LINE",
"251 580 LINE",
"251 899 LINE"
);
},
{
closed = 1;
nodes = (
"918 834 LINE",
"918 807 LINE",
"45 807 LINE",
"45 834 LINE"
);
}
);
width = 1033;
}
);
},
{
color = 4;
glyphname = snMA_Virama;
lastChange = "2022-07-23 16:23:55 +0000";
layers = (
{
components = (
{
name = snMA;
}
);
layerId = "25BA55F5-DD3E-4682-A696-ADF7D9496427";
name = Light;
paths = (
{
closed = 1;
nodes = (
"260 899 LINE",
"260 590 LINE",
"232 570 LINE",
"232 899 LINE"
);
},
{
closed = 1;
nodes = (
"899 834 LINE",
"899 807 LINE",
"26 807 LINE",
"26 834 LINE"
);
}
);
width = 929;
}
);
},
{
color = 4;
glyphname = snMBA_Virama;
lastChange = "2022-07-23 16:23:55 +0000";
layers = (
{
components = (
{
name = snMBA;
}
);
layerId = "25BA55F5-DD3E-4682-A696-ADF7D9496427";
name = Light;
paths = (
{
closed = 1;
nodes = (
"279 899 LINE",
"279 590 LINE",
"251 570 LINE",
"251 899 LINE"
);
},
{
closed = 1;
nodes = (
"918 834 LINE",
"918 807 LINE",
"45 807 LINE",
"45 834 LINE"
);
}
);
width = 995;
}
);
},
{
color = 4;
glyphname = snYA_Virama;
lastChange = "2022-07-23 16:23:55 +0000";
layers = (
{
components = (
{
name = snYA;
}
);
layerId = "25BA55F5-DD3E-4682-A696-ADF7D9496427";
paths = (
{
closed = 1;
nodes = (
"653 788 OFFCURVE",
"705 788 CURVE SMOOTH",
"742 788 OFFCURVE",
"769 804 OFFCURVE",
"781 816 CURVE",
"797 796 LINE",
"772 772 OFFCURVE",
"736 761 OFFCURVE",
"705 761 CURVE SMOOTH",
"653 761 OFFCURVE",
"588 789 OFFCURVE",
"588 882 CURVE SMOOTH",
"588 928 OFFCURVE",
"615 982 OFFCURVE",
"665 982 CURVE SMOOTH",
"693 982 OFFCURVE",
"730 960 OFFCURVE",
"730 913 CURVE SMOOTH",
"730 842 OFFCURVE",
"651 803 OFFCURVE",
"557 803 CURVE SMOOTH",
"469 803 OFFCURVE",
"404 847 OFFCURVE",
"404 944 CURVE SMOOTH",
"404 1027 OFFCURVE",
"459 1116 OFFCURVE",
"568 1132 CURVE",
"568 537 LINE",
"541 537 LINE",
"541 1097 LINE",
"510 1090 OFFCURVE",
"431 1042 OFFCURVE",
"431 944 CURVE SMOOTH",
"431 856 OFFCURVE",
"492 830 OFFCURVE",
"559 830 CURVE SMOOTH",
"615 830 OFFCURVE",
"702 850 OFFCURVE",
"702 914 CURVE SMOOTH",
"702 942 OFFCURVE",
"684 955 OFFCURVE",
"665 955 CURVE SMOOTH",
"631 955 OFFCURVE",
"616 915 OFFCURVE",
"616 882 CURVE SMOOTH",
"616 819 OFFCURVE"
);
}
);
width = 704;
}
);
},
{
color = 4;
glyphname = snVA_Virama;
lastChange = "2022-07-23 16:23:55 +0000";
layers = (
{
background = {
paths = (
{
closed = 1;
nodes = (
"125 380 OFFCURVE",
"49 305 OFFCURVE",
"49 201 CURVE SMOOTH",
"49 71 OFFCURVE",
"170 -10 OFFCURVE",
"326 -10 CURVE SMOOTH",
"571 -10 OFFCURVE",
"672 177 OFFCURVE",
"672 367 CURVE",
"672 573 OFFCURVE",
"587 773 OFFCURVE",
"302 773 CURVE",
"213 773 OFFCURVE",
"130 753 OFFCURVE",
"69 727 CURVE",
"69 672 LINE",
"129 697 OFFCURVE",
"213 718 OFFCURVE",
"302 718 CURVE",
"530 718 OFFCURVE",
"612 570 OFFCURVE",
"612 367 CURVE",
"612 178 OFFCURVE",
"505 45 OFFCURVE",
"327 45 CURVE SMOOTH",
"204 45 OFFCURVE",
"113 103 OFFCURVE",
"113 202 CURVE SMOOTH",
"113 278 OFFCURVE",
"158 326 OFFCURVE",
"265 326 CURVE",
"378 326 LINE",
"380 340 OFFCURVE",
"380 353 OFFCURVE",
"380 367 CURVE",
"380 462 OFFCURVE",
"337 553 OFFCURVE",
"211 553 CURVE SMOOTH",
"119 553 OFFCURVE",
"65 499 OFFCURVE",
"65 424 CURVE",
"125 424 LINE",
"128 471 OFFCURVE",
"159 498 OFFCURVE",
"212 498 CURVE",
"296 498 OFFCURVE",
"316 439 OFFCURVE",
"316 380 CURVE",
"246 380 LINE"
);
}
);
};
components = (
{
name = snVA;
}
);
layerId = "25BA55F5-DD3E-4682-A696-ADF7D9496427";
name = Light;
paths = (
{
closed = 1;
nodes = (
"349 899 LINE",
"349 620 LINE",
"321 600 LINE",
"321 899 LINE"
);
},
{
closed = 1;
nodes = (
"988 834 LINE",
"988 807 LINE",
"115 807 LINE",
"115 834 LINE"
);
}
);
width = 1049;
}
);
},
{
color = 4;
glyphname = snSSA_Virama;
lastChange = "2022-07-23 16:23:55 +0000";
layers = (
{
components = (
{
name = snSSA;
}
);
layerId = "25BA55F5-DD3E-4682-A696-ADF7D9496427";
paths = (
{
closed = 1;
nodes = (
"633 788 OFFCURVE",
"685 788 CURVE SMOOTH",
"722 788 OFFCURVE",
"749 804 OFFCURVE",
"761 816 CURVE",
"777 796 LINE",
"752 772 OFFCURVE",
"716 761 OFFCURVE",
"685 761 CURVE SMOOTH",
"633 761 OFFCURVE",
"568 789 OFFCURVE",
"568 882 CURVE SMOOTH",
"568 928 OFFCURVE",
"595 982 OFFCURVE",
"645 982 CURVE SMOOTH",
"673 982 OFFCURVE",
"710 960 OFFCURVE",
"710 913 CURVE SMOOTH",
"710 842 OFFCURVE",
"631 803 OFFCURVE",
"537 803 CURVE SMOOTH",
"449 803 OFFCURVE",
"384 847 OFFCURVE",
"384 944 CURVE SMOOTH",
"384 1027 OFFCURVE",
"439 1116 OFFCURVE",
"548 1132 CURVE",
"548 577 LINE",
"521 587 LINE",
"521 1097 LINE",
"490 1090 OFFCURVE",
"411 1042 OFFCURVE",
"411 944 CURVE SMOOTH",
"411 856 OFFCURVE",
"472 830 OFFCURVE",
"539 830 CURVE SMOOTH",
"595 830 OFFCURVE",
"682 850 OFFCURVE",
"682 914 CURVE SMOOTH",
"682 942 OFFCURVE",
"664 955 OFFCURVE",
"645 955 CURVE SMOOTH",
"611 955 OFFCURVE",
"596 915 OFFCURVE",
"596 882 CURVE SMOOTH",
"596 819 OFFCURVE"
);
}
);
width = 738;
}
);
},
{
color = 4;
glyphname = snSA_Virama;
lastChange = "2022-07-23 16:23:55 +0000";
layers = (
{
components = (
{
name = snSA;
}
);
layerId = "25BA55F5-DD3E-4682-A696-ADF7D9496427";
paths = (
{
closed = 1;
nodes = (
"843 788 OFFCURVE",
"895 788 CURVE SMOOTH",
"932 788 OFFCURVE",
"959 804 OFFCURVE",
"971 816 CURVE",
"987 796 LINE",
"962 772 OFFCURVE",
"926 761 OFFCURVE",
"895 761 CURVE SMOOTH",
"843 761 OFFCURVE",
"778 789 OFFCURVE",
"778 882 CURVE SMOOTH",
"778 928 OFFCURVE",
"805 982 OFFCURVE",
"855 982 CURVE SMOOTH",
"883 982 OFFCURVE",
"920 960 OFFCURVE",
"920 913 CURVE SMOOTH",
"920 842 OFFCURVE",
"841 803 OFFCURVE",
"747 803 CURVE SMOOTH",
"659 803 OFFCURVE",
"594 847 OFFCURVE",
"594 944 CURVE SMOOTH",
"594 1027 OFFCURVE",
"649 1116 OFFCURVE",
"758 1132 CURVE",
"758 527 LINE",
"731 537 LINE",
"731 1097 LINE",
"700 1090 OFFCURVE",
"621 1042 OFFCURVE",
"621 944 CURVE SMOOTH",
"621 856 OFFCURVE",
"682 830 OFFCURVE",
"749 830 CURVE SMOOTH",
"805 830 OFFCURVE",
"892 850 OFFCURVE",
"892 914 CURVE SMOOTH",
"892 942 OFFCURVE",
"874 955 OFFCURVE",
"855 955 CURVE SMOOTH",
"821 955 OFFCURVE",
"806 915 OFFCURVE",
"806 882 CURVE SMOOTH",
"806 819 OFFCURVE"
);
}
);
width = 897;
}
);
},
{
color = 4;
glyphname = snFA_Virama;
lastChange = "2022-07-23 16:23:55 +0000";
layers = (
{
components = (
{
name = snFA;
}
);
layerId = "25BA55F5-DD3E-4682-A696-ADF7D9496427";
paths = (
{
closed = 1;
nodes = (
"839 819 OFFCURVE",
"876 788 OFFCURVE",
"928 788 CURVE SMOOTH",
"965 788 OFFCURVE",
"992 804 OFFCURVE",
"1004 816 CURVE",
"1020 796 LINE",
"995 772 OFFCURVE",
"959 761 OFFCURVE",
"928 761 CURVE SMOOTH",
"876 761 OFFCURVE",
"811 789 OFFCURVE",
"811 882 CURVE SMOOTH",
"811 928 OFFCURVE",
"838 982 OFFCURVE",
"888 982 CURVE SMOOTH",
"916 982 OFFCURVE",
"953 960 OFFCURVE",
"953 913 CURVE SMOOTH",
"953 842 OFFCURVE",
"874 803 OFFCURVE",
"780 803 CURVE SMOOTH",
"692 803 OFFCURVE",
"627 847 OFFCURVE",
"627 944 CURVE SMOOTH",
"627 1027 OFFCURVE",
"682 1116 OFFCURVE",
"791 1132 CURVE",
"791 497 LINE",
"764 507 LINE",
"764 1097 LINE",
"733 1090 OFFCURVE",
"654 1042 OFFCURVE",
"654 944 CURVE SMOOTH",
"654 856 OFFCURVE",
"715 830 OFFCURVE",
"782 830 CURVE SMOOTH",
"838 830 OFFCURVE",
"925 850 OFFCURVE",
"925 914 CURVE SMOOTH",
"925 942 OFFCURVE",
"907 955 OFFCURVE",
"888 955 CURVE SMOOTH",
"854 955 OFFCURVE",
"839 915 OFFCURVE",
"839 882 CURVE SMOOTH"
);
}
);
width = 960;
}
);
},
{
color = 4;
glyphname = snK_SSA_Virama;
lastChange = "2022-07-23 16:23:55 +0000";
layers = (
{
components = (
{
name = snK_SSA;
}
);
layerId = "25BA55F5-DD3E-4682-A696-ADF7D9496427";
paths = (
{
closed = 1;
nodes = (
"1116 819 OFFCURVE",
"1153 788 OFFCURVE",
"1205 788 CURVE SMOOTH",
"1242 788 OFFCURVE",
"1269 804 OFFCURVE",
"1281 816 CURVE",
"1297 796 LINE",
"1272 772 OFFCURVE",
"1236 761 OFFCURVE",
"1205 761 CURVE SMOOTH",
"1153 761 OFFCURVE",
"1088 789 OFFCURVE",
"1088 882 CURVE SMOOTH",
"1088 928 OFFCURVE",
"1115 982 OFFCURVE",
"1165 982 CURVE SMOOTH",
"1193 982 OFFCURVE",
"1230 960 OFFCURVE",
"1230 913 CURVE SMOOTH",
"1230 842 OFFCURVE",
"1151 803 OFFCURVE",
"1057 803 CURVE SMOOTH",
"969 803 OFFCURVE",
"904 847 OFFCURVE",
"904 944 CURVE SMOOTH",
"904 1027 OFFCURVE",
"959 1116 OFFCURVE",
"1068 1132 CURVE",
"1068 587 LINE",
"1041 587 LINE",
"1041 1097 LINE",
"1010 1090 OFFCURVE",
"931 1042 OFFCURVE",
"931 944 CURVE SMOOTH",
"931 856 OFFCURVE",
"992 830 OFFCURVE",
"1059 830 CURVE SMOOTH",
"1115 830 OFFCURVE",
"1202 850 OFFCURVE",
"1202 914 CURVE SMOOTH",
"1202 942 OFFCURVE",
"1184 955 OFFCURVE",
"1165 955 CURVE SMOOTH",
"1131 955 OFFCURVE",
"1116 915 OFFCURVE",
"1116 882 CURVE SMOOTH"
);
}
);
width = 1263;
}
);
},
{
color = 4;
glyphname = snKHA_mI;
lastChange = "2022-07-23 16:23:55 +0000";
layers = (
{
layerId = "25BA55F5-DD3E-4682-A696-ADF7D9496427";
paths = (
{
closed = 1;
nodes = (
"361 285 OFFCURVE",
"399 240 OFFCURVE",
"399 188 CURVE SMOOTH",
"399 175 OFFCURVE",
"397 163 OFFCURVE",
"394 151 CURVE",
"450 185 OFFCURVE",
"494 220 OFFCURVE",
"494 266 CURVE SMOOTH",
"494 317 OFFCURVE",
"438 362 OFFCURVE",
"385 362 CURVE SMOOTH",
"335 362 OFFCURVE",
"283 326 OFFCURVE",
"261 295 CURVE"
);
},
{
closed = 1;
nodes = (
"238 242 OFFCURVE",
"238 219 OFFCURVE",
"238 195 CURVE SMOOTH",
"238 135 OFFCURVE",
"286 109 OFFCURVE",
"315 109 CURVE SMOOTH",
"341 109 OFFCURVE",
"369 150 OFFCURVE",
"369 185 CURVE SMOOTH",
"369 242 OFFCURVE",
"304 262 OFFCURVE",
"247 266 CURVE"
);
},
{
closed = 1;
nodes = (
"64 -269 LINE",
"64 -71 OFFCURVE",
"169 5 OFFCURVE",
"284 85 CURVE",
"255 90 OFFCURVE",
"207 134 OFFCURVE",
"207 195 CURVE SMOOTH",
"207 215 OFFCURVE",
"207 240 OFFCURVE",
"215 266 CURVE",
"79 258 OFFCURVE",
"48 109 OFFCURVE",
"48 50 CURVE",
"20 50 LINE",
"20 127 OFFCURVE",
"64 293 OFFCURVE",
"229 296 CURVE",
"253 349 OFFCURVE",
"324 392 OFFCURVE",
"385 392 CURVE SMOOTH",
"456 392 OFFCURVE",
"524 334 OFFCURVE",
"524 266 CURVE SMOOTH",
"524 167 OFFCURVE",
"358 95 OFFCURVE",
"344 86 CURVE SMOOTH",
"197 -9 OFFCURVE",
"94 -74 OFFCURVE",
"94 -269 CURVE"
);
},
{
closed = 1;
nodes = (
"842 120 OFFCURVE",
"823 -1 OFFCURVE",
"722 -1 CURVE SMOOTH",
"613 -1 OFFCURVE",
"607 103 OFFCURVE",
"542 103 CURVE SMOOTH",
"479 103 OFFCURVE",
"448 24 OFFCURVE",
"384 -53 CURVE",
"362 -34 LINE",
"413 29 OFFCURVE",
"464 103 OFFCURVE",
"458 189 CURVE",
"486 218 LINE",
"486 216 OFFCURVE",
"488 152 OFFCURVE",
"476 107 CURVE",
"493 122 OFFCURVE",
"519 131 OFFCURVE",
"542 131 CURVE SMOOTH",
"631 131 OFFCURVE",
"625 30 OFFCURVE",
"721 30 CURVE SMOOTH",
"799 30 OFFCURVE",
"816 139 OFFCURVE",
"815 231 CURVE SMOOTH",
"814 377 OFFCURVE",
"756 473 OFFCURVE",
"476 569 CURVE SMOOTH",
"279 637 OFFCURVE",
"139 693 OFFCURVE",
"139 825 CURVE SMOOTH",
"139 961 OFFCURVE",
"289 1052 OFFCURVE",
"434 1052 CURVE SMOOTH",
"669 1052 OFFCURVE",
"806 925 OFFCURVE",
"806 791 CURVE SMOOTH",
"806 676 OFFCURVE",
"740 609 OFFCURVE",
"703 574 CURVE",
"687 597 LINE",
"732 639 OFFCURVE",
"778 698 OFFCURVE",
"778 791 CURVE SMOOTH",
"778 915 OFFCURVE",
"631 1025 OFFCURVE",
"434 1025 CURVE SMOOTH",
"281 1025 OFFCURVE",
"167 933 OFFCURVE",
"167 825 CURVE SMOOTH",
"167 725 OFFCURVE",
"246 676 OFFCURVE",
"476 597 CURVE SMOOTH",
"742 506 OFFCURVE",
"842 420 OFFCURVE",
"842 231 CURVE SMOOTH"
);
}
);
width = 885;
}
);
},
